/* XPM */
static char * doer_xpm[] = {
"32 32 28 1",
" 	c #383838",
".	c #009898",
"+	c #008888",
"@	c #007070",
"#	c #007878",
"$	c #20B0B0",
"%	c #70C8C8",
"&	c #48C0C0",
"*	c #00A0A0",
"=	c #008080",
"-	c #606060",
";	c #707070",
">	c #787878",
",	c #989898",
"'	c #C0C0C0",
")	c #585800",
"!	c #B0B0B0",
"~	c #A8A8A8",
"{	c #484848",
"]	c #484800",
"^	c #000000",
"/	c #98D8D8",
"(	c #282828",
"_	c #404000",
":	c #B8E8E8",
"<	c #303000",
"[	c #505050",
"}	c #888888",
"                                ",
" .+@+++@.++@+++@+++@+++@+++@+++#",
" $$#$$$#$$$#$$$#$%$#&$$#$$$#.+.#",
" $$#@@@@@@@@@@@@@@@@@@@@@@@@@+.#",
" @$&********$$$$$$$$$$$$**..@#=#",
" *$%******$$$$$$$$$$$$$**...@.*#",
" $$%****$$$$$$$$$$$$$$$*..++@.$#",
" $$%**$$$$$$$$$$$$$$$$*...++@*$#",
" @$%$$$$$$$$$$$$$$$$$**..+++@#=#",
" *$%$$$$$$$$$$$$$$$$**..++=+@*$#",
" $$%$$$$$$$$$$$$$$$**..+++++@*$#",
" $$%$$$$$$$$$$$$$$$**..++=++@$$#",
" @$%$$$$$$$$$$$$$$**..++=+++@#=#",
" *$%$$$$$$$$$$$$$**..++==+++@*$#",
" $$%$$$$-;>,'$$$**...++==+++@*$#",
" $$%#)$#--;>!$$$*...++===++.@$$#",
" @$$+)&#---;~$$**..++====++.@#=#",
" *%.%)&#{]^-~$**..+++===+++.@*$#",
" %/.%)&#(_(-~**...++====++..@*$#",
" ::.&)&#(((-,*...++====+++..@$$#",
" #:.+<$# {[-,*..+++====+++..@#=#",
" %/.=$$#([[-}..+++====+++...@*$#",
" /%.$$$#####...+++====+++...@*$#",
" %&$$$$$$$**..+++====++++...@$$#",
" @&&$$$$$**..+++=====+++...*@#=#",
" *&%$$$$$*..++++====++++...*@*$#",
" &$%$$$$*...+++=====++++...*@*$#",
" $$%$$$$*..+++=====++++....*@*$#",
" @$%$$$*..+++++====++++....*##=#",
" *$::::::::://%&&%////////%%+*$#",
" $$=$$$=*..@.=#@#=.@..$=$$$=$$$#",
"{$$#$$$#...#+=#@=+.#.*$#$$$#$$$#"};
