/* XPM */
static char * Dungeon_Bricks3_xpm[] = {
"32 32 5 1",
" 	c #2F2E2F",
".	c #564064",
"+	c #3E2F5A",
"@	c #39314B",
"#	c #85578E",
"                                ",
"............   ..............   ",
".....+....... ......+...+..... .",
"++.++++.+++.. ..++.+++.++++++. .",
"+++++@++++@@. .@@++++++++++@++ +",
"@@@@@@@@@@@@@ @@@@@@++@@@@@@@@ @",
"@@@@@@@@@@@@   @@@@@@@@@@@@@@   ",
"                                ",
" .############################. ",
" ##############..############## ",
" ##...#..#...#....#.##.##.#..## ",
" #.#.......+...+++..........#.# ",
" #.....+..+++......++..+.+..... ",
" .#...++++++++++..+++++++++.... ",
" +..++++++++++++++++++++++++..+ ",
"                                ",
" .########   #################. ",
" ######.### ######.############ ",
" ###.#...## ##..#....#..###.### ",
" ##..+....# #.....+..+...#.#.## ",
" #.#..+...+ +....++...+.......# ",
" #....++.++ ++.+++..+...++..... ",
" .#..++++++ ++++++++++.++++.... ",
" +.+++++++   +++++++++++++++..+ ",
"                                ",
" .############################. ",
" ###.########.###.############# ",
" ####.###..#...#...#.###..##.## ",
" #...#+#+......+......#.....### ",
" .....++++.++.....++.+..+...... ",
" +...+++++++++++.+++++++++....+ ",
"                                "};
