/* XPM */
static char *result[] = {
/* columns rows colors chars-per-pixel */
"32 32 105 2 ",
"   c #000000",
".  c #070805",
"X  c #090A06",
"o  c #0D0E0A",
"O  c #0E110A",
"+  c #11130C",
"@  c #13190F",
"#  c #171C11",
"$  c #1C1E13",
"%  c #1D2114",
"&  c #202415",
"*  c #282D1A",
"=  c #2C321D",
"-  c #353B22",
";  c #3C3922",
":  c #433923",
">  c #483A24",
",  c #543724",
"<  c #593D27",
"1  c #613725",
"2  c #693423",
"3  c #643D22",
"4  c #713E29",
"5  c #3D4525",
"6  c #3F4926",
"7  c #414A27",
"8  c #42472A",
"9  c #434D29",
"0  c #494C2F",
"q  c #49532A",
"w  c #4E5B2C",
"e  c #525F2E",
"r  c #4D4D33",
"t  c #494D3C",
"y  c #54612F",
"u  c #576430",
"i  c #5C6B32",
"p  c #646E2E",
"a  c #627334",
"s  c #637933",
"d  c #697B37",
"f  c #6B7D38",
"g  c #5A6945",
"h  c #647042",
"j  c #686C5C",
"k  c #823D2B",
"l  c #9F3D2D",
"z  c #B73E2F",
"x  c #B83F30",
"c  c #6F823A",
"v  c #75893C",
"b  c #798E3E",
"n  c #7E933F",
"m  c #7F9540",
"M  c #859D3D",
"N  c #809640",
"B  c #869D42",
"V  c #8AA344",
"C  c #8EA846",
"Z  c #90AA47",
"A  c #94AF48",
"S  c #94B246",
"D  c #96B149",
"F  c #9AB64B",
"G  c #9EBB4C",
"H  c #99A354",
"J  c #A0BE4E",
"K  c #A4BE51",
"L  c #818B75",
"P  c #A9AB62",
"I  c #AFB364",
"U  c #A3B56E",
"Y  c #B8BE67",
"T  c #B9AD72",
"R  c #AABD74",
"E  c #BCB174",
"W  c #C0BC71",
"Q  c #C7BB7A",
"!  c #C9BC7B",
"~  c #A3C14F",
"^  c #A6C450",
"/  c #C7C574",
"(  c #A3AD87",
")  c #B2B3B0",
"_  c #BEBFBB",
"`  c #B5C48B",
"'  c #B9C88D",
"]  c #BCCA93",
"[  c #DCCE87",
"{  c #DEC88C",
"}  c #C0CF92",
"|  c #E1D28A",
" . c #E3C296",
".. c #E7C399",
"X. c #EBC39C",
"o. c #C1CAA6",
"O. c #D3DCBA",
"+. c #FED7A7",
"@. c #FFD7A8",
"#. c #FFDAAC",
"$. c #DBE4C4",
"%. c #E5E6E4",
"&. c #E7E8E5",
"*. c #F8F7F9",
"=. c #F9FAF9",
/* pixels */
"                                                                ",
"                                                                ",
"                                                                ",
"                                                                ",
"                                                                ",
"                $ & % $ % % $ % $ $ % % $ $ $ #                 ",
"            . @ = q y y y e u i i i i i i i i y % .             ",
"            $ : - d V B V B V G G G G F G F J Z 7 O             ",
"          % < l : s V V V B V Z G J D C V V D A 7 +             ",
"          % 4 z > s R o.h ( ] V G c f D D F m w - +             ",
"          % < k ; s } %.t ) $.V F c c J G ^ B e - +             ",
"          $ = - : p ` %.j _ $.C G G G G G G K Z 7 O             ",
"            @ : l 3 L =.&.*.O.V F G G G G G J Z 7 O             ",
"            O > z 2 g ` ' ` U V G G J ^ ^ K ^ A 7 O             ",
"            + ; k < w M M M M V Z G Z v m v m c 5 +             ",
"            + = * = w n B V B V V G m 6 - = * = * +             ",
"              . . & - 9 m V Z G G G G B 5 @ . . .               ",
"                  X $ 5 m P ! [ [ [ | Q 0 o                     ",
"                + o # 5 m T X.+.#.#.#...r O                     ",
"              . = 5 7 q m T X.+.+.+.#. .r O                     ",
"              . = c A Z V T ..+.+.+.#. .r O                     ",
"              . = w v A V H I /  .X.{ I 6 o                     ",
"              . $ * 7 d B V S K E Q Y S a = .                   ",
"                  & - q n F F Z S A A G G i $                   ",
"                  % w n B F n 7 7 5 i V G i $                   ",
"                  & 7 u e i 7 + O o * u i 9 %                   ",
"                  @ & % $ % +       X $ $ & @                   ",
"                                                                ",
"                                                                ",
"                                                                ",
"                                                                ",
"                                                                "
};
