/* XPM */
static char *result[] = {
/* columns rows colors chars-per-pixel */
"32 32 106 2 ",
"   c #000000",
".  c #070805",
"X  c #080905",
"o  c #0C0F08",
"O  c #0F110B",
"+  c #11130B",
"@  c #13190F",
"#  c #171C11",
"$  c #1B1E12",
"%  c #1D2114",
"&  c #212616",
"*  c #292D1C",
"=  c #2C321D",
"-  c #353B22",
";  c #3C3922",
":  c #433923",
">  c #483A24",
",  c #543724",
"<  c #593D27",
"1  c #613725",
"2  c #693423",
"3  c #643D22",
"4  c #713E29",
"5  c #3D4525",
"6  c #3F4825",
"7  c #404927",
"8  c #444D28",
"9  c #494C2F",
"0  c #4A542A",
"q  c #4D5A2C",
"w  c #525F2E",
"e  c #4E4D33",
"r  c #494D3C",
"t  c #53602F",
"y  c #576430",
"u  c #5C6B33",
"i  c #646E2E",
"p  c #627234",
"a  c #637933",
"s  c #687A36",
"d  c #6C7E38",
"f  c #5A6945",
"g  c #647042",
"h  c #686C5C",
"j  c #823D2B",
"k  c #9F3D2D",
"l  c #B73E2F",
"z  c #B83F30",
"x  c #6F823A",
"c  c #72853B",
"v  c #75893C",
"b  c #798E3E",
"n  c #7D933F",
"m  c #7F9540",
"M  c #859D3D",
"N  c #819542",
"B  c #869D42",
"V  c #8AA344",
"C  c #8EA846",
"Z  c #90AA47",
"A  c #94AE48",
"S  c #93B245",
"D  c #96B249",
"F  c #9AB64B",
"G  c #9EBA4C",
"H  c #99A354",
"J  c #A0BE4E",
"K  c #A4BE51",
"L  c #818B75",
"P  c #A9AB62",
"I  c #AFB364",
"U  c #A3B56E",
"Y  c #B3B865",
"T  c #B9BF68",
"R  c #B9AD72",
"E  c #AABD74",
"W  c #BCB174",
"Q  c #C0BC71",
"!  c #C7BB7A",
"~  c #C9BC7B",
"^  c #A3C14F",
"/  c #A6C450",
"(  c #C7C574",
")  c #A3AD87",
"_  c #B2B3B0",
"`  c #BEBFBB",
"'  c #B5C48B",
"]  c #B9C88D",
"[  c #BCCA93",
"{  c #DCCE87",
"}  c #DDC68C",
"|  c #C0CF92",
" . c #E1D28A",
".. c #E3C295",
"X. c #E7C399",
"o. c #EBC39C",
"O. c #C1CAA6",
"+. c #D3DCBA",
"@. c #FED7A7",
"#. c #FFD7A8",
"$. c #FFDAAC",
"%. c #DBE4C4",
"&. c #E5E6E4",
"*. c #E7E8E5",
"=. c #F8F7F9",
"-. c #F9FAF9",
/* pixels */
"                                                                ",
"                                                                ",
"                                                                ",
"                                                                ",
"                                                                ",
"                $ & % $ % % $ $ $ $ $ $ $ % % #                 ",
"            . @ = 0 t y y w y u u u u u u u u t % .             ",
"            $ : - s V B B B C F G J G F F G G Z 7 O             ",
"          % < k : a V V B B V Z G J D C V V D Z 7 +             ",
"          % 4 l > a E O.g ) [ V F x d D D F N w - +             ",
"          % < j ; a | &.r _ %.C F x x G J J B w - +             ",
"          $ = - : i ' &.h ` %.C G G J G J G ^ Z 7 O             ",
"            @ : k 3 L -.&.=.+.V F J G J J G ^ Z 7 O             ",
"            O > l 2 f ' ] ] U V G G G / ^ ^ / A 7 O             ",
"            + ; j , w M M M M V A G Z v v b b x 5 +             ",
"            + = = = q n B V B V V F m 6 - = = = = +             ",
"              . . & - 8 N V Z F G G G B 5 @ . . .               ",
"                  X $ 5 n P ~ { { {  .! 9 O                     ",
"                + O # 5 n R o.$.$.$.$.X.e O                     ",
"              . * 5 7 0 N W X.@.$.$.$...e +                     ",
"              . = d A Z V R X.@.@.@.$...e = $                   ",
"              . = w v A V H I ( ..o.} T N q %                   ",
"              . % * 8 d B V S K Q ~ Y D F u %                   ",
"                  $ = 5 n F F Z C Z B N n 0 #                   ",
"                    @ 5 m F n 7 7 7 6 5 5 $                     ",
"                    + 5 N c 6 + O O + + + .                     ",
"                    + 5 p 5 o                                   ",
"                    O = = +                                     ",
"                      X .                                       ",
"                                                                ",
"                                                                ",
"                                                                "
};
