/* XPM */
static char *Screenshot_2023_09_13_at_10_56_11_Intra_Profile_kyaubry_1_1694595421[] = {
/* columns rows colors chars-per-pixel */
"32 32 200 2 ",
"   c #1F0B15",
".  c #141316",
"X  c #1B1715",
"o  c #1E1916",
"O  c #171518",
"+  c #1A1618",
"@  c #1C191B",
"#  c #220D17",
"$  c #240E18",
"%  c #2D0C1A",
"&  c #380E1E",
"*  c #211917",
"=  c #24131B",
"-  c #29141E",
";  c #231C1A",
":  c #281F1D",
">  c #27211E",
",  c #29211F",
"<  c #33241E",
"1  c #1F1F24",
"2  c #271B22",
"3  c #2D1922",
"4  c #311A24",
"5  c #232124",
"6  c #2C2523",
"7  c #2C2829",
"8  c #322926",
"9  c #3D2B25",
"0  c #3B272E",
"q  c #352D2A",
"w  c #3B282F",
"e  c #37302D",
"r  c #3A322E",
"t  c #3D2B31",
"y  c #3E3632",
"u  c #3D3A3A",
"i  c #450C23",
"p  c #490923",
"a  c #560A28",
"s  c #6A0C2E",
"d  c #720833",
"f  c #780836",
"g  c #492E27",
"h  c #4B3229",
"j  c #55372B",
"k  c #422F35",
"l  c #433235",
"z  c #423238",
"x  c #463C3B",
"c  c #5C3C30",
"v  c #603A2A",
"b  c #4B433D",
"n  c #53433A",
"m  c #5C4738",
"M  c #6A4536",
"N  c #764730",
"B  c #734D3C",
"V  c #6C523D",
"C  c #7D553B",
"Z  c #5B3C42",
"A  c #743C49",
"S  c #4D4741",
"D  c #554846",
"F  c #58494C",
"G  c #58524C",
"H  c #6D4A4D",
"J  c #7B5548",
"K  c #645851",
"L  c #695A5B",
"P  c #725C53",
"I  c #67605A",
"U  c #726156",
"Y  c #75645B",
"T  c #6E5F60",
"R  c #6C6865",
"E  c #746564",
"W  c #766B68",
"Q  c #786F6A",
"!  c #90053F",
"~  c #854B3D",
"^  c #970743",
"/  c #9A214F",
"(  c #8B5A45",
")  c #875C49",
"_  c #975549",
"`  c #815E52",
"'  c #8D6345",
"]  c #8C6449",
"[  c #8E6B4C",
"{  c #96674E",
"}  c #946B4C",
"|  c #97714F",
" . c #876253",
".. c #8A6754",
"X. c #8F6C52",
"o. c #946853",
"O. c #9B6D56",
"+. c #947253",
"@. c #9B7254",
"#. c #93735A",
"$. c #9A785E",
"%. c #A16959",
"&. c #A3735B",
"*. c #A4785D",
"=. c #98596C",
"-. c #836F67",
";. c #887568",
":. c #997765",
">. c #857873",
",. c #847B77",
"<. c #957E70",
"1. c #A16F62",
"2. c #A27562",
"3. c #AA7567",
"4. c #A67B62",
"5. c #AD7C65",
"6. c #A37F6B",
"7. c #AB7E6A",
"8. c #B07D66",
"9. c #B27E6C",
"0. c #A47475",
"q. c #8C847C",
"w. c #9C8C7D",
"e. c #A4806D",
"r. c #AB836A",
"t. c #B2826C",
"y. c #A48574",
"u. c #AA8776",
"i. c #B48572",
"p. c #B58975",
"a. c #BA8A76",
"s. c #B68C79",
"d. c #BB8C7A",
"f. c #B8937E",
"g. c #C1917C",
"h. c #C27089",
"j. c #8D8881",
"k. c #948A83",
"l. c #978B85",
"z. c #998E89",
"x. c #9E9185",
"c. c #9B948C",
"v. c #AC8780",
"b. c #A39586",
"n. c #AA9585",
"m. c #A79886",
"M. c #A2958C",
"N. c #A79988",
"B. c #AC9C8A",
"V. c #B59482",
"C. c #BA9582",
"Z. c #BE9A86",
"A. c #B39C8B",
"S. c #BC9D8A",
"D. c #A19792",
"F. c #A79E96",
"G. c #AC9C93",
"H. c #B49495",
"J. c #AFA08D",
"K. c #B2A28E",
"L. c #AEA395",
"P. c #ADA39B",
"I. c #B5A692",
"U. c #B7A997",
"Y. c #B1A59D",
"T. c #B3A99F",
"R. c #BBAE9C",
"E. c #ACA7A1",
"W. c #ACA9A3",
"Q. c #B3ACA3",
"!. c #BBB3A9",
"~. c #BAB4A9",
"^. c #BAB7B0",
"/. c #BEB9B1",
"(. c #C59482",
"). c #C49986",
"_. c #C99985",
"`. c #C59E8A",
"'. c #CD9E8B",
"]. c #C4A38E",
"[. c #CDA08D",
"{. c #D1A18F",
"}. c #C8A391",
"|. c #D1A996",
" X c #C0ACA7",
".X c #C0B3A3",
"XX c #C3B6AB",
"oX c #C3B9AD",
"OX c #C2BDB4",
"+X c #C9BEB1",
"@X c #C5C2B6",
"#X c #CDC4B6",
"$X c #C6C4B8",
"%X c #CDC5B9",
"&X c #CFC9BD",
"*X c #D0C4B6",
"=X c #D0C7BA",
"-X c #D1CABE",
";X c #D2CDC1",
":X c #D5D1C4",
/* pixels */
"# # # $ # # # $ # # 4 F >.D.~.~.~.Q.H.h.H 4 # # # f f $ # # # # ",
"# # # # # # # # w W Y.$X;X:X-X:X-X-X-X=X#XL.E k a d % $ # # # $ ",
"$ # # # # # - R ~.-X:X-X;X&X&X&X-X;X-X=X-X-X-X X=.4 # $ # # # # ",
"# # # $ # 0 l.-X:X:X-X/.k.k.Q I j.q.T.=X-X#X=X-X+Xk.4 $ # $ # # ",
"# # # # k P.:X;X-X:XL.K l r 8 , 6 > u c.%X=X#X=X*X-XF.z # # # # ",
"# # # t E.:X-XOX%Xk.b 8 q 8 , , 6 > ; e Q ~.#X&X=X=X;XG.0 # # # ",
"# # 3 c.:X;XQ.q.q.r 8 6 8 , ; X X X ; o o G ~.=X%X=X%X-Xz.3 # # ",
"# # W ;X;X;X>.x b 8 > > 8 > X X X X X o o q l.&X*X%X=X*X%XE # # ",
"# k /.;X;X%XI q 6 6 ; : 6 3 : * ; ; ; o o > I @X%X%X=X=X=X!.k # ",
"# ,.;X;X;X&Xj.q 8 6 : : 9 g g h j c j g * * b ~.%X%X+X%X=X=X-.# ",
"w ~.;X;X;X;Xc.q 6 , , 9 M ) ( { &.@.} M < * y ~.%X*X%X%X%X=XQ.0 ",
"T ;X;X;X-X&Xc.r : 6 P  .7.t.7.8.*.&.@.' M > b ~.%X+X*X%X#X%X+XL ",
"l.;X;X;X%X$XP.r : n V.[.].'._.g.a.8.5.&.X., b !.#X#X#X#X%X#X=Xk.",
"~.;X;X%X;X%XE.u ; K `.S.Z.).(.g.g.a.i.2.+.8 b L.!.oX#X#X*X#X*XT.",
";X;X$X;XOXOX/.K 4 P f.:...) 3.9.8.{ B B J < n m.K.U.XX#X#X#X*X+X",
";X;X;X%X;XOX$XH.J ;.f.1.J v ( 5.%.N v B ..h U m.B.B.U.oX#X#X*X*X",
";X;X-X&X-XOXOXXX1.6.`.7.` ) 1.).*.~ M B X.B :.N.B.B.K.R.+X#X#X#X",
"%X;X&X&X&X%X$XOXv.C.|.}.p.i.).'.i.*.@.+.2.) <.n.N.A.A.K.R.#X#X#X",
"oX;X&X&X&XOX@XOX|.|.|.|.'.'.'.{.a.5.9.5.4.O.w.N.B.K.K.K.I..X#X!.",
"F.;X;X-X&X%X@X$XQ.0.}.|.{.(.(.(.9.&.8.5.5.e.m.N.B.K.K.K.K.I.XXM.",
"Q ;X;X%X%X%X@X$X^.G.].`.(.(.7.o.~ | *.*.e.w.b.N.J.J.K.K.K.I.R.E ",
"Z ^.;X%X%X%X@X/././.].Z.r.6.9.2._ ' } $.y.b.b.m.B.J.K.K.K.I.B.l ",
"2 z.;X%X%X$X$X/.OX/.A.C.i.3.%._ ~ ~ ' $.w.b.b.m.B.J.K.K.K.I.0.d ",
"  F $X%X%X$X$X@XOX/.H.u.s.d.3._ _ } | $.x.x.b.b.B.B.A.K.A.A.D p ",
"  - k.;XOXOXOXOXE.M.K.u.u.a.i.&.| } X.#.;.l.b.x.m.B.J.J.J.-.- = ",
"#   k W.OX;XW.W u <.].C.:.6.4.&.} [ X.#.n S q.b.b.m.m.J.u./ ! ^ ",
"# #   F ^.j.u 1 5 ;.}.S.u.+.) B C ] +.+.9 . 7 E w.m.m.u.A i i i ",
"# # # $ u 7 1 1 1 D S.S.f.r.} ' [ | +.V o . . O x Q w.H s & % i ",
"  $   $   2 5 2 5 7 Y V.f.p.r.| | | V , O . . . . 5 l $ % & i p ",
"$ # $ $     2 5 5 5 7 P f.].).r.[ m ; . O O O . o $ # # # # $ $ ",
"$   $   # $ $ = ; 5 5 5 u K Y D 6 O . + O + @ = = # # $ # $ # # ",
"$ $ # # # # # $ # = : 5 5 ; @ @ @ @ @ @ ; = = # # # # # # # # # "
};
