/* XPM */
static char * CapyAD5_xpm[] = {
"32 32 90 1",
" 	c #2F2E2F",
".	c #564064",
"+	c #3E2F5A",
"@	c #D53403",
"#	c #39314B",
"$	c #FF6806",
"%	c #FF8624",
"&	c #FF9C09",
"*	c #FFBA27",
"=	c #F35221",
"-	c #FFD00C",
";	c #FFFF0F",
">	c #FFEE2A",
",	c #FFFF2D",
"'	c #FF703F",
")	c #FFA442",
"!	c #FF8E5D",
"~	c #FFC260",
"{	c #302A3E",
"]	c #FFFF30",
"^	c #A49249",
"/	c #A48A53",
"(	c #FFFF48",
"_	c #1E1E1E",
":	c #FFFF81",
"<	c #FFFF84",
"[	c #A4A46C",
"}	c #828269",
"|	c #A4A44A",
"1	c #A46B46",
"2	c #945845",
"3	c #9F6350",
"4	c #826D67",
"5	c #A4825D",
"6	c #A47967",
"7	c #FFF663",
"8	c #FFFF4B",
"9	c #3C3C3C",
"0	c #FFAC7B",
"a	c #FFFF9F",
"b	c #A4A481",
"c	c #A4A482",
"d	c #A4A45F",
"e	c #826C5E",
"f	c #7C655E",
"g	c #806962",
"h	c #666666",
"i	c #6A6A6A",
"j	c #A4A169",
"k	c #FFD845",
"l	c #A4A480",
"m	c #A4A475",
"n	c #030303",
"o	c #2B2B2B",
"p	c #6C6C6C",
"q	c #A47652",
"r	c #FFE07E",
"s	c #82766F",
"t	c #000000",
"u	c #492913",
"v	c #45352E",
"w	c #4E4E4E",
"x	c #673146",
"y	c #82745F",
"z	c #A49E54",
"A	c #4F2C14",
"B	c #634F56",
"C	c #756D67",
"D	c #756E69",
"E	c #827863",
"F	c #D78244",
"G	c #885B39",
"H	c #736A67",
"I	c #686264",
"J	c #746C69",
"K	c #A48D68",
"L	c #FFCA99",
"M	c #A47F47",
"N	c #696969",
"O	c #626262",
"P	c #5A5A5A",
"Q	c #787878",
"R	c #C8793F",
"S	c #5B5B5B",
"T	c #9C6440",
"U	c #706D6B",
"V	c #4F4F4F",
"W	c #827063",
"X	c #827567",
"Y	c #A4955E",
"                                ",
"............   ..............   ",
".....+....... ......+...+..... .",
"++.++++.+++.. .@++.+++.++++++. .",
"+++++#++++@$@%%$$++++++++++#++ +",
"########@$&&***%&&@#@=%%@##### #",
"#######@$-;*>,*>&&=%=%%%%$###   ",
"      @=*>;,>>>>&%')!~)**$@@    ",
"{{{{{{=%>]]^//*%%=')!~(>>$@@{{{{",
"{{{{{_':<[}|112$=345678,>&@@{{{{",
"{{{{{90abcde2f{{{ghi4jk*--$@{{{{",
"{{{{_90:lm5_nnn{{oppiq/^;;-@{{{{",
"{{{_=!r00s4{tun{{nvwx2yzz**={{{{",
"{{_==!~~04gxtAttttun{BCDE/%={{{{",
"{{_===%%@ffxtFFGGFFt{BHD/q%_=@{{",
"{{_====$@fx{ttGGGGtt{BIJ6K~%@@@{",
"{{_====@{{{{tFGGGGFt{BBi66rr%@@{",
"{{{{$&@@{{{{tFGGGGFt{BBi!Lr~%=@{",
"{{@$$&M12@{{tttttttt{xNih0r)==@{",
"{{@$$MMM22{{tFFFFFFt{xOOh9P!==@{",
"{{@@$&Myf22ttFFFFFFtt{hiiQ_{{{{{",
"{{@@@--efHxtFFFFFRRFt{ShPPP{{{{{",
"{{{@$&&1eHxoFFFFRRTRt{99999{{{{{",
"{{{{@@@M1HfoRFFFRTTTn{h!!'_{{{{{",
"{{{{@@@$@eUCCFFF@ee1nV3'''@{{{{{",
"{{{{{{@@$yyEW==1Me1MMq3===@{{{{{",
"{{{{{{{@$&EWX()/MM&&-&====@{{{{{",
"{{{{{{{{@&%)(()Y^M&--$%==@@{{{{{",
"{{{{{{{{{$))(k)k&&&-$$@@@{{{{{{{",
"{{{{{{{{{{%)k))%$$@@@@@{{{{{{{{{",
"{{{{{{{{{{{__%%=@ttt@@{{{{{{{{{{",
"{{{{{{{{{{{t___t{tttt{{{{{{{{{{{"};
