/* XPM */
static char *Chick_Avatar1694599484[] = {
/* columns rows colors chars-per-pixel */
"32 32 102 2 ",
"   c #ECC82A",
".  c #EDC92A",
"X  c #F0CB2B",
"o  c #EFCB2B",
"O  c #EFCA2A",
"+  c #EECA2A",
"@  c #DBBA27",
"#  c #A2891D",
"$  c #A88E1E",
"%  c #E2BF28",
"&  c #EAC62A",
"*  c #B89C21",
"=  c #9A831B",
"-  c #CDAE24",
";  c #EDC82A",
":  c #E4C129",
">  c #5A4C10",
",  c #030300",
"<  c #060601",
"1  c #756315",
"2  c #EAC72A",
"3  c #A1891D",
"4  c #131103",
"5  c black",
"6  c #352D09",
"7  c #D0B025",
"8  c #EEC92A",
"9  c #CFAF25",
"0  c #1A1605",
"q  c #2A2407",
"w  c #DAB927",
"e  c #EBC72A",
"r  c #594B10",
"t  c #030200",
"y  c #A58C1D",
"u  c #DBB927",
"i  c #362E0A",
"p  c #4E420E",
"a  c #7E6B16",
"s  c #010000",
"d  c #161204",
"f  c #BB9F21",
"g  c #EFCA2B",
"h  c #AA901E",
"j  c #574A0F",
"k  c #5E5010",
"l  c #B99D21",
"z  c #705F14",
"x  c #50440E",
"c  c #8F7A19",
"v  c #E3C128",
"b  c #E6C329",
"n  c #D5B526",
"m  c #D8B726",
"M  c #E8C629",
"N  c #ECC92A",
"B  c #EBC82A",
"V  c #DCBB27",
"C  c #D3B325",
"Z  c #E2C028",
"A  c #ECBF29",
"S  c #EBBE29",
"D  c #ECC029",
"F  c #ECBD29",
"G  c #EDC72A",
"H  c #EBB929",
"J  c #E98924",
"K  c #E88424",
"L  c #E98724",
"P  c #E98524",
"I  c #EBAC27",
"U  c #EAB228",
"Y  c #E87D23",
"T  c #E87B23",
"R  c #E87A23",
"E  c #EAA226",
"W  c #E7B728",
"Q  c #E68023",
"!  c #E87C23",
"~  c #E77C23",
"^  c #E5A826",
"/  c #E6C129",
"(  c #E08B23",
")  c #E38223",
"_  c #E2B627",
"`  c #D9A324",
"'  c #E57D23",
"]  c #D99523",
"[  c #E7C429",
"{  c #E0BD28",
"}  c #D39222",
"|  c #E47E23",
" . c #E67D23",
".. c #D78A22",
"X. c #D9B426",
"o. c #D8B626",
"O. c #C99C22",
"+. c #C99922",
"@. c #D2AF25",
"#. c #E9C62A",
"$. c #E1BF28",
"%. c white",
/* pixels */
"                                                                ",
"                                                                ",
"                                                                ",
"                                                                ",
"                                                                ",
"                                                                ",
"                                                                ",
"                                                                ",
"                                                                ",
"                                                                ",
"                    . X o .           O X +                     ",
"                  . @ # $ % .       & * = - .                   ",
"                ; : > , < 1 2     + 3 4 5 6 7 8                 ",
"                + 9 0 5 5 q w .   e r 5 5 t y X                 ",
"                . u i 5 5 p : ;   8 a s 5 d f g                 ",
"                  e h j k l       . 7 z x c v ;                 ",
"                    b n m M N N   N B V C Z                     ",
"                      . ; A S D D A F G . ;                     ",
"                      N H J K L L P K I N                       ",
"                      N U Y T T T T R E N                       ",
"                      N W Q ! ! ! ! ~ ^ N                       ",
"                        / ( T ! ! ! ) _ N                       ",
"                        2 ` ' ! ! T ] [                         ",
"                        . { } |  ...X.                          ",
"                            o.O.+.@.#.                          ",
"                              v $.2                             ",
"                              ; .                               ",
"                                                                ",
"                                                                ",
"                                                                ",
"                                                                ",
"                                                                "
};
