/* XPM */
static char *Cat_Avatar1694599484[] = {
/* columns rows colors chars-per-pixel */
"32 32 238 2 ",
"   c #1893FF",
".  c #1894FF",
"X  c #1890FB",
"o  c #1688EC",
"O  c #1892FE",
"+  c #178FF7",
"@  c #1689EE",
"#  c #0E5695",
"$  c #051D32",
"%  c #126DBE",
"&  c #1895FF",
"*  c #1890FA",
"=  c #0B4477",
"-  c #06233C",
";  c #147BD5",
":  c #1684E5",
">  c #04182A",
",  c black",
"<  c #083054",
"1  c #1790F9",
"2  c #1377CE",
"3  c #020C14",
"4  c #0B4577",
"5  c #126CBC",
"6  c #010509",
"7  c #031320",
"8  c #1581E0",
"9  c #0E5899",
"0  c #05223B",
"q  c #178BF1",
"w  c #0E599B",
"e  c #01070C",
"r  c #1270C3",
"t  c #0B467A",
"y  c #031321",
"u  c #1583E3",
"i  c #0D518C",
"p  c #010406",
"a  c #116AB8",
"s  c #0A3C68",
"d  c #020E19",
"f  c #147CD8",
"g  c #0D518D",
"h  c #010407",
"j  c #116BB9",
"k  c #0A3E6B",
"l  c #020F1A",
"z  c #147EDA",
"x  c #0F5FA5",
"c  c #000102",
"v  c #01080E",
"b  c #1372C6",
"n  c #0C4A81",
"m  c #031422",
"M  c #1373C7",
"N  c #01090F",
"B  c #031423",
"V  c #1582E2",
"C  c #0F60A6",
"Z  c #000203",
"A  c #06243E",
"S  c #178CF2",
"D  c #188EF8",
"F  c #1688ED",
"G  c #06233D",
"H  c #09355D",
"J  c #1790FA",
"K  c #1896FF",
"L  c #031524",
"P  c #0C497F",
"I  c #188FFA",
"U  c #188EF7",
"Y  c #1559A6",
"T  c #1558A5",
"R  c #1775D1",
"E  c #188BF3",
"W  c #1064AE",
"Q  c #083156",
"!  c #1271C5",
"~  c #178DF4",
"^  c #1270C2",
"/  c #1169B6",
"(  c #147AD3",
")  c #0E5798",
"_  c #09365E",
"`  c #177FE0",
"'  c #1663B6",
"]  c #154F98",
"[  c #177DDE",
"{  c #1793FF",
"}  c #1788EF",
"|  c #166EC7",
" . c #15549F",
".. c #154C93",
"X. c #165DAC",
"o. c #1779D8",
"O. c #1788EE",
"+. c #1585E7",
"@. c #0C477C",
"#. c #000305",
"$. c #000304",
"%. c #03111E",
"&. c #126EC0",
"*. c #178FF8",
"=. c #1583E4",
"-. c #1781E3",
";. c #1667BD",
":. c #155099",
">. c #154E96",
",. c #177FE1",
"<. c #1C95FF",
"1. c #218FF2",
"2. c #156DC5",
"3. c #156AC1",
"4. c #146BC3",
"5. c #1469C0",
"6. c #145CAB",
"7. c #144385",
"8. c #132C64",
"9. c #123876",
"0. c #145AA8",
"q. c #1682E5",
"w. c #062642",
"e. c #0D4C85",
"r. c #166DC6",
"t. c #134488",
"y. c #122C64",
"u. c #143874",
"i. c #15539F",
"p. c #1465BA",
"a. c #156BC2",
"s. c #1D81DF",
"d. c #2298FF",
"f. c #B3DCFF",
"g. c #BFD5EC",
"h. c #999FB4",
"j. c #989EB2",
"k. c #959BB1",
"l. c #818BA6",
"z. c #4F648F",
"x. c #1C386E",
"c. c #212E5C",
"v. c #2D3E6C",
"b. c #245495",
"n. c #1C83E2",
"m. c #083358",
"M. c #000103",
"N. c #105B9D",
"B. c #1E65B4",
"V. c #284479",
"C. c #28335E",
"Z. c #172E63",
"A. c #304F83",
"S. c #6E7D9F",
"D. c #8F97AE",
"F. c #999EB3",
"G. c #969BB0",
"H. c #B1BFD4",
"J. c #C6E5FF",
"K. c #A0D2FF",
"L. c white",
"P. c #FEFEFE",
"I. c #C3C5D1",
"U. c #8D91A7",
"Y. c #747994",
"T. c #787E99",
"R. c #9BA0B4",
"E. c #CCCED8",
"W. c #E0E8F2",
"Q. c #CFE9FF",
"!. c #BBE1FF",
"~. c #7D93A6",
"^. c gray5",
"/. c #2E3134",
"(. c #A1C2DF",
"). c #C3E5FF",
"_. c #D7E8F9",
"`. c #D8DBE3",
"'. c #AEB2C2",
"]. c #8188A2",
"[. c #717793",
"{. c #81869E",
"}. c #A9ADBD",
"|. c #EFEFF3",
" X c #F6F7F8",
".X c #A8ACBD",
"XX c #B6B9C7",
"oX c #E1E2E8",
"OX c #FAFAFB",
"+X c #F2F1F1",
"@X c #878888",
"#X c gray15",
"$X c #0B0B0B",
"%X c #101010",
"&X c gray25",
"*X c #B7B7B7",
"=X c #FFFEFD",
"-X c #EDEDF1",
";X c #C9CBD5",
":X c #9FA3B5",
">X c #DDDEE5",
",X c gray94",
"<X c #C6C6C6",
"1X c #A4A4A4",
"2X c gray68",
"3X c #D7D7D7",
"4X c #F9F9F9",
"5X c #F8F8F8",
"6X c #AAAAAA",
"7X c #ECECEC",
"8X c #FDFDFD",
"9X c gray98",
"0X c gray78",
"qX c #C1C1C1",
"wX c gray96",
"eX c gray30",
"rX c #959595",
"tX c #EEEEEE",
"yX c gray32",
"uX c #939393",
"iX c gray73",
"pX c gray23",
"aX c gray38",
"sX c #A5A5A5",
"dX c gray",
"fX c gray72",
"gX c #909090",
"hX c gray28",
"jX c #5A5A5A",
"kX c gray91",
"lX c #D8D8D8",
"zX c gray51",
"xX c #505050",
"cX c #464646",
"vX c #5D5D5D",
"bX c gray63",
"nX c #F1F1F1",
"mX c #F4F4F4",
/* pixels */
"                                                                ",
"                                                                ",
"                                                                ",
"                                                                ",
"                    .                     .                     ",
"                  X o O                 + @                     ",
"                  # $ % &             * = - ; .                 ",
"              . : > , < 1           & 2 3 , 4 .                 ",
"              & 5 6 , 7 8 .         & 9 , , 0 q .               ",
"              & w , , e r &         & t , , y u .               ",
"              & i , , p a &           s , , d f .               ",
"              & g , , h j &           k , , l z .               ",
"              & x c , v b &         & n , , m u .               ",
"              & M N , B V .         & C Z , A S                 ",
"    O D   &   . F G , H J & & & & & K z L , P     . & I X       ",
"    U Y T R E . . W Q ! ~ ^ / / / / ( 1 ) _ z K X ` ' ] [ .     ",
"  { . } |  ...X.o.O.+.J @.6 #.#.#.$.%.&.*.=.-.;.:.>.' ,.O . {   ",
"<.1.2.3.4.5.6.7.8.9.0.q.w., , , , , , e.r.t.y.u.i.p.4.a.5.s.d.  ",
"f.g.h.j.k.l.z.x.c.v.b.n.m., , , , , M.N.B.V.C.Z.A.S.D.F.G.H.J.K.",
"L.L.P.I.U.Y.T.R.E.W.Q.!.~.^., , , , /.(.)._.`.'.].[.{.}.|.L.L.L.",
"L.L. X.XXXoXOXL.L.L.L.L.+X@X#X$X%X&X*X=XL.L.L.L.L.-X;X:X>XL.L.L.",
"L.L.L.L.L.L.L.L.L.L.L.L.L.,X<X1X2X3X4XL.L.L.L.L.L.L.L.L.L.L.L.L.",
"L.L.L.L.L.L.L.L.L.L.5X6X7XL.8X5X9XP.L.0XqXL.L.L.L.L.L.L.L.L.L.L.",
"L.L.L.L.L.L.L.L.L.L.wXeXrXP.L.L.L.L.tXyXuXL.L.L.L.L.L.L.L.L.L.L.",
"L.L.L.L.L.L.L.L.L.L.L.iXpXaXsXdXfXgXhXjXkXL.L.L.L.L.L.L.L.L.L.L.",
"L.L.L.L.L.L.L.L.L.L.L.L.lXzXxXcXhXvXbX,XL.L.L.L.L.L.L.L.L.L.L.L.",
"L.L.L.L.L.L.L.L.L.L.L.L.L.L.4XnXmX8XL.L.L.L.L.L.L.L.L.L.L.L.L.L.",
"L.L.L.L.L.L.L.L.L.L.L.L.L.L.L.L.L.L.L.L.L.L.L.L.L.L.L.L.L.L.L.L.",
"L.L.L.L.L.L.L.L.L.L.L.L.L.L.L.L.L.L.L.L.L.L.L.L.L.L.L.L.L.L.L.L.",
"L.L.L.L.L.L.L.L.L.L.L.L.L.L.L.L.L.L.L.L.L.L.L.L.L.L.L.L.L.L.L.L.",
"L.L.L.L.L.L.L.L.L.L.L.L.L.L.L.L.L.L.L.L.L.L.L.L.L.L.L.L.L.L.L.L.",
"L.L.L.L.L.L.L.L.L.L.L.L.L.L.L.L.L.L.L.L.L.L.L.L.L.L.L.L.L.L.L.L."
};
