/* XPM */
static char *Pig_Avatar1694599484[] = {
/* columns rows colors chars-per-pixel */
"32 32 143 2 ",
"   c #FD949D",
".  c #FE959E",
"X  c #FF959E",
"o  c #F9929B",
"O  c #FE949D",
"+  c #FA929B",
"@  c #EA8991",
"#  c #874F54",
"$  c #4F2E31",
"%  c #744448",
"&  c #D97F86",
"*  c #D57D84",
"=  c #6F4145",
"-  c #502F31",
";  c #8D5257",
":  c #ED8B93",
">  c #FC949D",
",  c #764549",
"<  c black",
"1  c #472A2C",
"2  c #EE8B94",
"3  c #ED8A93",
"4  c #44282A",
"5  c #7C484D",
"6  c #F69098",
"7  c #432729",
"8  c #170D0E",
"9  c #D67D85",
"0  c #FF969F",
"q  c #FF959F",
"w  c #D77D85",
"e  c #7B484D",
"r  c #030202",
"t  c #492B2D",
"y  c #EC8A92",
"u  c #FB939C",
"i  c #4C2D2F",
"p  c #020101",
"a  c #77464A",
"s  c #FC939C",
"d  c #DA7F87",
"f  c #844D51",
"g  c #553135",
"h  c #58333A",
"j  c #8B505F",
"k  c #A35D70",
"l  c #9D596E",
"z  c #8D5260",
"x  c #5B353D",
"c  c #543134",
"v  c #804B4F",
"b  c #D87E86",
"n  c #D17A84",
"m  c #925466",
"M  c #944D68",
"N  c #B15676",
"B  c #C35C7E",
"V  c #CB5F82",
"C  c #D07A84",
"Z  c #EA8994",
"A  c #97546A",
"S  c #AD5474",
"D  c #B75879",
"F  c #BA597A",
"G  c #DB6689",
"H  c #E56A8E",
"J  c #AC5473",
"K  c #EB8A94",
"L  c #FE959D",
"P  c #B36879",
"I  c #A65271",
"U  c #663A53",
"Y  c #633852",
"T  c #954B68",
"R  c #E0688B",
"E  c #DF688B",
"W  c #944B68",
"Q  c #A75271",
"!  c #AB5373",
"~  c #FA939C",
"^  c #9E596E",
"/  c #824460",
"(  c #603750",
")  c #613750",
"_  c #723E58",
"`  c #D66487",
"'  c #834460",
"]  c #C25C7E",
"[  c #9E5A6E",
"{  c #A86172",
"}  c #B05575",
"|  c #A04F6E",
" . c #623851",
".. c #8D4865",
"X. c #DE678B",
"o. c #8C4865",
"O. c #633851",
"+. c #A1506E",
"@. c #D47C86",
"#. c #894B62",
"$. c #B35677",
"%. c #AF5575",
"&. c #AF5574",
"*. c #B05675",
"=. c #D47C87",
"-. c #F79199",
";. c #C2717C",
":. c #8D4F63",
">. c #994E6B",
",. c #BB5A7B",
"<. c #CE6183",
"1. c #D56487",
"2. c #CD6083",
"3. c #9A4E6B",
"4. c #F69099",
"5. c #AE6672",
"6. c #955566",
"7. c #7D455C",
"8. c #7E455C",
"9. c #955667",
"0. c #B06772",
"q. c #D87E87",
"w. c #F28D96",
"e. c #E4858D",
"r. c #9A5B66",
"t. c #492C3C",
"y. c #4A2C3C",
"u. c #9C5B67",
"i. c #E5868E",
"p. c #F38E96",
"a. c #F18D97",
"s. c #693E50",
"d. c #40273B",
"f. c #6B3F51",
"g. c #F28D97",
"h. c #F48F98",
"j. c #764657",
"k. c #3F263A",
"l. c #F58F99",
"z. c #D47C88",
"x. c #824D5D",
"c. c #D57C88",
"v. c white",
/* pixels */
"                                                                ",
"                                                                ",
"                                                                ",
"                                                                ",
"                                                                ",
"                                                                ",
"                                                                ",
"                  . X o O X         X   + X .                   ",
"                . @ # $ % & .     . * = - ; : .                 ",
"                > , < < < 1 2 . . 3 4 < < < 5                   ",
"                6 7 < < < 8 9 0 q w 8 < < < 7 6                 ",
"                > e r < < t y u u 3 i < < p a s                 ",
"                O d f g h j k l l k z x c v b O                 ",
"                  + n m M N B V V B N M m C +                   ",
"                . Z A S D F G H H G F D J A K .                 ",
"                L P S I U Y T R E W Y U Q ! P .                 ",
"                ~ ^ B / ( ) _ ` ` _ ) ( ' ] [ u                 ",
"                  { } |  .) ..X.X.o.) O.+.} {                   ",
"                . @.#.$.} %.` H H ` &.*.$.#.=..                 ",
"                  -.;.:.>.,.<.1.1.2.,.3.:.;.-.                  ",
"                    4.b 5.6.:.7.8.:.9.0.q.4.                    ",
"                      s w.e.r.t.y.u.i.p.s                       ",
"                        . a.s.d.d.f.g..                         ",
"                        O h.j.k.k.j.l.O                         ",
"                          . z.x.x.c..                           ",
"                            . + + .                             ",
"                                                                ",
"                                                                ",
"                                                                ",
"                                                                ",
"                                                                ",
"                                                                "
};
