/* XPM */
static char *Untitled1694601541[] = {
/* columns rows colors chars-per-pixel */
"32 32 236 2 ",
"   c #0E0C1E",
".  c #100C1D",
"X  c #0C0F22",
"o  c #0C1628",
"O  c #161928",
"+  c #0B1B34",
"@  c #271B25",
"#  c #331E24",
"$  c #0D2338",
"%  c #182637",
"&  c #10202F",
"*  c #39242A",
"=  c #2F2935",
"-  c #2F181E",
";  c #6F1B07",
":  c #79250C",
">  c #682C14",
",  c #77351A",
"<  c #6F2C14",
"1  c #432B2A",
"2  c #513631",
"3  c #6F3C25",
"4  c #552D17",
"5  c #5A413D",
"6  c #724636",
"7  c #0E2747",
"8  c #173349",
"9  c #0D2A57",
"0  c #14395A",
"q  c #11324D",
"w  c #293848",
"e  c #383945",
"r  c #0C3468",
"t  c #0B3B76",
"y  c #133C65",
"u  c #0A1C40",
"i  c #463B43",
"p  c #2F4359",
"a  c #184568",
"s  c #134876",
"d  c #114A7B",
"f  c #284C6A",
"g  c #375778",
"h  c #2D506F",
"j  c #49424B",
"k  c #534B54",
"l  c #64565A",
"z  c #735249",
"x  c #7D615D",
"c  c #4E566A",
"v  c #6A5D63",
"b  c #715E60",
"n  c #54647F",
"m  c #6C626B",
"M  c #776668",
"N  c #736C77",
"B  c #811F06",
"V  c #86280C",
"C  c #8C310F",
"Z  c #96340D",
"A  c #993912",
"S  c #8B3011",
"D  c #A33D0F",
"F  c #A03E11",
"G  c #97441E",
"H  c #AC4513",
"J  c #A94615",
"K  c #B34B15",
"L  c #B9541B",
"P  c #904D2F",
"I  c #B95B26",
"U  c #A55328",
"Y  c #BB6635",
"T  c #B5622F",
"R  c #C25B1A",
"E  c #C7601E",
"W  c #C25F22",
"Q  c #C86729",
"!  c #C86C36",
"~  c #C9743A",
"^  c #D47639",
"/  c #8C5A48",
"(  c #8A665D",
")  c #9A6A58",
"_  c #B56D45",
"`  c #BD744C",
"'  c #B47555",
"]  c #A86E53",
"[  c #856965",
"{  c #98756B",
"}  c #877678",
"|  c #917571",
" . c #A67968",
".. c #AF7E6C",
"X. c #CA7746",
"o. c #D57C45",
"O. c #C77A50",
"+. c #9E817B",
"@. c #B28876",
"#. c #C6835C",
"$. c #D78857",
"%. c #D98651",
"&. c #D9936A",
"*. c #C99679",
"=. c #D1926E",
"-. c #E2976F",
";. c #E3A07A",
":. c #0B4A86",
">. c #104887",
",. c #165687",
"<. c #0C5A9E",
"1. c #0D5695",
"2. c #125796",
"3. c #0B528E",
"4. c #176598",
"5. c #0F639F",
"6. c #2F6691",
"7. c #0B5EA4",
"8. c #105EA0",
"9. c #0C61A6",
"0. c #0966AC",
"q. c #1369A8",
"w. c #0C6CB2",
"e. c #096BB4",
"r. c #0B76BB",
"t. c #1476B8",
"y. c #1572AE",
"u. c #2C79A7",
"i. c #285F88",
"p. c #4B6E92",
"a. c #767887",
"s. c #64738D",
"d. c #4279A2",
"f. c #0E7CC4",
"g. c #0E7FC9",
"h. c #127DC2",
"j. c #837F88",
"k. c #1A82BF",
"l. c #2D86B7",
"z. c #798599",
"x. c #7B828F",
"c. c #4C89B1",
"v. c #7394AE",
"b. c #7EA2BB",
"n. c #0E85C9",
"m. c #1587C8",
"M. c #0E8BD4",
"N. c #148BD2",
"B. c #1396DD",
"V. c #1999DA",
"C. c #1492D3",
"Z. c #2994CB",
"A. c #269BD5",
"S. c #3395C8",
"D. c #39A6D8",
"F. c #2DA1D7",
"G. c #179DE0",
"H. c #1EA2E2",
"J. c #29A6E2",
"K. c #38ACE2",
"L. c #48ACD6",
"P. c #57B2D9",
"I. c #54A7D3",
"U. c #69B8D9",
"Y. c #75B0CF",
"T. c #49B4E5",
"R. c #58BAE6",
"E. c #68BDE6",
"W. c #599AC2",
"Q. c #6AC4E9",
"!. c #79C8E9",
"~. c #79C0DC",
"^. c #978789",
"/. c #888C99",
"(. c #948C91",
"). c #A79796",
"_. c #B29489",
"`. c #BCA299",
"'. c #8797A7",
"]. c #989AA5",
"[. c #829EB3",
"{. c #A89FA3",
"}. c #8BA6BA",
"|. c #99A6B4",
" X c #ACA8AA",
".X c #B9A9A7",
"XX c #B8B7B9",
"oX c #AAAFB6",
"OX c #D8A587",
"+X c #C8A493",
"@X c #D7AD96",
"#X c #D7AD94",
"$X c #E3A885",
"%X c #E5B499",
"&X c #E2AF94",
"*X c #C8AFA2",
"=X c #C9B6AD",
"-X c #D9B7A6",
";X c #C6BBB7",
":X c #E1BDA8",
">X c #CA9D86",
",X c #C8C2BF",
"<X c #D9C5B9",
"1X c #E1C5B4",
"2X c #83B3CE",
"3X c #96B7C9",
"4X c #83BBD7",
"5X c #8DB3CA",
"6X c #A7B9C5",
"7X c #86C1DD",
"8X c #97C4DB",
"9X c #A9C8D8",
"0X c #B8CBD5",
"qX c #B5C7D0",
"wX c #85C8E5",
"eX c #97CCE4",
"rX c #8DD2EE",
"tX c #97D2EC",
"yX c #99D9F4",
"uX c #88D1F1",
"iX c #AAD4E8",
"pX c #B9DAEA",
"aX c #A7DBF2",
"sX c #B5DEF2",
"dX c #B8E1F5",
"fX c #ACE0F6",
"gX c #C6C8C9",
"hX c #D5CBC4",
"jX c #DCD1C9",
"kX c #C9D3D8",
"lX c #D7D7D5",
"zX c #C9DCE6",
"xX c #D3DDE2",
"cX c #CAE1ED",
"vX c #C6E3F2",
"bX c #D2E1E9",
/* pixels */
". .   X o o o O O @ @ @ - # * 1 4 4 > > < : : V : B B ; : ; ; ; ",
". . X o o o O O O O @ # # 1 1 2 4 > 3 3 < , V V V V V B B : ; ; ",
"X X o o & & $ % @ = = * * 1 2 2 2 3 3 3 , S C C Z V Z B V : ; ; ",
"X o o o & $ % % 7 = = = 1 i i 5 6 6 6 P P G A A Z Z Z Z S V : < ",
"o o & $ $ $ % 8 w w e i 2 i j z z z P / P G J G D D D D A A S S ",
"+ $ $ $ 7 8 8 8 w e e p k k l l z / / / U U U J K K H D F F A C ",
"+ $ $ q q 8 a p w p p k k l v b [ ( ) ) ] T T I L L K K H J F A ",
"u 7 q q 0 0 a f f f c c c m N } | {  . .] _ Y I R R R R L K K D ",
"7 9 9 9 a a a h h g g n v N N } j.| @.@.' ` ! ! Q E E E R L K H ",
"9 9 r r a f d h g g n n s.a./.^.^._.@.@.@.#.O.X.^ ^ Q E E L I K ",
"9 9 y s d d d g g 6.p.s.s.z.(.].).`.`._.*.=.$.o.^ ^ ^ ^ ! I I K ",
"r r t d d 4.4.6.l.g c.x.z./.].].{..X`.+X>X*.=.$.%.%.^ ^ ! ! I I ",
"t t d :.3.4.4.4.6.c.c.v.z.b.|.oX X=X*X*X+XOXOX&.-.o.o.o.o.! I I ",
"t d :.3.1.5.4.4.u.c.c.v.v.[.|.oX6X;X;X=X-X@X$X;.-.-.-.o.o.X.Y Y ",
":.:.3.1.4.q.k.l.l.c.c.W.}.}.3X6XgX,XhX;X:X:X&X$X;.-.&.o.O.X.X.T ",
":.:.1.7.q.y.k.l.l.l.v.b.}.8X9XqXgXgXjX<X:X:X%X&X$X;.-.&.O.X.X._ ",
">.2.<.q.y.t.h.m.S.S.W.Y.Y.8X9X0XkXkXlXhXjX1X:X:X$X$X-.&.O.O.` _ ",
"<.<.9.q.t.h.m.Z.S.S.L.U.~.8X9XkXkXkXlXlXjX1X:X:X&X$XOX=.=.O.` _ ",
"<.7.q.h.h.m.N.A.F.D.P.U.7X8XiXpXzXzXxXlXjXjX<X:X%X@XOX=.=.#.' ] ",
"7.7.w.h.h.N.N.A.F.L.P.U.7XeXiXpXzXxXxXxXxXjXjX:X-X@X>X*.=.' ' ] ",
"7.0.e.f.M.N.B.A.F.D.T.E.!.tXiXpXvXcXcXxXxXlXhX;X=X@X>X*.@...] ] ",
"0.e.f.f.M.M.B.V.J.K.T.E.!.rXfXsXvXvXcXcXxXlXjX,X=X*X`.>X@... .) ",
"0.e.e.g.M.M.B.G.J.K.T.Q.!.yXyXfXsXvXvXcXzXkXgX<X=X*X+X_.@...] ) ",
"0.0.f.g.M.M.B.G.H.J.T.R.!.rXyXfXsXvXvXvXzXkXgX6X=X.X`._.^. .{ ( ",
"0.e.f.g.g.B.B.B.H.J.L.R.Q.!.yXfXsXsXpXpXkX0XqXXXoX.X`._.+.{ ( ) ",
"7.7.e.g.g.g.B.B.H.H.K.T.!.!.yXyXaXsXsXpX0XqXqXXX X X).^.+.{ [ ( ",
"7.<.0.e.g.g.g.B.V.F.K.T.Q.!.!.yXiXiXiX0XiXqX6X6X X).).^.+.| [ ( ",
"<.<.7.e.g.g.M.M.C.H.D.L.Q.Q.!.yXtXiXiX8X9X9X6XoX].{.(.^.} | M x ",
">.1.2.q.f.f.g.g.C.Z.F.L.R.Q.~.rXeXeXeX8X8X3X|.|.].]./.x.} } M x ",
">.>.2.9.0.e.g.g.n.C.F.L.P.U.~.~.wXeX8X8X8X3X}.}.'././.+.N M M b ",
"t >.>.2.9.w.f.r.k.C.S.S.P.P.~.~.~.8X7X7X7X}.}.'.v./.x.a.N M v v ",
"t t :.3.<.0.r.r.k.m.Z.L.L.P.U.Y.~.~.~.2X~.b.b.b.v.z.x.x.N m m l "
};
