/* XPM */
static char *result[] = {
/* columns rows colors chars-per-pixel */
"32 32 106 2 ",
"   c #000000",
".  c #070805",
"X  c #080905",
"o  c #0D0E0A",
"O  c #0E110A",
"+  c #11130C",
"@  c #13190F",
"#  c #171C11",
"$  c #1B1E12",
"%  c #1D2114",
"&  c #212616",
"*  c #252A19",
"=  c #292D1C",
"-  c #2C321D",
";  c #353B22",
":  c #3C3922",
">  c #433923",
",  c #483A24",
"<  c #543724",
"1  c #593D27",
"2  c #613725",
"3  c #693423",
"4  c #643D22",
"5  c #713E29",
"6  c #3C4525",
"7  c #3F4926",
"8  c #404927",
"9  c #454C2A",
"0  c #494C2F",
"q  c #49532A",
"w  c #4D5B2C",
"e  c #525E2D",
"r  c #4D4D33",
"t  c #494D3C",
"y  c #53602F",
"u  c #576430",
"i  c #5C6B32",
"p  c #646E2E",
"a  c #627234",
"s  c #637933",
"d  c #687A36",
"f  c #6B7D38",
"g  c #5A6945",
"h  c #647042",
"j  c #686C5C",
"k  c #823D2B",
"l  c #9F3D2D",
"z  c #B73E2F",
"x  c #B83F30",
"c  c #6F823A",
"v  c #72853B",
"b  c #75893C",
"n  c #798E3E",
"m  c #7D933F",
"M  c #7F9540",
"N  c #859D3D",
"B  c #809640",
"V  c #869D42",
"C  c #8AA344",
"Z  c #8EA946",
"A  c #90AA47",
"S  c #94AF48",
"D  c #93B245",
"F  c #96B149",
"G  c #9AB64B",
"H  c #9EBB4C",
"J  c #99A354",
"K  c #A0BE4E",
"L  c #A4BE51",
"P  c #818B75",
"I  c #A9AB62",
"U  c #AFB364",
"Y  c #A3B56E",
"T  c #B7BD67",
"R  c #B9AD72",
"E  c #AABD74",
"W  c #BCB174",
"Q  c #C0BC71",
"!  c #C6B979",
"~  c #C9BC7B",
"^  c #A3C14F",
"/  c #A6C450",
"(  c #C7C574",
")  c #A3AD87",
"_  c #B2B3B0",
"`  c #BEBFBB",
"'  c #B5C48B",
"]  c #B9C88D",
"[  c #BCCA93",
"{  c #DCCE87",
"}  c #DEC88C",
"|  c #C0CF92",
" . c #E1D28A",
".. c #E3C296",
"X. c #E7C399",
"o. c #EBC39C",
"O. c #C1CAA6",
"+. c #D3DCBA",
"@. c #FED7A7",
"#. c #FFD7A8",
"$. c #FFDAAC",
"%. c #DBE4C4",
"&. c #E5E6E4",
"*. c #E7E8E5",
"=. c #F8F7F9",
"-. c #F9FAF9",
/* pixels */
"                                                                ",
"                                                                ",
"                                                                ",
"                                                                ",
"                                                                ",
"                % % % % % % $ $ $ $ % $ $ $ $ #                 ",
"            . @ - 0 u y y y u i i i i i i i i y % .             ",
"            $ > ; d C V C V Z G H K H G H G K A 8 O             ",
"          % 1 l > s C C V C V Z H K G C C C F A 8 +             ",
"          % 5 z , s E O.h ) [ J G c f F F G B e ; +             ",
"          % 1 k : s | &.t _ %.C G c c K K ^ V y ; +             ",
"          $ - ; > p ' &.j O.%.C H H H H K H K A 8 O             ",
"            @ > l 4 P =.*.=.+.C G K H K H K ^ A 8 O             ",
"            O , z 3 g ' ] ' Y C H H H / ^ ^ / S 8 O             ",
"            + : k < e N N N N C F H A b b n n c 6 +             ",
"            + - - - w m C V C C C G M 7 ; - - - - +             ",
"              X X % ; q N C A G G H H V 6 @ . . .               ",
"                  X $ 6 M I ~ { { { { ~ 0 O                     ",
"                + O # : M R o.$.$.$.$.o.r o                     ",
"              . - 6 8 q M R o.@.$.$.$...r O                     ",
"              . - c S A C R X.@.@.@.$...r O                     ",
"              X - w v S C J U ( ..o.} U 9 O                     ",
"              . % = 9 f V C D L Q ! T A 8 +                     ",
"                  % - 6 m G G A A F K A 8 +                     ",
"                    @ 6 M G m 8 8 v F A 8 o                     ",
"                    + 6 B v 6 + - f m e % .                     ",
"                    + 6 a 6 o . - u e #                         ",
"                    O - - +   . * - $                           ",
"                      . X       X X .                           ",
"                                                                ",
"                                                                ",
"                                                                "
};
