/* XPM */
static char *b5c4d7292c284d3794059b09054e0ab4kzmcYuCHAT2sh8A9[] = {
/* columns rows colors chars-per-pixel */
"64 64 249 2 ",
"   c #0E0E19",
".  c #0E101E",
"X  c #0E1223",
"o  c #0E142B",
"O  c #161A27",
"+  c #0E1B36",
"@  c #121D34",
"#  c #0E0F22",
"$  c #241D25",
"%  c #341E20",
"&  c #172538",
"*  c #142136",
"=  c #382527",
"-  c #272A36",
";  c #2F2930",
":  c #2B1C1E",
">  c #691B0C",
",  c #771E0A",
"<  c #701E10",
"1  c #7C230C",
"2  c #79270D",
"3  c #722F16",
"4  c #472929",
"5  c #523331",
"6  c #6B392B",
"7  c #5E2113",
"8  c #714438",
"9  c #0D2748",
"0  c #172C45",
"q  c #0E2C55",
"w  c #0E3359",
"e  c #173A57",
"r  c #17334D",
"t  c #293548",
"y  c #303A4B",
"u  c #0E3967",
"i  c #0B3C77",
"p  c #10396C",
"a  c #0F1F41",
"s  c #4D3E42",
"d  c #314359",
"f  c #164669",
"g  c #0E4479",
"h  c #124978",
"j  c #164D75",
"k  c #2F526E",
"l  c #305772",
"z  c #514951",
"x  c #6F5453",
"c  c #4D5768",
"v  c #6A5D62",
"b  c #745E61",
"n  c #4F6479",
"m  c #776568",
"M  c #786D74",
"N  c #706C75",
"B  c #7E615D",
"V  c #862A0D",
"C  c #98360E",
"Z  c #8A3716",
"A  c #973811",
"S  c #8F300E",
"D  c #A23C10",
"F  c #A43C0E",
"G  c #803D22",
"H  c #9B4419",
"J  c #A94814",
"K  c #B34D13",
"L  c #B9551A",
"P  c #AA4510",
"I  c #914C2D",
"U  c #B85B25",
"Y  c #A8562B",
"T  c #BA6738",
"R  c #BB612C",
"E  c #817E1F",
"W  c #C25B1C",
"Q  c #C86629",
"!  c #C76C36",
"~  c #D47539",
"^  c #CE7136",
"/  c #C45F21",
"(  c #8B5847",
")  c #88645A",
"_  c #976A59",
"`  c #9B6955",
"'  c #AA6A4A",
"]  c #B66D45",
"[  c #B9734B",
"{  c #A87258",
"}  c #B77857",
"|  c #A36C54",
" . c #876A66",
".. c #997468",
"X. c #887779",
"o. c #93736D",
"O. c #A77865",
"+. c #AC7C69",
"@. c #C87746",
"#. c #D57C45",
"$. c #C47B53",
"%. c #94912B",
"&. c #FAF63C",
"*. c #9A817B",
"=. c #B98368",
"-. c #B78A77",
";. c #A98477",
":. c #D9834C",
">. c #D88858",
",. c #CF875D",
"<. c #C88967",
"1. c #DA946A",
"2. c #CA9478",
"3. c #D99C77",
"4. c #D08D68",
"5. c #E1A27A",
"6. c #DF9F77",
"7. c #0D4986",
"8. c #114A88",
"9. c #0D548B",
"0. c #0E5797",
"q. c #115699",
"w. c #14568A",
"e. c #156597",
"r. c #306B90",
"t. c #0D5DA3",
"y. c #105EA2",
"u. c #0D64AB",
"i. c #0D68A8",
"p. c #1166A7",
"a. c #0D6CB4",
"s. c #106CB3",
"d. c #0D76B9",
"f. c #1377B7",
"g. c #1775AB",
"h. c #2E7CA8",
"j. c #215B80",
"k. c #4E738E",
"l. c #797A85",
"z. c #68798C",
"x. c #437DA2",
"c. c #0D7BC4",
"v. c #1079C2",
"b. c #857D85",
"n. c #1181BD",
"m. c #3185B5",
"M. c #788696",
"N. c #4E8CB2",
"B. c #7295AF",
"V. c #638BA8",
"C. c #0D84C9",
"Z. c #1389C7",
"A. c #1893CD",
"S. c #0D8AD4",
"D. c #0E93DB",
"F. c #1597D9",
"G. c #118DD2",
"H. c #2795CC",
"J. c #279BD5",
"K. c #3496CC",
"L. c #29A3DC",
"P. c #39A7D8",
"I. c #3AA1CE",
"U. c #169CE1",
"Y. c #1CA1E4",
"T. c #26A6E3",
"R. c #35ADE3",
"E. c #3BB1E5",
"W. c #1FA0DC",
"Q. c #4B9AC5",
"!. c #47ABD7",
"~. c #57B4DB",
"^. c #51AAD3",
"/. c #67B9DB",
"(. c #78BAD9",
"). c #71AAC9",
"_. c #48B6E5",
"`. c #59BCE5",
"'. c #6ABFE3",
"]. c #679FC2",
"[. c #69C2E7",
"{. c #79C6E7",
"}. c #70C0E1",
"|. c #87838A",
" X c #988687",
".X c #878A96",
"XX c #959299",
"oX c #AF958E",
"OX c #B7A19C",
"+X c #8897A7",
"@X c #969BA6",
"#X c #839BB0",
"$X c #A59CA2",
"%X c #87A5BB",
"&X c #97A8B7",
"*X c #9CA7B3",
"=X c #B7A9A8",
"-X c #AEAEB3",
";X c #C79985",
":X c #D19E81",
">X c #D9A588",
",X c #C9A798",
"<X c #D7AC95",
"1X c #D3AB95",
"2X c #E2AA87",
"3X c #E3B498",
"4X c #E2AF92",
"5X c #C9B3A9",
"6X c #D8B8A8",
"7X c #C8B9B5",
"8X c #CCB4AB",
"9X c #E2BCA6",
"0X c #DBC4B8",
"qX c #CDC0BC",
"wX c #E1C5B6",
"eX c #E3C2AD",
"rX c #88ACC4",
"tX c #88B4CC",
"yX c #97B5C7",
"uX c #86BBD5",
"iX c #96BCD6",
"pX c #A7B8C6",
"aX c #B7BBC4",
"sX c #C2BFC4",
"dX c #89C4DB",
"fX c #99C5DA",
"gX c #A8C7D8",
"hX c #B8CBD8",
"jX c #B7C5CE",
"kX c #87CBE8",
"lX c #96CCE4",
"zX c #99D3EB",
"xX c #94D3EF",
"cX c #A8D7EA",
"vX c #B7D8E7",
"bX c #A8DCF1",
"nX c #ACD5E9",
"mX c #B9E2F2",
"MX c #B1E0EE",
"NX c #C9C6C6",
"BX c #DACBC6",
"VX c #C6CCD5",
"CX c #C9D3DC",
"ZX c #D8D6D7",
"AX c #DAD0CE",
"SX c #C8DBE6",
"DX c #D5DCE3",
"FX c #C8E2ED",
"GX c #D1E2E9",
/* pixels */
"        . . . X X X X O X X O O o $ # # $ $ $ $ $ : % % = 4 4 4 7 4 7 5 < 7 3 3 2 2 2 2 2 2 2 2 2 1 1 1 , , , , , , > > > > > > ",
"        . . X . X X X X O O O O $ o $ $ $ $ $ % : : % % % % 4 4 4 7 5 7 6 7 7 3 3 3 2 2 2 2 V 2 2 V 1 1 V V , V , , , > > > > > ",
"        . . X X X X O O O O O O @ $ $ @ $ $ $ $ $ % % 4 4 4 4 5 5 5 < 6 6 6 6 3 3 2 V 2 2 2 2 2 1 V V V V V V V , , , < > > > > ",
"        . X X X o O O @ * O O O $ @ $ $ $ $ $ ; ; = = 4 4 4 5 5 5 6 5 6 6 3 6 3 3 Z 3 V V V S V V V V V V V V V V , , , > > > > ",
"      # # X o o O O O O * & O O @ $ $ $ $ $ ; ; = = 4 5 ; 5 5 6 5 6 6 6 6 6 G Z G Z Z Z Z S S Z V S S S S V V V V V V 2 < < < < ",
"    # # X o o @ O * * & & O & - - ; - - - - ; 4 ; ; ; 4 5 s s 5 8 6 6 6 6 G G G G Z Z Z Z Z Z S S S S C S S S S V V 1 1 , , 1 , ",
". # # X o o o @ * * & & & & & & - a - - - - ; y 4 ; 5 4 5 5 s s s 8 6 8 8 6 I I G Z Z Z A S A S C C C C S C S S S S V V V 1 1 2 ",
"# X X o o + @ + * * & & & 0 & - - - t - ; y ; - y 5 s s s s 8 8 x 8 x 8 I I 8 G I H I H H A H A C F A C C C C C S S S V V Z 1 V ",
"X o o o + + * * * * & r & r & r a t t 4 t t y s y s 5 s s s 8 z x 8 I x I ( I I I I H H H H D H F F F F F F F F D C C S S V V V ",
"o o o + + * 9 * 9 9 * w w & r r t t t y y y y s s s s z 8 x z x 8 x x ( ( ( ( I I I I H H D J J P P P F F F F F D C C S S S S V ",
"o + + + + 9 & 9 9 & w & r r t r y y t y y y s y s z z z z x x x x x ( ( ( ` ( ( Y I Y Y H Y J J P P F P F P P P F F D D C S S S ",
"o + + + + 9 9 9 9 w r r r r r d q y y d y s d z d z z z x v x b ) b ( ( ( ( ' I ( Y Y Y Y L Y J K K K K K K P P F F D D C H C C ",
"+ + + + 9 9 9 9 r r e r e e d e d d d d d d d c z z z v x v v v B ) _ ) ` ` ` ' ' Y Y Y Y Y Y L K K K K K K K K P P P P H C H C ",
"+ + 9 + * 9 w 9 w r w e e e e d d p d d z d c z c c c v v b b  . .)  . ._ _ ` ' ' ] T T R R U U U L L L W K K K P P P J P H C H ",
"+ + + 9 * w & w w e e f e d d f d d d d k c c c c c v v v l. .o. .o.o.......{ | ' ' ] T T R R R W W W W L L W K K K K J P H P H ",
"a + 9 9 r w w e w w e e f f f d d k k k d c c c c v c l.v b.b.b.X.o.o...O.O.{ } } [ ] T T T R Q R W W W W W W W L K K J J P P P ",
"9 9 9 q q q q u w f f f f f j l k k l l n n c n c v l.N M l.b.b.b.b.b.+.+.+.+.} } } [ [ T ! ! Q Q Q / Q W W W W W W K K K P P J ",
"9 9 9 q q q u u u f f f f f j l k l l l l n n n k.v z.N l.b.b.b.b.-.b.+.oX-.+.+.=.} } $.@.@.@.^ ^ Q Q Q Q Q Q W W W W W K K J J ",
"q q q q q u u u f f j j j j l j l l l l n n n n n l.z.l.b.b.b.b.;Xb.;Xb.b.2.+.<.<.=.$.$.$.@.#.@.^ ^ ^ Q W Q Q W W W W W L J K J ",
"9 q q q u u u u j j j j j j l l l l l n n n n n z.z.l.l.b.b.b.b.b.oXb.oXoX2.oX<.<.<.<.$.$.#.#.#.~ ~ ^ ^ ~ ~ Q Q Q W W W L L L K ",
"q q q w w u u g j j j j j l e.j r.l l k.r.n V.n z.l.l.b..X.XXXXXOXb.,XOXoX;X;X-.2.2.<.<.$.>.#.#.~ #.~ ~ ~ ~ ~ Q Q Q / W U L Y K ",
"q w w w u i f g j j 9.j j e.l l r.n r.n V.n k.M.z.z.M.+X.XXXXXXXOX$XOXOXOX;X;X;X;X2.2.<.1.$.>.#.:.:.:.~ ~ ~ ~ ~ Q Q R / U U U U ",
"u u w u f g g g j j j j n.l l r.r.l r.r.k.k.V.n z.M.M..XXXXX$X$Xb.OXOXOXOX,X,X;X;X;X2.4.4.4.1.>.:.:.:.#.~ ~ ~ ~ ^ Q Q Q U U U U ",
"p q u u g g g g e.j j n.j e.n.l r.r.r.n N.k.V.V.V.M.+X+X@X@X*X$XsX$X=X=X,X,X,X,X>X:X:X3.1.1.1.#.:.>.:.:.:.~ ~ ~ ^ ^ ! Q R R U L ",
"u u p p g g 9.g 9.9.9.e.e.r.m.j m.r.r.V.k.V.k.V.M.M.+X+X@X@X*X*X-X=X=X8X8X=X,X,X1X1X:X:X:X6.1.1.1.>.>.:.:.:.#.#.~ ~ ^ ! T R U U ",
"p p u i g g 9.9.9.0.e.e.e.e.e.m.r.m.r.m.N.N.V.V.V.B.+X#X&X*X*X-X-XaX-X=X8X8X8X8X,X1X1X:X:X6.6.1.1.>.1.>.>.:.#.#.~ ~ ! ! ! R R U ",
"i i i i g 9.9.9.9.e.e.e.e.e.e.e.m.r.N.N.N.N.V.V.B.B.%X&X&X*XpX-XaX=XsX7X7X8X8X<X1X<X<X<X2X>X6.6.1.1.>.>.>.>.:.#.~ ~ ! ! ! R T R ",
"i i i i 9.9.9.0.e.e.i.i.n.e.m.m.m.m.r.N.N.N.].B.B.B.%X&X&X-XpXpXaXsXsX7X7X0X8X6X6X6X6X<X4X>X2X6.5.6.1.1.1.>.>.:.:.#.@.! T T T T ",
"i i i 8.8.9.9.e.e.i.i.n.e.n.e.m.m.r.m.N.Q.N.V.].%X%X%XyX&XpX-X%.' sXsXsXqX7X8X0X6X6X6X<X3X2X3X5.5.6.1.1.1.>.>.>.>.#.@.! ! T T T ",
"i g h 8.9.q.0.t.e.i.i.i.e.n.n.m.m.m.N.m.N.].].B.).%X&XyXpXpXsX%.Y VXsXsXBXBX0X0XwX9X9X3X3X3X2X5.5.5.6.6.1.1.>.>.$.#.@.@.] ! T T ",
"8.i 8.8.w.0.e.p.i.i.n.g.n.n.m.n.m.N.N.N.Q.Q.].).).%XyX&XpXpXjX%.E VXsXAXBXBXBX0XwXwXeX9X3X3X3X5.5.5.6.1.1.1.>.>.>.#.$.@.@.! ] T ",
"h 8.8.w.q.q.p.i.i.i.g.d.n.m.n.m.m.m.I.N.Q.].].).%XtXtXfXgXpXjX&.&.NXVXAXsXBXBX0XwXeXeXeX9X9X3X3X2X5.5.5.6.1.1.4.>.,.#.@.] ] T ] ",
"8.8.9.9.0.0.p.u.s.d.f.n.Z.v.Z.H.v.Q.v.Q.Q.^.).).tXtXiXiXgXgXhXhXhXhXCXZXAXAXBXBXwXAXwXwXeXeX3X3X4X2X5.5.3.3.1.1.,.,.$.@.[ [ T ] ",
"8.8.9.0.t.p.u.s.s.f.d.f.f.Z.Z.v.K.K.Q.Q.Q.]./.).).tXiXiXgXgXhXhXhXCXCXCXZXVXAXAXAXwXwXwXeXeXeX3X4X2X2X2X5.3.2.4.,.,.$.$.[ [ ] ] ",
"0.9.0.q.t.p.s.s.d.d.f.Z.H.Z.H.H.K.K.Q.!.^.).^.).uXuXiXfXgXgXhXvXSXCXCXZXZXZXZXAXAXAXAXwXeXeX9X3X4X4X2X2X3.3.1.4.,.,.$.$.[ [ [ ] ",
"8.q.q.0.p.u.a.f.d.n.v.Z.Z.Z.A.G.L.K.K.Q.^.^.).(.uXuXfXlXgXhXhXvXvXCXCXDXZXZXZXZXAXZXwXwXwXeXeX3X3X4X2X2X5.3.3.4.4.,.,.} [ [ [ ] ",
"q.q.q.t.y.s.s.a.v.C.C.Z.v.H.J.H.K.P.P.!.^.^.(.).(.uXiXlXcXgXvXvXSXDXDXDXDXDXZXZXAXAXwXwXwXeX9X9X3X3X<X>X5.3.2.1.<.,.,.[ } [ [ ' ",
"q.t.t.t.u.s.s.v.v.C.C.Z.G.G.F.J.L.K.K.!.^.~./.(.uXkXlXlXgXnXvXvXvXGXGXDXDXZXZXZXZXZXZXAXBXwXeXeX3X3X4X<X>X:X3.2.<.,.=.=.} [ [ ' ",
"q.q.t.t.s.a.v.v.c.C.C.G.F.F.D.J.T.K.P.!.!.`.'.(.(.iXlXlXgXcXMXvXFXFXGXGXDXDXDXZXZXZXAXAXBXwXeX6XeX3X1X<X1X:X2.2.<.<.,.[ } [ ' ' ",
"t.y.u.a.a.f.v.v.C.C.C.G.S.G.U.U.T.L.T.!.!.~./.'.'.kXlXlXcXMXvXMXMXFXGXGXDXDXDXDXZXZXZXAXBXwX0X9X6X6X1X1X1X2.:X2.2.=.=.=.{ } { ' ",
"t.t.u.u.a.a.c.c.D.c.D.D.D.D.U.U.v.E.P.!._.~.`.'.{.{.xXzXbXMXMXMXFXFXGXGXGXGXDXDXDXZXZXAXBXBX6X0X6X6X5X1X,X:X2.oX-.<.=.} { { { ' ",
"t.t.u.u.a.v.c.c.c.c.D.D.D.D.U.U.T.R.T.P._.~.'.'.{.xXxXxXzXcXMXMXmXmXFXFXGXGXDXDXDXZXZXAXBXBXBX7X6X6X5X1X,X,X;X2.-.=.=.{ } { { | ",
"t.u.u.u.a.c.c.c.c.D.c.D.D.U.U.U.Y.T.T.E.E.~.`.'.{.{.xXxXcXbXMXMXmXFXFXFXGXGXGXDXGXZXZXCXAXNXBX0XqX5X5X,X,X,X2.2.-.-.=.{ { ` | | ",
"t.u.u.v.a.c.c.c.D.c.D.D.D.U.U.U.T.T.R.E._._.`.'.{.{.{.xXzXbXbXMXmXmXFXFXFXGXGXDXCXDXCXZXAXNXqXqXqX5X,X,X,XOXOX2.-.-.=.;.;.=.| ` ",
"t.u.u.a.c.c.c.c.c.D.D.D.U.D.U.Y.Y.T.T.E.E.`.`.'.{.{.xXxXxXbXbXMXmXmXFXFXFXFXSXGXGXDXDXVXAXNXqX7X5X5X5X=XOX;XoX2.;.=.=._ | | | ` ",
"t.u.a.a.a.c.c.c.D.c.D.D.D.D.U.U.Y.T.T.E._._.`.'.{.{.xXxXbXbXbXMXmXmXmXFXFXFXFXGXGXSXCXCXVXNXNXNX7X5X5X=X,XOXOX-.-.=.*.=._ *.` ` ",
"u.u.a.a.c.c.c.c.D.D.D.D.D.U.U.U.Y.T.T.E._._.`.'.{.{.{.xXxXbXbXMXmXmXmXFXFXFXFXSXSXSXCXCXVXNXsX7X7X5X=XOXOXoXoXoX;.;.*.| | *._ _ ",
"t.u.u.a.c.c.c.c.c.c.D.D.D.D.U.U.Y.Y.T.R.E._.`.`.[.{.xXxXxXxXbXMXmXmXmXmXmXFXFXFXSXCXVXhXVXNXsX7X7X=X5XOXOXOXoX-.-.;.=.*._ _ _ _ ",
"t.u.u.a.v.v.v.c.c.c.D.D.D.D.U.U.Y.Y.T.R.R.E.`.`.[.{.{.xXxXxXbXMXMXMXmXmXMXFXSXvXCXCXCXVXjXqXjX7X-X7X=X=XOXOXoX*.-.*.*.| _ _ _ ) ",
"t.u.u.a.a.a.v.c.c.c.D.D.D.D.D.U.W.W.T.R.E._._.`.[.[.{.{.xXbXbXbXMXMXMXmXMXvXMXCXvXvXhXhXjXjXjXjX-X-X-XOXOXXX*.oX;.*.*.*._ _ ..) ",
"t.t.u.u.a.a.v.c.c.D.c.c.D.D.U.U.W.W.W.R.E.E._.`.[.{.{.xXxXbXxXbXnXMXMXMXvXvXvXvXvXhXhXjXjXjXjX-X-X=X*XOX$XoXoXoX*.*.%.*... .) ) ",
"t.t.t.u.a.a.v.v.c.c.D.D.D.D.D.D.W.W.W.R.R.E._.`.[.{.{.{.{.xXbXbXbXnXMXMXvXMXvXvXvXhXjXjXjXaX-XpX-X-X$X$XOX@X*.XX*.*.*.*._ _  .) ",
"t.t.t.t.u.a.a.v.c.C.C.S.c.D.D.D.W.W.W.W.R.E._.~.[.[.{.{.{.bXxXbXcXcXbXcXcXvXcXhXhXhXjXjXjXpXpX-X-X*XOX@X*.$X*.*.*.*.*. . . .) ) ",
"q.q.t.t.u.u.a.v.c.c.c.S.D.D.D.D.W.A.W.W.P.R._._.`.[.{.{.xX{.xXbXzXcXcXcXcXMXgXcXgXgXgXgXpXpX-XpX-X*X*X$X*X*.+X*.*.*. .o. . .B B ",
"q.q.q.t.t.u.a.a.v.c.C.C.S.S.c.D.A.W.W.L.P.R._._.`.`.[.{.{.xXxXxXzXcXzXcXcXfXgXcXgXgXpXpXpXpXyX&X*X*XXX@XXXXX*.*.*.M o. . . .B B ",
"7.q.q.q.t.u.u.a.a.d.c.c.c.c.S.D.A.A.W.W.L.R._._.`.`.[.{.{.xX{.xXlXlXzXzXcXfXcXfXgXfXgXpXpXyX*XyX*X*X@XXX@X*.M.*.b.*.X. .m m B B ",
"8.8.8.q.q.y.u.u.a.d.v.v.C.C.Z.G.A.A.A.W.W.P._.!.~.`./.}.{.zXkXdXlXlXlXlXzXzXfXgXfXgXpXyXyXyX&X&X*X*X@X@X+X*.|.|.X.M o.M B B B m ",
"8.8.q.q.q.y.y.u.s.a.d.d.d.Z.C.C.n.A.A.W.W.P.P.!.`.~./.}.{.{.{.zXkXlXlXzXlXfXfXfXyXfXyXyXyXyX&X&X+X*XM.@XM.|.|.|.l.X.M M m m b b ",
"7.7.8.8.q.q.t.t.u.s.s.d.d.n.C.n.A.A.A.A.I.L.P._.~.~./.}.}.{.{.dXdXlXlXlXdXfXfXfXyXfXyXyXyXrX&X%X&X+X+XM.XX.X|.l.X.X.M m m b b b ",
"i 7.8.8.q.q.q.t.p.u.s.d.d.n.n.n.A.A.A.A.W.I.I.P.!.~./.}.}.}.dX{.dXdXdXdXdXfXdXdXdXtXyXtX&X%X%X#X+X+X+XM..X.X|.l.l.M m m m b b b ",
"7.7.i 8.8.q.q.t.t.i.i.d.d.d.n.n.n.A.A.A.A.L.I.!.!.~.~././.dX}.}.dXdXdXdXdXdXfXyXdXtXyXrXrX%X%X#X+XXXM.M..XM.l.l.M M N m b v b v ",
"i i i 8.7.8.q.q.0.i.i.i.d.d.d.n.n.n.n.A.H.I.I.I.~.~.~././.(.}.dXdX(.dXdXdXdXuXuXtXtXrX%XrX%X%X#X#XB.+XM.M.|.l.X.M N N m v v v x ",
"i i i 8.7.7.9.0.t.t.i.i.d.d.d.n.n.n.n.A.H.I.I.I.!.^.~.~./.(./.dX(.(.dXuX(.uXtXtXtXrXrXrX%X%X%XB.#XM.M..XM.l.l.l.N M m v v v v x ",
"i i i i 7.7.9.0.0.0.i.i.i.i.d.n.n.n.n.A.A.A.I.I.I.^.^./././././.(.dXuX(.uXuXuXtXtX).rX%XrXB.#XB.+X+XM.M.M.l.l.N M N m v v v v v "
};
