/* XPM */
static char *result[] = {
/* columns rows colors chars-per-pixel */
"32 32 105 2 ",
"   c #000000",
".  c #070804",
"X  c #0A0B07",
"o  c #0C0E08",
"O  c #0E110A",
"+  c #11130B",
"@  c #1B1E12",
"#  c #1D2214",
"$  c #222618",
"%  c #252A19",
"&  c #292E1C",
"*  c #2C311D",
"=  c #373521",
"-  c #353A22",
";  c #3A3B23",
":  c #4C2F1E",
">  c #433923",
",  c #483A24",
"<  c #613725",
"1  c #6A3526",
"2  c #663D28",
"3  c #723E2A",
"4  c #3B4325",
"5  c #404A27",
"6  c #454C2A",
"7  c #494C2E",
"8  c #475229",
"9  c #4A552A",
"0  c #4B5C2C",
"q  c #525E2D",
"w  c #4D4D33",
"e  c #494D3C",
"r  c #674E2A",
"t  c #55632F",
"y  c #576430",
"u  c #596730",
"i  c #5C6B32",
"p  c #60762F",
"a  c #627433",
"s  c #657933",
"d  c #687D35",
"f  c #6C7E38",
"g  c #647042",
"h  c #686C5C",
"j  c #823D2A",
"k  c #9F3E2D",
"l  c #B73E2F",
"z  c #B73F30",
"x  c #6F823A",
"c  c #73873B",
"v  c #798D3E",
"b  c #7D933F",
"n  c #73844E",
"m  c #7F9540",
"M  c #849D3D",
"N  c #819740",
"B  c #869E43",
"V  c #87A042",
"C  c #8AA244",
"Z  c #8EA945",
"A  c #90AB47",
"S  c #93AE49",
"D  c #96B149",
"F  c #9AB64B",
"G  c #9EBB4C",
"H  c #9CA755",
"J  c #A1BE4E",
"K  c #A6BC55",
"L  c #A7A861",
"P  c #A3B56E",
"I  c #B2B665",
"U  c #BAAE73",
"Y  c #BBB073",
"T  c #C2BD73",
"R  c #C5B979",
"E  c #C9BA7D",
"W  c #A2C04E",
"Q  c #A6C450",
"!  c #ACC074",
"~  c #C2C66E",
"^  c #C7CB71",
"/  c #A3AD87",
"(  c #B2B3B0",
")  c #BEBFBB",
"_  c #D4B88A",
"`  c #B6C58A",
"'  c #BBCA8E",
"]  c #BDCC93",
"[  c #DFCD8A",
"{  c #E4C296",
"}  c #E7C399",
"|  c #EAC49C",
" . c #EFCC9D",
".. c #EFD09A",
"X. c #C3CDA7",
"o. c #D3DCBA",
"O. c #F4CBA2",
"+. c #FED7A7",
"@. c #FFD7A8",
"#. c #FFDAAB",
"$. c #DBE4C4",
"%. c #E5E6E4",
"&. c #E7E8E5",
"*. c #F8F7F9",
"=. c #FAFAF9",
/* pixels */
"                                                                ",
"                                                                ",
"                                                                ",
"                                                                ",
"                                                                ",
"                        @ # @ @ @ @ @ @ # @ @ @                 ",
"                + + o @ 9 t y i i i i i i u i q # .             ",
"              o * ; 4 9 N B Z G G J G F G G K Z 5 o             ",
"            + * - a N m B B C Z G K D Z C C D A 5 +             ",
"          + : j ; s P X.g / ] C F f f S D F N q - +             ",
"          # 3 l , p X.%.e ( $.Z F c f J J J B q ; +             ",
"          # 2 k > p ' &.h ) $.C F G G J J J J A 4 +             ",
"          # ; > ; p ` =.&.=.o.C F G G J J J J A 5 O             ",
"          o # ; j r n ` ` ` P Z G J J G J J Q S 5 O             ",
"            O > l 1 0 M M M M V S F J J J B v x 4 +             ",
"            O > k < 0 V C V C Z Z F F A Z q & * * +             ",
"            + - > = q B V B Z G F W b 5 4 # . . .               ",
"            X + O % 5 t N B Z F G G Z d 4 O                     ",
"                  + $ 4 b H I ~ ~ ~ ^ I 6 O                     ",
"                . . @ 9 m Y | @.+.+.#.{ w O                     ",
"              . % & q Z C U | @.#.+.#.{ w O                     ",
"              . * a V A C U | #.#.+.#.} w O                     ",
"              . * a B B C L E [  .O...R 7 O                     ",
"              . % & 9 m B C A K E _ T A 4 +                     ",
"                . . @ 8 b D G G K K Q A 5 O                     ",
"                    o 4 m G C i u b G S 5 +                     ",
"                    + 4 a m t @ * y c f * X                     ",
"                    O * * * @ . % & * % .                       ",
"                      . . . .   . . . .                         ",
"                                                                ",
"                                                                ",
"                                                                "
};
