/* XPM */
static char *S1694542248[] = {
/* columns rows colors chars-per-pixel */
"32 32 237 2 ",
"   c #0E0E19",
".  c #0E101E",
"X  c #0E1224",
"o  c #0D142B",
"O  c #161A28",
"+  c #0E1A38",
"@  c #10192F",
"#  c #0E223E",
"$  c #192436",
"%  c #1F212E",
"&  c #29242B",
"*  c #372426",
"=  c #272936",
"-  c #383037",
";  c #281B21",
":  c #6A1C0D",
">  c #781F0C",
",  c #7C240B",
"<  c #73270D",
"1  c #722F15",
"2  c #472A2B",
"3  c #54322F",
"4  c #68362A",
"5  c #713B29",
"6  c #5D170B",
"7  c #5E413D",
"8  c #734537",
"9  c #0D2748",
"0  c #162B46",
"q  c #18344D",
"w  c #0E2B55",
"e  c #0E345A",
"r  c #163A57",
"t  c #2D394C",
"y  c #0D3A67",
"u  c #0B3C77",
"i  c #483D42",
"p  c #394458",
"a  c #0D4577",
"s  c #124876",
"d  c #1A537A",
"f  c #14456A",
"g  c #264966",
"h  c #33556F",
"j  c #1C415B",
"k  c #504A53",
"l  c #6A575A",
"z  c #714F4B",
"x  c #7D615E",
"c  c #505869",
"v  c #6C5D62",
"b  c #745F61",
"n  c #546578",
"m  c #776569",
"M  c #79747B",
"N  c #6F6870",
"B  c #86290D",
"V  c #922F0F",
"C  c #97360D",
"Z  c #893514",
"A  c #963A13",
"S  c #8A2F0E",
"D  c #A43C0E",
"F  c #A53D10",
"G  c #9F4315",
"H  c #AA440F",
"J  c #AC4A14",
"K  c #A54514",
"L  c #B44D14",
"P  c #B95619",
"I  c #B0470E",
"U  c #934B2B",
"Y  c #B85B25",
"T  c #A9562B",
"R  c #BA6939",
"E  c #BF642E",
"W  c #C45C1C",
"Q  c #C15E23",
"!  c #C96628",
"~  c #C86C35",
"^  c #D3753A",
"/  c #CA7039",
"(  c #865748",
")  c #985A43",
"_  c #8B665C",
"`  c #996C5A",
"'  c #A76749",
"]  c #B46E49",
"[  c #A7735B",
"{  c #B37451",
"}  c #846A66",
"|  c #8B726D",
" . c #917671",
".. c #A67A67",
"X. c #B67E63",
"o. c #AB7F72",
"O. c #D67C45",
"+. c #C47D56",
"@. c #CB7849",
"#. c #9B9072",
"$. c #AF8678",
"%. c #A3A06D",
"&. c #D9834D",
"*. c #D88957",
"=. c #D0885D",
"-. c #C88A68",
";. c #DA956A",
":. c #D79976",
">. c #CE8F6F",
",. c #DDA079",
"<. c #E0A17C",
"1. c #BEC36F",
"2. c #C0C171",
"3. c #0E4987",
"4. c #114A88",
"5. c #0E548B",
"6. c #0D5898",
"7. c #115599",
"8. c #145885",
"9. c #166494",
"0. c #376687",
"q. c #2E6E95",
"w. c #0D5DA4",
"e. c #105DA1",
"r. c #0D64AB",
"t. c #0E69A7",
"y. c #1165A8",
"u. c #0D6BB4",
"i. c #106EB4",
"p. c #0D76BA",
"a. c #1376B5",
"s. c #1576AB",
"d. c #277AAA",
"f. c #265E83",
"g. c #517793",
"h. c #727787",
"j. c #0D7DC5",
"k. c #1078C1",
"l. c #847E87",
"z. c #2D85B7",
"x. c #0D81BE",
"c. c #7A8898",
"v. c #7B828D",
"b. c #4A8BB1",
"n. c #7194AD",
"m. c #7DA2BC",
"M. c #0D86C9",
"N. c #1587C6",
"B. c #1894CF",
"V. c #0D8BD5",
"C. c #138ED0",
"Z. c #0D92DC",
"A. c #1698D9",
"S. c #2B98D0",
"D. c #28A2DD",
"F. c #38A8DA",
"G. c #37A0CF",
"H. c #159DE1",
"J. c #1EA1E5",
"K. c #27A7E3",
"L. c #36ADE3",
"P. c #3CB3E8",
"I. c #489AC8",
"U. c #47ABD8",
"Y. c #56B3DB",
"T. c #55ABD3",
"R. c #6AB7DA",
"E. c #77BDDB",
"W. c #6CA6C9",
"Q. c #48B6E3",
"!. c #59BCE8",
"~. c #66BFE2",
"^. c #7AC1DF",
"/. c #66C2E9",
"(. c #78C6E7",
"). c #95888B",
"_. c #888C97",
"`. c #958F95",
"'. c #A78D88",
"]. c #B29791",
"[. c #8997A6",
"{. c #989AA5",
"}. c #A19FA4",
"|. c #87A3B9",
" X c #99AAB9",
".X c #96A1AE",
"XX c #B9A9A7",
"oX c #BAB5B6",
"OX c #ABABB2",
"+X c #BEA297",
"@X c #C79984",
"#X c #D9A586",
"$X c #C9A898",
"%X c #D6AB95",
"&X c #CCA38F",
"*X c #E3B498",
"=X c #E3AC8B",
"-X c #C7AEA5",
";X c #D8B8A6",
":X c #CBBAB4",
">X c #E2BDA7",
",X c #D8C3B9",
"<X c #CCC3BC",
"1X c #E1C4B5",
"2X c #88ACC4",
"3X c #86B3CC",
"4X c #97B5C7",
"5X c #85BCD6",
"6X c #97BBD3",
"7X c #A5BBC9",
"8X c #AEBBCC",
"9X c #C4BEC0",
"0X c #88C4DB",
"qX c #98C4DA",
"wX c #A6C9DB",
"eX c #B3C8D5",
"rX c #BBCAD2",
"tX c #84C9E6",
"yX c #96CCE7",
"uX c #98D3EA",
"iX c #91D2EE",
"pX c #A8D6EA",
"aX c #B3DEED",
"sX c #B9D8E6",
"dX c #A9D8ED",
"fX c #BBE3F2",
"gX c #AFE1EF",
"hX c #D9CDC7",
"jX c #CACBD6",
"kX c #CAD4DA",
"lX c #D8D6D8",
"zX c #D0CCCE",
"xX c #C7DAE6",
"cX c #D4DDE5",
"vX c #CAE2EC",
"bX c #CAE2EC",
"nX c #E0C9C1",
/* pixels */
"    . . X X O O O O ; ; ; * * 2 3 6 4 : < < , , , , > B > : : 6 ",
"    X X X O O O % O ; & ; * 2 3 3 4 4 1 1 Z S , B B B B > > : : ",
"  . X o @ @ $ $ % = & * * 2 3 4 4 4 5 Z 1 Z V Z Z V V B B , > > ",
". X @ + # $ $ $ = = = - i 2 i i z 5 z U U A A A A C C C V B B , ",
"X o @ # # 9 $ q t t t t i i i z z z ( U U U A F A H D D C C V B ",
"@ # # 9 0 q q q q t t i k i l l z ( ( ) T T T K I H I I F D C C ",
"+ # 9 9 e q j j t p g c c l v m } _ ` ' ' T Y Y P P L L I H G C ",
"+ # 9 w r r j g g g c c c v N |  . ...[ ] ] ~ E W P W P L J K H ",
"9 9 w y f f f g h h n n n N h.l.l.o.X.$.X.] / ~ ! ! ! W W P I J ",
"w w e y f d s d h h n n h.h.l.).'.].$.$.-.-.@.@.^ ^ ! ! W W P J ",
"w e y a s d d f.0.h 0.v.h.c._.{.}.].].@X>.-.=.&.O.^ ^ ! ! Y P P ",
"y e a a d 8.9.9.q.0.g.b.c._.`..X}.XX+X&X&X:.;.*.&.&.O.^ ~ ! E Y ",
"y y a 5.5.9.9.q.q.b.b.b.c.[..XOXXX-X-X-X%X#X:.;.;.*.&.^ ^ ~ E Y ",
"u u 3.5.6.t.9.s.b.z.b.n.n. X XOX8X:X:X;X;X%X#X<.;.;.*.&.&./ R E ",
"a a 5.6.t.t.s.z.z.z.b.n.m. XwX%.%.jX9X:X>X*X*X=X<.;.;.*.&.@.R R ",
"3.4.7.y.t.s.x.z.z.b.n.W.E. X7X1.,.jXnXnX1X1X*X*X<.<.:.=.&.+./ R ",
"4.5.e.t.a.a.k.B.S.I.T.W.3XqXwXrXxXkXlXhXnX1X1X*X=X<.,.>.=.{ ] R ",
"7.6.y.i.p.N.N.C.S.I.T.R.3XqXwXsXsXkXlXhXlX1X1X*X*X=X,.>.-.=.@.] ",
"7.w.u.i.j.N.C.S.S.I.T.R.5XyXwXsXvXcXcXlXlXnX1X1X*X%X<.>.-.-.{ ] ",
"w.w.i.k.j.C.C.H.D.G.Y.~.5XyXpXgXvXcXcXlXlXhX,X;X;X%X#X:.-.-.{ { ",
"w.w.p.j.j.Z.Z.H.D.L.Y.~.(.iXgXgXfXvXcXcXlXlXhX,X;X$X&X@X$.-.' ' ",
"w.u.k.j.V.V.Z.H.D.L.Q.~.(.iXgXgXfXvXvXbXcXkXzX<X<X-X$X>.$.[ [ ` ",
"w.u.k.j.V.Z.H.H.K.L.Q.!.(.iXuXgXfXvXvXbXcXkXzX<X-X-X+X].$...[ ` ",
"r.r.k.j.V.Z.Z.H.J.K.Q.!.(.iXuXgXfXfXvXvXkXkXjX9XoXXX+X'.$.#.` ` ",
"w.u.k.k.j.Z.Z.Z.J.K.P.!./.(.uXgXaXfXsXxXkXrXrX8XoXXX].'.#...} _ ",
"w.r.u.k.j.V.Z.Z.H.K.P.!.(.(.iXgXdXgXaXsXeXrXrXoXOX}.}.).$. .` _ ",
"6.w.r.k.j.M.Z.Z.A.D.F.Q./.(.iXuXpXdXpXpXeXeXeXOXOX}.}.). .| } _ ",
"6.6.w.u.k.j.V.V.B.D.L.Q.!.(.(.uXuXuXwXwXwXqXqX X}.{.`.#.l.} } x ",
"3.7.w.r.u.k.j.M.B.B.F.Q.Y./.(.0XyXuXuXqXqX4X X X.X[._.). .} m m ",
"3.3.7.w.r.i.p.M.B.B.S.F.Y./.^.0X0X0XqXqXqX4X X|.[.[.v.v.M M m b ",
"u 3.3.6.r.t.p.x.x.B.S.G.T.Y.E.^.^.0X0X0X3X2X|.|.[.c.c.M M m v l ",
"u u 3.6.6.t.s.p.x.x.S.G.U.R.R.E.^.0X3X3X3X2Xm.|.c.c.v.M N m v l "
};
