/* XPM */
static char *Sp1694542248[] = {
/* columns rows colors chars-per-pixel */
"32 32 237 2 ",
"   c #0E0E19",
".  c #0E101E",
"X  c #0E1224",
"o  c #0D142B",
"O  c #161A28",
"+  c #0E1A38",
"@  c #10192F",
"#  c #0E223E",
"$  c #192436",
"%  c #1F212E",
"&  c #29242B",
"*  c #372426",
"=  c #272936",
"-  c #383037",
";  c #281B21",
":  c #6A1C0D",
">  c #781F0C",
",  c #7C240B",
"<  c #73270D",
"1  c #722F15",
"2  c #472A2B",
"3  c #54322F",
"4  c #68362A",
"5  c #713B29",
"6  c #5D170B",
"7  c #5E413D",
"8  c #734537",
"9  c #0D2748",
"0  c #162B46",
"q  c #18344D",
"w  c #0E2B55",
"e  c #0E345A",
"r  c #163A57",
"t  c #2D394C",
"y  c #0D3A67",
"u  c #0B3C77",
"i  c #483D42",
"p  c #1C415B",
"a  c #394458",
"s  c #0D4577",
"d  c #124876",
"f  c #1A537A",
"g  c #14456A",
"h  c #264966",
"j  c #33556F",
"k  c #504A53",
"l  c #6A575A",
"z  c #714F4B",
"x  c #7D615E",
"c  c #505768",
"v  c #6C5D62",
"b  c #745F61",
"n  c #546578",
"m  c #776569",
"M  c #79747B",
"N  c #6F6870",
"B  c #86290D",
"V  c #922F0F",
"C  c #97360D",
"Z  c #893514",
"A  c #963A13",
"S  c #8A2F0E",
"D  c #A43C0E",
"F  c #A53D10",
"G  c #9F4315",
"H  c #AA440F",
"J  c #AC4A14",
"K  c #A54514",
"L  c #B44D14",
"P  c #B95619",
"I  c #B0470E",
"U  c #934B2B",
"Y  c #B85B25",
"T  c #A9562B",
"R  c #BA6939",
"E  c #BF642E",
"W  c #C45C1C",
"Q  c #C15E23",
"!  c #C96628",
"~  c #C86C35",
"^  c #D37439",
"/  c #CE6F36",
"(  c #865748",
")  c #985A43",
"_  c #8B665C",
"`  c #996C5A",
"'  c #A76749",
"]  c #B46E49",
"[  c #A7735B",
"{  c #B37451",
"}  c #846A66",
"|  c #8B726D",
" . c #917571",
".. c #A67A67",
"X. c #B67E62",
"o. c #AB7F72",
"O. c #C97747",
"+. c #D57B45",
"@. c #C47D56",
"#. c #979731",
"$. c #B9B935",
"%. c #9E807A",
"&. c #B28876",
"*. c #B0AC40",
"=. c #D9834D",
"-. c #D88958",
";. c #D0875D",
":. c #C88A68",
">. c #DA956A",
",. c #D79976",
"<. c #CD8F6F",
"1. c #DDA079",
"2. c #E0A17C",
"3. c #0E4987",
"4. c #114A88",
"5. c #0E548B",
"6. c #0D5898",
"7. c #115599",
"8. c #145885",
"9. c #166494",
"0. c #376687",
"q. c #2E6E95",
"w. c #0D5DA4",
"e. c #105DA1",
"r. c #0D64AB",
"t. c #0E69A7",
"y. c #1165A8",
"u. c #0D6BB4",
"i. c #106EB4",
"p. c #0D76BA",
"a. c #1376B5",
"s. c #1576AB",
"d. c #277AAB",
"f. c #265E83",
"g. c #517793",
"h. c #717786",
"j. c #0D7DC5",
"k. c #1078C1",
"l. c #847D86",
"z. c #2E85B7",
"x. c #0D81BE",
"c. c #7A8797",
"v. c #78808B",
"b. c #4A8AB0",
"n. c #7194AD",
"m. c #7EA2BA",
"M. c #0D86C9",
"N. c #1587C6",
"B. c #1894CF",
"V. c #0D8BD5",
"C. c #138ED0",
"Z. c #0D92DC",
"A. c #1698D9",
"S. c #2B99D0",
"D. c #28A2DD",
"F. c #38A9DB",
"G. c #37A0CF",
"H. c #159DE1",
"J. c #1EA1E4",
"K. c #27A7E3",
"L. c #35ADE4",
"P. c #3CB3E8",
"I. c #489AC7",
"U. c #47ABD8",
"Y. c #56B3DB",
"T. c #55ABD2",
"R. c #6AB7DA",
"E. c #77BDDB",
"W. c #71A8C6",
"Q. c #59BCE8",
"!. c #49B6E4",
"~. c #66BFE2",
"^. c #7AC1DF",
"/. c #66C2E8",
"(. c #79C6E7",
"). c #95888B",
"_. c #878B97",
"`. c #958F95",
"'. c #A78D88",
"]. c #B39790",
"[. c #8997A6",
"{. c #989AA5",
"}. c #A19FA4",
"|. c #87A3B9",
" X c #9AAAB8",
".X c #95A1AF",
"XX c #B9AAA7",
"oX c #A7B2B7",
"OX c #AFABAF",
"+X c #BEA297",
"@X c #C69884",
"#X c #D9A586",
"$X c #C9A898",
"%X c #D6AB95",
"&X c #CCA38F",
"*X c #E3B397",
"=X c #E3AA88",
"-X c #C9B6AD",
";X c #D8B8A6",
":X c #C6BAB9",
">X c #CBB3A9",
",X c #E2BDA7",
"<X c #B0C1B7",
"1X c #D9C5B9",
"2X c #CAC4B9",
"3X c #E2C5B3",
"4X c #86B3CC",
"5X c #96B5C9",
"6X c #86BCD6",
"7X c #90B1C8",
"8X c #A5BBC9",
"9X c #B6B9C2",
"0X c #88C4DB",
"qX c #98C4DA",
"wX c #A7C8DA",
"eX c #B3C8D5",
"rX c #BBC7D2",
"tX c #85CAE7",
"yX c #97CCE6",
"uX c #98D3EA",
"iX c #92D3EE",
"pX c #A7D6E9",
"aX c #B3DEED",
"sX c #BAD7E7",
"dX c #A9D8ED",
"fX c #BBE2F2",
"gX c #AEE1EF",
"hX c #C7C7C9",
"jX c #D9CBC8",
"kX c #CAD5D8",
"lX c #D9D6D8",
"zX c #CECFD4",
"xX c #C7DAE6",
"cX c #D3DDE5",
"vX c #CAE2EC",
"bX c #CEE2EA",
"nX c #E1CBC0",
/* pixels */
"    . . X X O O ; O ; ; ; * * 2 3 6 4 : 1 , , , , , > > > : : 6 ",
"    X X X O O O O % % ; * * 2 3 4 4 4 1 1 B S , B B B B > > : : ",
"  . X o @ @ $ $ % % % * * 2 3 3 4 5 5 5 1 Z Z Z S V V V B , > > ",
". X @ + # $ $ $ = & t - t 2 i 7 z 8 5 U U A A A A C C C V S B , ",
"X o @ # # 9 $ q t t t t i i i z z z ( U U U F G K D D D C C V B ",
"@ # # 9 0 q q q q t t i i k l l z ( ( ) T T T K H I I I F F C C ",
"+ # 9 9 e q p p a a a c c l v m } ` ` ' ' E T Y P L L L I H G C ",
"+ # 9 w r r p h h a j c c v N |  . .` [ ] ] R Q W W W P L J J G ",
"9 9 w y g g g h j j j n n M h.l.l.%.o.X.{ { ~ ~ ! ! ! W W P I J ",
"w w e y g d f f j j n n N h.l.l.'.'.&.&.:.;.@.O.^ ~ ! ! W W P J ",
"w e y s d f f f.f.n b.n g._.`.`.].].+X@X<.<.;.=.=.^ ^ ! ! Q P P ",
"y e s s f 8.9.9.q.0.b.v.c._.{.}.OXXX+X$X@X,.>.-.=.=.+.^ ~ E E Y ",
"y y s 5.5.9.9.q.q.b.b.c.n.n..X XOX>X>X$X%X#X,.>.>.-.=.^ ^ ~ E E ",
"u u 3.5.6.t.9.s.q.b.b.n.n..X XoXhX9X:X>X;X%X#X2.>.-.>.=.=.~ R E ",
"s s 5.6.t.t.s.z.z.z.b.I.m. XoX#.*.-XjX;X3X*X*X=X2.2.>.-.=.O.R R ",
"3.4.7.y.t.s.x.z.z.b.W.m.W.qX<X$.#.jXjXjX3X3X*X=X2.2.,.;.-.O.R R ",
"4.5.e.y.a.a.N.N.S.I.I.W.4X5XwXkXkXzXzXjXnXnX,X*X*X=X,.>.;.O.] ] ",
"7.7.r.i.p.k.N.B.S.I.T.R.6XqXwXeXxXkXlXlXjX3X3X,X=X#X2.<.:.@.O.] ",
"7.6.r.k.j.N.C.S.G.I.T.R.6XyXpXsXbXcXlXlXlXnX3X,X*X%X#X<.:.@.{ ] ",
"e.r.i.k.M.C.V.A.D.F.Y.~.0XyXpXgXvXcXcXcXlXlXjX,X;X%X#X,.:.&.{ ' ",
"w.w.u.j.j.Z.Z.H.D.L.Y.~.(.uXgXgXfXvXbXlXlXlXjX1X;X>X&X@X:.X.[ [ ",
"w.u.k.j.V.V.H.H.J.L.!.~.(.iXpXgXfXvXvXcXcXkXjX:X-X$X+X<.&.X.[ ` ",
"w.u.k.j.V.Z.H.H.J.L.!.~.(.iXgXgXfXvXvXbXcXkXzXjX-X>X+X].&...[ ` ",
"r.u.k.j.V.Z.Z.H.J.K.!.Q./.iXiXgXfXfXfXvXxXkXhXoXXXXX+X].&...` ` ",
"r.r.k.j.j.Z.Z.Z.J.K.P.Q.(.(.iXgXaXfXsXsXsXkXrXrXoXXX}.&.%.%.` _ ",
"w.r.u.k.j.V.Z.Z.H.K.P.!./.(.iXgXdXaXaXsXeXzXoXoXOXXX].'.%.%._ _ ",
"6.w.r.k.j.j.Z.Z.A.D.P.!./.(.iXuXdXdXpXpXeXeXwXoXoX}.`.).%.| _ _ ",
"6.6.w.u.k.j.V.V.B.D.F.!./.(.(.uXuXuXpXwXwX8X<X5X.X{.`.).%.| m x ",
"4.7.e.w.u.k.M.M.B.B.F.U.Y.^.^.tXyXuXuXqXqX8X X X.X[.c.%.M M x b ",
"3.4.7.w.r.i.p.M.N.B.D.F.Y./.^.0X0X0XqXqX0X X|.|.[.[.c.l.M m m b ",
"u 3.5.6.t.t.p.x.x.B.S.F.U.Y.E.^.^.0X0X6X0X|.|.|.[.c.c.v.M m v l ",
"u u 3.6.6.t.t.p.x.x.S.G.T.Y.R.E.E.6X0X4X0X|.|.[.n.c.v.M N N v l "
};
