/* XPM */
static char *result[] = {
/* columns rows colors chars-per-pixel */
"32 32 101 2 ",
"   c #000000",
".  c #070804",
"X  c #0A0B07",
"o  c #0D0F09",
"O  c #0E110B",
"+  c #11130B",
"@  c #1A1D12",
"#  c #1D2315",
"$  c #212516",
"%  c #232718",
"&  c #252A19",
"*  c #2D321D",
"=  c #373521",
"-  c #343A22",
";  c #3A3B23",
":  c #4C2F1E",
">  c #433923",
",  c #483A24",
"<  c #643523",
"1  c #663D28",
"2  c #723E2A",
"3  c #3D4525",
"4  c #414A27",
"5  c #444C29",
"6  c #494C2E",
"7  c #475229",
"8  c #4E5C2D",
"9  c #505E2D",
"0  c #4D4D33",
"q  c #644C25",
"w  c #56632F",
"e  c #596730",
"r  c #5A6A31",
"t  c #627333",
"y  c #637934",
"u  c #687D36",
"i  c #6D7F38",
"p  c #4F5440",
"a  c #505542",
"s  c #657157",
"d  c #823D2A",
"f  c #9F3E2D",
"g  c #B73E2F",
"h  c #B73F30",
"j  c #73873B",
"k  c #798E3E",
"l  c #7D933F",
"z  c #738442",
"x  c #7F9540",
"c  c #87A03E",
"v  c #819740",
"b  c #859C42",
"n  c #87A142",
"m  c #8AA344",
"M  c #8FAA45",
"N  c #91AB47",
"B  c #93AD48",
"V  c #93B146",
"C  c #95B149",
"Z  c #9AB64B",
"A  c #9EBB4C",
"S  c #9CA755",
"D  c #A1BE4E",
"F  c #A6BC55",
"G  c #929D7F",
"H  c #98A76A",
"J  c #9DB260",
"K  c #A6A760",
"L  c #B2B666",
"P  c #BCAE74",
"I  c #A5B771",
"U  c #A9B87C",
"Y  c #BCB073",
"T  c #C2BD73",
"R  c #C5B979",
"E  c #C9BA7D",
"W  c #A3C14F",
"Q  c #A5C450",
"!  c #C3C76F",
"~  c #C7CB71",
"^  c #B3B5AF",
"/  c #D4B88A",
"(  c #B7C58E",
")  c #BCCC8F",
"_  c #DFCD8A",
"`  c #E4C296",
"'  c #E7C399",
"]  c #EAC49C",
"[  c #EFCC9D",
"{  c #EFD09A",
"}  c #D4DCBA",
"|  c #F4CBA2",
" . c #FED7A7",
".. c #FFD7A8",
"X. c #FFDAAB",
"o. c #C3C4C1",
"O. c #D9E2C1",
"+. c #E1E2DE",
"@. c #E2E3E0",
"#. c #EAE9ED",
"$. c #F8F7F9",
/* pixels */
"                                                                ",
"                                                                ",
"                                                                ",
"                                                                ",
"                                                                ",
"                                                                ",
"                o + + + + + o o O O O O O + + X                 ",
"              o * 3 3 3 3 4 4 5 4 4 4 4 4 4 4 3 O               ",
"            + * - t v x v k b N N N N N N N B b 3 X             ",
"          O : d ; u m c m m c C F Q A N B N A C 4 +             ",
"          # 2 g , y J U z H I b Z b x M N N b i 3 +             ",
"          # 1 f > t ) +.a ^ O.N Z t t A A D x 3 - +             ",
"          # ; > - y ) +.a ^ O.m Z C C A D D Z b 3 +             ",
"          X # ; d q G $.o.#.O.m Z W D A A D Q N 4 O             ",
"            O , g < s } O.O.( M A D A W D D Q B 4 +             ",
"            O > f < 8 n m m b m Z A Z N N N B b 3 +             ",
"            + - > = 9 b n n n b m Z l 4 3 3 5 3 - +             ",
"            X + + & 4 e v n m B V Z m j 3 @ O O + X             ",
"                  + & 3 v S L ! ! ! ~ L 5 O                     ",
"                . . + 3 l P '  . . .X.` 0 O                     ",
"              . & * * 3 k R ' .. . .X.` 0 O                     ",
"              . * t x k v R ] .. .X.X.' 0 O                     ",
"              . * t m Z m K R _ [ | { R 6 O                     ",
"              . & * 8 x b m N F E / T B 3 O                     ",
"                . $ - 7 x C D D F F Q N 4 O                     ",
"                  X @ 3 v A n r e l A B 4 +                     ",
"                    o 3 t z r # * w j i * X                     ",
"                    O * * * # . & * * & .                       ",
"                      X . . .   . . . .                         ",
"                                                                ",
"                                                                ",
"                                                                "
};
