/* XPM */
static char *_6928404262043d7b8dbc42f3d268b779omSAvyzupJWj1AN[] = {
/* columns rows colors chars-per-pixel */
"64 64 254 2 ",
"   c #0E0E19",
".  c #0E101E",
"X  c #0E1223",
"o  c #0E142B",
"O  c #161A27",
"+  c #0E1B36",
"@  c #121D34",
"#  c #0E0F22",
"$  c #241D25",
"%  c #341E20",
"&  c #172538",
"*  c #142136",
"=  c #28232A",
"-  c #382527",
";  c #272A36",
":  c #373037",
">  c #2B1C1E",
",  c #691B0C",
"<  c #771E0A",
"1  c #701E10",
"2  c #7C230C",
"3  c #79270D",
"4  c #722F16",
"5  c #472929",
"6  c #523331",
"7  c #6B392B",
"8  c #5E2113",
"9  c #714438",
"0  c #76751E",
"q  c #0D2748",
"w  c #172C45",
"e  c #0E2C55",
"r  c #0E3359",
"t  c #173A57",
"y  c #17334D",
"u  c #293548",
"i  c #303A4B",
"p  c #0E3967",
"a  c #0B3C77",
"s  c #10396C",
"d  c #0F1F41",
"f  c #4D3E42",
"g  c #314359",
"h  c #164669",
"j  c #0E4479",
"k  c #124978",
"l  c #164D75",
"z  c #2F526E",
"x  c #305772",
"c  c #514951",
"v  c #69575B",
"b  c #73534E",
"n  c #4D5768",
"m  c #6A5D62",
"M  c #745E61",
"N  c #4F6479",
"B  c #776568",
"V  c #786D74",
"C  c #706C75",
"Z  c #7E615D",
"A  c #862A0D",
"S  c #98360E",
"D  c #8A3716",
"F  c #973811",
"G  c #8F300E",
"H  c #A23C10",
"J  c #A43C0E",
"K  c #803D22",
"L  c #9B4419",
"P  c #A94814",
"I  c #B34D13",
"U  c #B9551A",
"Y  c #AA4510",
"T  c #914C2D",
"R  c #B85B25",
"E  c #A8562B",
"W  c #BA6738",
"Q  c #BB612C",
"!  c #817E1F",
"~  c #C25B1C",
"^  c #C86629",
"/  c #C76C36",
"(  c #D47539",
")  c #CE7136",
"_  c #C45F21",
"`  c #8B5847",
"'  c #88645A",
"]  c #976A59",
"[  c #9B6955",
"{  c #AA6A4A",
"}  c #B66D45",
"|  c #B9734B",
" . c #A87258",
".. c #B77857",
"X. c #A36C54",
"o. c #876A66",
"O. c #997468",
"+. c #887779",
"@. c #93736D",
"#. c #A77865",
"$. c #AC7C69",
"%. c #C87746",
"&. c #D57C45",
"*. c #C47B53",
"=. c #FAF63C",
"-. c #9A817B",
";. c #B98368",
":. c #B78A77",
">. c #A98477",
",. c #B1B141",
"<. c #D9834C",
"1. c #D88858",
"2. c #CF875D",
"3. c #C88967",
"4. c #DA946A",
"5. c #CA9478",
"6. c #D99C77",
"7. c #D08D68",
"8. c #E1A27A",
"9. c #DF9F77",
"0. c #B5B336",
"q. c #0D4986",
"w. c #114A88",
"e. c #0D548B",
"r. c #0E5797",
"t. c #115699",
"y. c #14568A",
"u. c #156597",
"i. c #306B90",
"p. c #0D5DA3",
"a. c #105EA2",
"s. c #0D64AB",
"d. c #0D68A8",
"f. c #1166A7",
"g. c #0D6CB4",
"h. c #106CB3",
"j. c #0D76B9",
"k. c #1377B7",
"l. c #1775AB",
"z. c #2E7CA8",
"x. c #215B80",
"c. c #4E738E",
"v. c #797A85",
"b. c #68798C",
"n. c #437DA2",
"m. c #0D7BC4",
"M. c #1079C2",
"N. c #857D85",
"B. c #1181BD",
"V. c #3185B5",
"C. c #788696",
"Z. c #4E8CB2",
"A. c #7295AF",
"S. c #638BA8",
"D. c #0D84C9",
"F. c #1389C7",
"G. c #1893CD",
"H. c #0D8AD4",
"J. c #0E93DB",
"K. c #1597D9",
"L. c #118DD2",
"P. c #2795CC",
"I. c #279BD5",
"U. c #3496CC",
"Y. c #29A3DC",
"T. c #39A7D8",
"R. c #3AA1CE",
"E. c #169CE1",
"W. c #1CA1E4",
"Q. c #26A6E3",
"!. c #35ADE3",
"~. c #3BB1E5",
"^. c #1FA0DC",
"/. c #4B9AC5",
"(. c #47ABD7",
"). c #57B4DB",
"_. c #51AAD3",
"`. c #67B9DB",
"'. c #78BAD9",
"]. c #71AAC9",
"[. c #48B6E5",
"{. c #59BCE5",
"}. c #6ABFE3",
"|. c #679FC2",
" X c #69C2E7",
".X c #79C6E7",
"XX c #70C0E1",
"oX c #87838A",
"OX c #988687",
"+X c #878A96",
"@X c #959299",
"#X c #AF958E",
"$X c #B7A19C",
"%X c #8897A7",
"&X c #969BA6",
"*X c #829BAF",
"=X c #A59CA2",
"-X c #87A5BA",
";X c #97A8B7",
":X c #9AA5B1",
">X c #A7A5A9",
",X c #B7A9A8",
"<X c #B0B1B7",
"1X c #C79985",
"2X c #D19E81",
"3X c #D9A588",
"4X c #C9A798",
"5X c #D7AC95",
"6X c #D3AB95",
"7X c #E2AA87",
"8X c #E3B498",
"9X c #E2AF92",
"0X c #C8B3A9",
"qX c #D8B8A8",
"wX c #C8B9B5",
"eX c #CCB4AA",
"rX c #E2BCA6",
"tX c #B7C7AE",
"yX c #DBC4B8",
"uX c #CDC5B6",
"iX c #E1C5B6",
"pX c #E3C2AD",
"aX c #88ACC4",
"sX c #88B4CC",
"dX c #97B5C7",
"fX c #86BBD5",
"gX c #96BCD6",
"hX c #A6B9C7",
"jX c #B7BAC4",
"kX c #89C4DB",
"lX c #99C5DA",
"zX c #A8C7D8",
"xX c #B8CBD8",
"cX c #B9C5D1",
"vX c #87CBE8",
"bX c #96CCE4",
"nX c #99D3EB",
"mX c #94D3EF",
"MX c #A8D7EA",
"NX c #B7D8E7",
"BX c #A8DCF1",
"VX c #ACD5E9",
"CX c #B9E2F2",
"ZX c #B1E0EE",
"AX c #DACBC6",
"SX c #C6CCD5",
"DX c #C9D3DC",
"FX c #D8D6D7",
"GX c #D1C9C9",
"HX c #C8DBE6",
"JX c #D5DCE3",
"KX c #C8E2ED",
"LX c #D1E2E9",
"PX c #C3BEC4",
/* pixels */
"        . . . X X X X O X X O O $ o $ $ # > $ > > > % % % 5 5 5 8 5 6 1 6 8 4 1 3 1 3 3 3 3 3 3 2 2 2 2 < A < < < < , , , , , , ",
"        . . X . X X X X O O O O o $ o $ $ $ $ $ > % % % % 5 5 5 5 8 8 6 1 7 4 4 4 4 3 3 3 3 A 3 2 2 2 2 < A < < < < < , , , , , ",
"        . . X X X X O O O O O O o $ @ $ $ $ $ = = % % - 5 5 6 6 6 8 6 8 7 4 7 4 4 A 3 3 3 3 3 3 2 A A A A A A A A < < , , , , , ",
"        . X X X o O O @ * O O O $ @ % $ $ $ = = = - - 5 5 5 6 6 6 7 7 7 7 7 7 4 4 4 D A A D G A A A A A A A A A A < < < , , , , ",
"      # # X o o O O O O * & O O @ $ = @ = = = ; - - - : 5 5 6 6 f 7 7 7 7 K 4 K K D D D A D A D G A G G A A A A A A A 1 1 1 1 1 ",
"    # # X o o @ O * * & & O & ; ; ; ; = ; ; : - : : f 5 6 f 6 6 7 7 7 7 7 7 K K D D D D D F D G G G G G G G G A A A A 2 < < 2 2 ",
". # # X o o o @ * * & & & & & & ; ; ; ; ; ; : : : - 5 5 6 6 9 f 9 9 9 9 T 7 T K D T K D F F F F S S S S S G G G G A A A A 3 2 3 ",
"# X X o o + @ + * * & & & w & ; d ; ; u ; : : : f : f f f f f 9 c 9 7 b 9 9 T T K T L L L F F L S J F H J S J S F G G G A A A 3 ",
"X o o o + + * * * * & y & y & y d : u : u : f i f f f 6 c 6 f b b 7 ` b ` T T T T T L L L L P H Y J J J J J J J S S G G G G A A ",
"o o o + + * q * q q * r r & y y u u u i i i i i i f f f b c b b b b b T ` ` ` T T T E L L L L P Y J Y J J J J J H H S S G G G A ",
"o + + + + q & q q & r & y y u y u u i i i f i f f c c c c b v b b b ` ` ` ` ` T ` E E E P P P P Y Y J Y I J J J J J H S S G G G ",
"o + + + + q q q q r y y y y y g i e g i i g g c g c c c v v v M ' b Z ' ' ` { { E T E E E E E I I I I I I I I J J J H H S L S G ",
"+ + + + q q q q y y t y t t g t g g g g g g g c c n v v v v M M ' ' ' ] ] [ { ` { E E E E R E I I U I I I I I I Y Y Y L Y S L G ",
"+ + q + * q r q r y r t t t t g g g g g n g n n n c n v v v B B B o.o.O.] ] X.X.{ { W W Q E R R U U U U ~ I I I I Y Y Y Y L Y L ",
"+ + + q * r & r r t t h t g g h s g g g g n n n n n m m M N.N.o.@.o.@.O.O.]  .{ { } } W W Q Q R ~ ~ ~ ~ ~ I ~ U I I I P Y L L L ",
"d + q q y r r t r r t t h h h g z g z z z n n n n m n C M M N.N.+.@.@.O.#.#.#. ...{ } } W W / ^ Q ~ ~ ~ ~ ~ ~ U U I I P P Y Y Y ",
"q q q e e e e p r h h h h h l x z z x x N N n N n m v.m v.v.N.N.N.$.N.$.$.$.$.$.......| %./ / ^ Q ^ _ _ ~ ~ ~ ~ ~ ~ I I I Y Y P ",
"q q q e e e p p p h h h h h l x z x x x x N N N c.m b.v.v.N.N.N.N.N.1X$.N.3.$.$.......*.%.%./ / ) ^ ^ ^ ^ ^ ^ ~ ~ ~ ~ ~ I I P P ",
"e e e e e p p p h h l l l l x l x x x x N N N N c.v.b.v.N.N.N.N.N.#X#XN.1X1X$.3.3.3.*.*.%.%.%.&.) ) ( ^ ^ ^ ^ ^ ~ ~ ~ ~ U P I P ",
"q e e e p p p p l l l l l l x x x x x N N N N N b.b.v.v.N.N.N.N.$XN.N.1X1XN.1X$.5.;.3.*.*.%.&.&.( ( ( ( ( ^ ^ ~ ^ ~ ~ ~ U U U I ",
"e e e r r p p j l l l l l x u.l i.x x c.i.N S.N b.b.N.N.N.N.@X@XN.#X$X#X#X1X1X1X5.3.3.3.*.1.&.&.( &.( ( ( ( ( ^ ^ ^ _ ~ R U R P ",
"e r r r p a h j l l e.l l u.x x i.N i.N S.N c.C.b.N.A.%X&X@X@X&X,X$X$X$X#X$X1X1X1X5.5.7.4.1.4.&.<.&.<.( ( ( ( ( ^ ^ ^ ^ R R U R ",
"p p r p h j j j l l l l B.x x i.i.x i.i.c.c.S.N b.b.N.N.@X&X&X=XN.$X$X$X4X1X1X1X2X1X5.5.4.*.4.&.<.<.<.<.( ( ( ( ) ^ ^ Q Q R R R ",
"s e p p j j j j u.l l B.l u.B.x i.i.i.N Z.c.S.S.A.b.*X%X%X&X>X:XPX=X,X,X0X4X4X4X6X2X5.6.6.4.4.1.1.<.<.<.<.( ( ( ) ) ^ ^ Q Q R R ",
"p p s s j j e.j e.e.e.u.u.i.V.l V.i.i.S.c.S.c.S.C.C.%X%X&X&X:X>X<X,X,XeX,X4XeX4X4X3X2X2X2X6.4.4.4.1.1.<.<.<.&.&.( ) ) / ^ Q R R ",
"s s p a j j e.e.e.r.u.u.u.u.u.V.i.V.i.V.Z.Z.S.S.S.A.A.:X:X:X:X<X<XjX<X,XeXeXeX4X6X6X6X3X3X6.4.4.4.1.4.1.1.<.&.&.( ) / / W Q Q Q ",
"a a a a j e.e.e.e.u.u.u.u.u.u.u.V.i.Z.Z.Z.Z.S.S.A.A.-X:X;X;X;X<XjX<XwXeXwXqXeXqXeX5X5X5X3X3X2X9.9.1.1.1.1.1.<.&.&.( ) / / W W R ",
"a a a a e.e.e.r.u.u.d.d.B.u.V.V.V.V.i.Z.Z.Z.|.A.A.A.-X;X;X<XhX;XjXjXPXPXPXwXeXqXqX5XqX5X7X7X7X9.8.8.4.4.4.1.1.<.<.%.%./ / W W W ",
"a a a w.w.e.e.u.u.d.d.B.u.B.u.V.V.i.V.Z./.Z.S.|.-X-X;X;XdXtX0 ,.=.=.yXPXyXyXwXqXqXqXqX8X8X7X7X8.8.8.4.4.4.1.1.1.*.&.%.%.W W W W ",
"a j k w.e.t.r.p.u.d.d.d.u.B.B.V.V.V.Z.V.Z.|.|.A.].].sX;XdXtX0 0.b T yXPXPXiXAXiXrXrXrXqX8X8X8X7X8.8.8.4.4.4.1.1.&.&.%.%.%.W W W ",
"w.a w.w.y.r.u.f.d.d.B.l.B.B.V.B.V.Z.Z.Z././.|.].-X-XdX;XhXtX! 0.0 0 wXAXPXAXAXiXiXiXpXrX8X8X8X8.8.8.8.9.4.4.4.1.1.&.&.%./ %.W W ",
"k w.w.y.t.t.f.d.d.d.l.j.B.V.B.V.V.V.R.Z./.|.|.].-XsXsXlXhXtX=.=.! =.iXGXAXAXAXAXiXpXpXpXpX8X8X8X8.8.8.8.4.4.4.7.1.2.*.%.} W } } ",
"w.w.e.r.r.r.f.s.h.j.k.k.k.F.P.M.M././././.|.`.].sXsXgXgXzXzXxXxXNXDXSXFXGXAXAXAXiXAXiXiXpXpX8X8X9X7X8.8.6.6.4.4.2.2.*.%.| | W } ",
"w.w.e.r.p.f.s.h.k.j.k.k.F.M.P.F.U.U.M././._.].].'.sXgXgXzXzXxXxXNXDXDXDXFXFXFXFXFXAXiXiXpXpXrX8X9X7X7X7X8.6.5.7.2.2.2.| | | } } ",
"r.e.r.r.f.f.h.h.k.j.B.F.F.F.P.P.U.U.U.(._._.|.].sXfXgXlXzXzXxXxXxXDXDXFXFXFXAXFXAXiXFXiXpXpXpX8X9X9X7X7X6.6.4.7.2.2.*.*.| | | } ",
"w.t.t.r.r.d.g.k.j.j.M.M.F.G.L.G.U.U.U./._.].`.'.fXfXlXlXzXVXNXxXHXDXHXJXFXFXFXFXFXFXiXiXiXpXrXrX8X9X7X7X8.6.6.7.7.2.2.....| } } ",
"t.t.t.p.s.h.h.h.D.j.F.F.M.I.K.P.Q.U.T.(._._.'.].'.fXbXbXzXVXNXNXHXJXJXJXJXFXFXFXFXAXAXiXiXpXrXrX8X8X9X3X8.6.5.4.3.3.;.2.*.| { } ",
"t.p.p.p.s.h.h.M.M.D.D.F.L.L.K.P.U.T.U.(._.).`.'.'.fXgXbXMXzXNXNXHXLXLXJXJXFXJXFXFXAXFXiXAXiXpXpX8X8X5X5X3X2X6.5.7.2.| ..| |  .{ ",
"t.a.p.p.h.h.M.M.m.D.D.L.L.I.K.W.Q.U.!.(._.).}.'.'.fXbXbXMXVXNXZXZXKXLXLXJXJXFXJXFXFXFXAXAXiXiXqXpX8X5X5X6X5.5.5.3.3.2.....| } { ",
"p.a.s.s.g.h.M.m.D.D.H.L.H.K.K.E.Q.I.!.(.(.{.`.}.}.vXbXVXMXVXZXZXZXKXLXLXJXJXJXJXFXFXFXFXAXiXyXqXqXqX6X6X6X2X2X5.5.;.;.;. ...{  .",
"p.p.s.s.g.M.m.m.m.J.m.J.J.J.E.E.Q.Y.!.(.(.{.`.}..X.XmXnXBXZXZXZXKXKXKXLXLXLXJXJXJXFXFXAXAXAXqXyXqXqXqX6X4X2X1X5.:.3.;. ... . .{ ",
"p.p.s.s.M.g.m.m.m.J.J.J.J.E.E.E.M.Q.Q.~.[.).{.}..XmXmXmXnXMXZXZXZXKXKXKXLXLXJXJXJXFXFXFXAXAXAXqXqXqX0X4X4X4X1X1X:.;.;... . . .X.",
"p.s.s.g.g.m.m.m.m.J.m.J.J.J.E.E.!.Q.!.~.~.).{.}..X.XmXmXnXMXZXZXCXKXKXKXLXLXLXJXJXJXFXFXGXGXGXyXuX0X0X4X4X1X5.:.:.:.;. .;. .X.X.",
"p.s.s.g.g.m.m.m.m.J.J.J.J.E.E.E.Q.Q.Q.~.~.{.{.}..X.X.XmXBXMXZXZXCXCXKXKXKXLXHXLXDXHXFXDXFXGXwXuXuX0X0X4X4X$X$X5.:.:.;.>.]  . .[ ",
"p.s.s.g.g.m.m.m.m.J.J.J.J.E.E.W.W.Q.Q.~.[.{.{.}..X.XmXmXmXBXBXZXCXCXKXKXKXKXLXLXLXDXDXFXSXGXPXwXuXuX,X4X4X$X5.#X>.;.>.;.-. .] ] ",
"s.s.s.g.g.m.m.m.m.J.J.J.J.J.E.E.W.Q.Q.~.~.[.{.}..X.X.XBXmXBXBXZXCXCXCXKXKXKXKXHXLXLXDXDXSXGXuXGX,X0X0X,X$X$X#X5.:.;.-. .X.X. .] ",
"p.s.g.g.m.m.m.m.m.J.J.J.J.E.E.E.W.Q.Q.~.[.[.{.}..X.X.XmXBXBXBXZXCXCXCXKXKXKXKXHXHXHXDXDXSXGXwXPXuX0X,X$X$X#X#X:.>.>.-.X.-.] ] ] ",
"p.s.g.g.m.m.m.m.J.m.J.J.J.J.E.W.W.W.Q.Q.[.[.{.{. X.XmXmXmXnXBXZXCXCXCXCXKXKXCXLXDXHXSXSXSXPXPXwX<X,X0X$X$X$X#X:.:.>.;.-.] ] ] ] ",
"s.s.s.g.g.m.m.m.m.m.J.J.J.E.E.E.W.^.Q.!.!.~.{.{. X.X.XmXmXBXBXZXBXCXCXCXCXKXNXHXHXxXSXSXSXcXwXcX<XtX,X,X$X#X>.:.>.-.>.] -.] ' ' ",
"p.s.s.s.g.g.m.m.m.m.m.J.J.J.J.E.W.^.Q.!.~.[.[.{. X X.X.XmXmXBXBXZXZXZXCXNXCXNXNXNXHXxXSXcXcXjX<X<X,X,X$X$X@X=X-.-.>.[ -.[ [ ' [ ",
"p.p.s.s.g.g.M.m.m.J.J.J.J.J.J.E.^.^.^.!.~.~.[.{. X X.XmXmXmXBXBXBXZXNXCXNXCXNXxXxXxXxXxXjXjX<XjX<X,X>X>X$X#X#X-.>.-.-.-.-.] ' ' ",
"p.p.s.s.g.g.M.M.m.m.m.J.J.J.J.E.^.^.^.!.!.~.[.{. X.X.X.XmXmXmXBXBXVXBXBXNXNXNXNXNXxXxXcXcXjXzX<X<X,X>X=X&X#X@X#X-.-.-.-.o.] ' ' ",
"p.p.p.p.s.g.g.M.m.D.D.H.m.J.J.J.^.^.^.^.!.~.[.{. X X.X.XmXmXmXBXBXMXMXVXVXNXVXNXxXxXcXhXtXzX<X<X<X>X>X&X@X#XOX-.-.-.@.@.o.o.' ' ",
"t.t.p.p.s.s.g.M.m.m.m.H.J.J.J.J.^.G.^.^.T.[.[.[.{. X.X.X.XmXmXmXnXMXMXMXMXVXVXzXVXzXzXcXhXhX<XdX<X:X>X=X@X@X@X-.-.-.@.@.o.' Z Z ",
"t.t.t.p.p.s.g.g.M.m.D.D.H.H.m.J.G.^.^.^.Y.!.[.[.{.{. X.X.XmXmXBXnXnXnXMXMXlXMXzXzXzXhXhXdXhXdX;X:X:X&X@X@X@X-.oX-.V o.V o.o.Z Z ",
"q.t.t.t.p.s.s.g.g.j.m.m.m.m.H.J.G.G.^.^.T.!.T.).{. X X X.XmXmX.XbXbXnXnXMXnXlXzXzXzXzXgXlX;XtX;X:X:X&X&X@X@XoX-.V -.-.o.B B Z Z ",
"w.w.w.t.t.a.s.s.g.j.j.m.D.D.D.L.G.G.G.^.^.T.T.[.).{.`.XX.XnX.XnXbXbXnXbXnXMXlXlXtXkXlXhXdXdX;X;X:X:X:X&XA.-.oXoX+.+.V o.B B Z Z ",
"w.w.t.t.t.a.a.s.h.g.k.j.D.B.D.F.G.G.G.^.^.T.T.[.).).`.XX.X.X.XkXbXbXbXbXlXlXlXlXlXkXdXdXdX;XaX;X:X%X&XC.-.oXoXoXN.V +.B B Z M M ",
"q.q.w.t.t.t.p.p.s.h.h.j.j.B.D.B.B.G.G.G.R.Y.T.(.[.).`.XXXX.X.XnXvXvXbXbXbXlXlXlXtXkXsXdXdXaX;X;X%X%X%X@X%X+XoXv.v.+.V B B M M M ",
"a q.w.w.w.t.t.p.s.s.h.j.j.B.B.B.G.G.G.G.^.R.T.T.).).`.XXXXXXkX.XkXkXkXkXkXkXlXkXkXsXdXdXaX-XA.;X-X%X%XC.+XC.oXv.+.V C B B M M m ",
"a w.w.w.w.t.t.p.p.d.d.j.j.j.B.B.B.G.G.G.G.Y.R.(.(.).).`.XX'.XXkX'.kX'.kXkXkXdXkXsXsXdXaXaX-X-X*X%X%X+X+XC.oXoXv.V C C B B M m M ",
"a a a q.q.q.t.t.r.d.d.d.j.j.j.B.B.B.B.G.P.R.R.R.(.).).`.`.'.XX'.kXkXkXkXkXkXkXsXsXsXsXaX-X-X-X-X%XA.C.C.C.oXv.v.V C C B m m v v ",
"a a a w.q.q.r.r.r.d.d.d.j.d.j.B.B.B.B.G.P.R.R.R.(._.).`.`.'.XX'.kXfX'.kXfXfXsXsXsXsXaXaXaX*XA.*X%XA.C.C.C.v.v.v.C V B m m m m v ",
"a a a a q.q.e.r.r.r.d.d.d.j.j.j.B.B.B.G.G.G.R.R.R._._.`.`.`.`.'.'.'.fXfXfX'.sXsX].aXaX-X-X].-X*XC.%XC.+XC.v.v.V C V B B m m v v "
};
