/* XPM */
static char *result[] = {
/* columns rows colors chars-per-pixel */
"32 32 104 2 ",
"   c #000000",
".  c #070805",
"X  c #0D0F09",
"o  c #0F110A",
"O  c #11130B",
"+  c #13190F",
"@  c #171B11",
"#  c #1B1D11",
"$  c #1D2114",
"%  c #282D17",
"&  c #252A19",
"*  c #292D1C",
"=  c #2D321D",
"-  c #343921",
";  c #3C3922",
":  c #66321F",
">  c #433923",
",  c #483A24",
"<  c #513420",
"1  c #593D27",
"2  c #613725",
"3  c #643D22",
"4  c #713E29",
"5  c #3C4424",
"6  c #404A27",
"7  c #40422B",
"8  c #434C29",
"9  c #4A542B",
"0  c #4D592C",
"q  c #525F2D",
"w  c #4D4D33",
"e  c #53602F",
"r  c #566330",
"t  c #586630",
"y  c #5A6832",
"u  c #646E2E",
"i  c #617134",
"p  c #657A35",
"a  c #687A36",
"s  c #6C7E38",
"d  c #4F5440",
"f  c #505542",
"g  c #6A7458",
"h  c #823D2B",
"j  c #9F3D2D",
"k  c #B73E2F",
"l  c #B83F30",
"z  c #6F8139",
"x  c #72853B",
"c  c #74883B",
"v  c #7D923F",
"b  c #738442",
"n  c #7F9440",
"m  c #7A8276",
"M  c #869F3E",
"N  c #849C42",
"B  c #889F43",
"V  c #87A043",
"C  c #8AA244",
"Z  c #8FA946",
"A  c #91AA47",
"S  c #93AE48",
"D  c #93B245",
"F  c #95B149",
"G  c #9AB54B",
"H  c #9DBA4C",
"J  c #99A354",
"K  c #A1BE4E",
"L  c #A4BE51",
"P  c #868F7B",
"I  c #A08C6A",
"U  c #98A76A",
"Y  c #9FB460",
"T  c #A9AA62",
"R  c #AFB364",
"E  c #B7BD67",
"W  c #B9AD72",
"Q  c #A5B771",
"!  c #A9B87C",
"~  c #BCB174",
"^  c #C0BC71",
"/  c #C6B77B",
"(  c #C6B979",
")  c #A3C14F",
"_  c #A5C450",
"`  c #C7C574",
"'  c #B3B5AF",
"]  c #D0BD83",
"[  c #B5C48D",
"{  c #D3C383",
"}  c #DACB86",
"|  c #DEC88C",
" . c #E3C296",
".. c #EBC49C",
"X. c #D4DCBA",
"o. c #FED7A7",
"O. c #FFD7A8",
"+. c #FFDAAC",
"@. c #C4C5C1",
"#. c #D9E2C1",
"$. c #E1E2DE",
"%. c #E2E3E0",
"&. c #EAE9ED",
"*. c #F8F7F9",
/* pixels */
"                                                                ",
"                                                                ",
"                                                                ",
"                                                                ",
"                                                                ",
"                # # $ # $ $ O                                   ",
"            . + - 9 q r q r 5 o o o o o o O O X                 ",
"            # > - a C B B C z 6 6 6 6 6 6 6 6 5 o               ",
"          $ 1 j > p C B B B C Z A A A A A A S N 5 X             ",
"          $ 4 k , p C M C B C F K _ H A S S H F 6 o             ",
"          $ 1 h ; u L [ b U Q B G B n Z Z A B s 5 O             ",
"          $ = - > r [ $.d ' #.Z G i i H H L n 5 - O             ",
"            + > j 3 P $.f ' #.C G F F H H K H N 5 O             ",
"            o , k : m *.@.&.#.Z G _ L H K H _ A 6 o             ",
"            O ; h < g X.#.#.[ C G K H ) K K _ S 6 O             ",
"            O = = = q C C C B C G H G Z A Z S B 5 O             ",
"              . . & q C B C B C Z G n 8 6 6 6 6 - O             ",
"                  . % t M T / { { } ] I 7 + o O O .             ",
"                o X @ - v W ..+.+.+.+...w X                     ",
"              . * 5 6 9 n W ..o.o.+.+. .w o                     ",
"              . = x S A C W ..o.+.o.+. .w o                     ",
"              . = 0 c S C J R `  ...} R 8 o                     ",
"              . # * 8 s B C D L ~ ( E Z 6 O                     ",
"                  $ = 5 v G G A S G K A 6 O                     ",
"                    + 5 n H v 6 6 z G A 6 X                     ",
"                    O 5 N x 5 O = s v q # .                     ",
"                    O 5 i 5 X . = t q @                         ",
"                    O = * O   . & = $                           ",
"                      . .       . . .                           ",
"                                                                ",
"                                                                ",
"                                                                "
};
