/* XPM */
static char *f41891f51cbf45b4e306da9418126fb0VJsxM6LGLKGsvV8e[] = {
/* columns rows colors chars-per-pixel */
"64 64 252 2 ",
"   c #0E0E19",
".  c #0E101E",
"X  c #0E1223",
"o  c #0E142B",
"O  c #161A27",
"+  c #0E1B36",
"@  c #121D34",
"#  c #0E0F22",
"$  c #241D25",
"%  c #341E20",
"&  c #172538",
"*  c #142136",
"=  c #382527",
"-  c #272A36",
";  c #2F2930",
":  c #2B1C1E",
">  c #691B0C",
",  c #771E0A",
"<  c #701E10",
"1  c #7C230C",
"2  c #79270D",
"3  c #722F16",
"4  c #472929",
"5  c #523331",
"6  c #6B392B",
"7  c #5E2113",
"8  c #714438",
"9  c #706F1B",
"0  c #0D2748",
"q  c #172C45",
"w  c #0E2C55",
"e  c #0E3359",
"r  c #173A57",
"t  c #17334D",
"y  c #293548",
"u  c #303A4B",
"i  c #0E3967",
"p  c #0B3C77",
"a  c #10396C",
"s  c #0F1F41",
"d  c #4D3E42",
"f  c #314359",
"g  c #164669",
"h  c #0E4479",
"j  c #124978",
"k  c #164D75",
"l  c #2F526E",
"z  c #305772",
"x  c #514951",
"c  c #6F5453",
"v  c #4D5768",
"b  c #6A5D62",
"n  c #745E61",
"m  c #4F6479",
"M  c #776568",
"N  c #786D74",
"B  c #706C75",
"V  c #7E615D",
"C  c #862A0D",
"Z  c #98360E",
"A  c #8A3716",
"S  c #973811",
"D  c #8F300E",
"F  c #A23C10",
"G  c #A43C0E",
"H  c #803D22",
"J  c #9B4419",
"K  c #A94814",
"L  c #B34D13",
"P  c #B9551A",
"I  c #AA4510",
"U  c #914C2D",
"Y  c #B85B25",
"T  c #A8562B",
"R  c #BA6738",
"E  c #BB612C",
"W  c #C25B1C",
"Q  c #C86629",
"!  c #C76C36",
"~  c #D47539",
"^  c #CE7136",
"/  c #C45F21",
"(  c #8B5847",
")  c #88645A",
"_  c #976A59",
"`  c #9B6955",
"'  c #AA6A4A",
"]  c #B66D45",
"[  c #B9734B",
"{  c #A87258",
"}  c #B77857",
"|  c #A36C54",
" . c #876A66",
".. c #997468",
"X. c #887779",
"o. c #93736D",
"O. c #A77865",
"+. c #AC7C69",
"@. c #C87746",
"#. c #D57C45",
"$. c #C47B53",
"%. c #8F8E27",
"&. c #A3A330",
"*. c #FAF63D",
"=. c #B98368",
"-. c #B78A77",
";. c #A98477",
":. c #9A8670",
">. c #D9834C",
",. c #D88858",
"<. c #CF875D",
"1. c #C88967",
"2. c #DA946A",
"3. c #CA9478",
"4. c #D99C77",
"5. c #D08D68",
"6. c #E1A27A",
"7. c #DF9F77",
"8. c #E7E655",
"9. c #0D4986",
"0. c #114A88",
"q. c #0D548B",
"w. c #0E5797",
"e. c #115699",
"r. c #14568A",
"t. c #156597",
"y. c #306B90",
"u. c #0D5DA3",
"i. c #105EA2",
"p. c #0D64AB",
"a. c #0D68A8",
"s. c #1166A7",
"d. c #0D6CB4",
"f. c #106CB3",
"g. c #0D76B9",
"h. c #1377B7",
"j. c #1775AB",
"k. c #2E7CA8",
"l. c #215B80",
"z. c #4E738E",
"x. c #797A85",
"c. c #68798C",
"v. c #437DA2",
"b. c #0D7BC4",
"n. c #1079C2",
"m. c #857D85",
"M. c #1181BD",
"N. c #3185B5",
"B. c #788696",
"V. c #4E8CB2",
"C. c #7295AF",
"Z. c #638BA8",
"A. c #0D84C9",
"S. c #1389C7",
"D. c #1893CD",
"F. c #0D8AD4",
"G. c #0E93DB",
"H. c #1597D9",
"J. c #118DD2",
"K. c #2795CC",
"L. c #279BD5",
"P. c #3496CC",
"I. c #29A3DC",
"U. c #39A7D8",
"Y. c #3AA1CE",
"T. c #169CE1",
"R. c #1CA1E4",
"E. c #26A6E3",
"W. c #35ADE3",
"Q. c #3BB1E5",
"!. c #1FA0DC",
"~. c #4B9AC5",
"^. c #47ABD7",
"/. c #57B4DB",
"(. c #51AAD3",
"). c #67B9DB",
"_. c #78BAD9",
"`. c #71AACA",
"'. c #48B6E5",
"]. c #59BCE5",
"[. c #6ABFE3",
"{. c #679FC2",
"}. c #69C2E7",
"|. c #79C6E7",
" X c #70C0E1",
".X c #87838A",
"XX c #988687",
"oX c #878A96",
"OX c #959299",
"+X c #AF958E",
"@X c #B7A19C",
"#X c #8897A7",
"$X c #969BA6",
"%X c #839BB0",
"&X c #A59CA2",
"*X c #87A5BB",
"=X c #97A8B7",
"-X c #9AA6B2",
";X c #A7A5A9",
":X c #B7A9A8",
">X c #AFB0B7",
",X c #C79985",
"<X c #D19E81",
"1X c #D9A588",
"2X c #C9A798",
"3X c #D7AC95",
"4X c #D3AB95",
"5X c #E2AA87",
"6X c #E3B498",
"7X c #E2AF92",
"8X c #C9B3AA",
"9X c #D8B8A8",
"0X c #C7B9B6",
"qX c #CCB3AA",
"wX c #E2BCA6",
"eX c #DBC4B8",
"rX c #CDC0BC",
"tX c #E1C5B6",
"yX c #E3C2AD",
"uX c #88ACC4",
"iX c #88B4CC",
"pX c #97B5C7",
"aX c #86BBD5",
"sX c #96BCD6",
"dX c #A7B8C6",
"fX c #B7BAC4",
"gX c #89C4DB",
"hX c #99C5DA",
"jX c #A8C7D8",
"kX c #B8CBD8",
"lX c #B9C5D1",
"zX c #87CBE8",
"xX c #96CCE4",
"cX c #99D3EB",
"vX c #94D3EF",
"bX c #A8D7EA",
"nX c #B7D8E7",
"mX c #A8DCF1",
"MX c #ACD5E9",
"NX c #B9E2F2",
"BX c #B1E0EE",
"VX c #CBC5C6",
"CX c #DACBC6",
"ZX c #C6CCD5",
"AX c #C9D3DC",
"SX c #D8D6D7",
"DX c #DAD0CE",
"FX c #C8DBE6",
"GX c #D5DCE3",
"HX c #C8E2ED",
"JX c #D1E2E9",
"KX c #C3BEC4",
/* pixels */
"        . . . X X X X O X X O O o $ # # $ $ $ $ : : % % % 4 4 4 7 4 7 7 5 7 3 < 2 2 2 2 2 2 2 2 1 1 1 1 , C , , , , > > > > > > ",
"        . . X . X X X X O O O O $ o $ $ $ $ $ $ : % % % % 4 4 4 4 7 5 7 < 6 3 3 3 3 2 2 2 2 2 C 1 C 1 1 , C , , , , , > > > > > ",
"        . . X X X X O O O O O O @ $ $ $ $ $ $ $ $ % % = 4 4 4 5 5 7 6 6 6 6 6 3 3 2 C 2 2 2 2 2 1 C C C C C C C C , , > > > > > ",
"        . X X X o O O @ * O O O $ o $ @ $ $ - % ; = = 4 4 4 5 5 6 5 5 6 6 3 6 3 3 A 3 2 C C A C C C C C C C C C C , , , > > > > ",
"      # # X o o O O O O * & O O $ $ - $ - $ ; ; = = ; 4 5 5 5 5 5 6 6 6 6 3 H H A A A A A D D A C D D D C C C C C C C < < < < < ",
"    # # X o o @ O * * & & O & - @ - - - - - ; = ; ; 5 ; 4 d 5 d 8 6 6 6 6 6 H H H H A A D A A D D D D Z D D D D C C C 1 , 1 < , ",
". # # X o o o @ * * & & & & & & s ; - - - ; 4 y d 4 d 4 d d 5 8 8 8 6 8 U 6 U H A J U A S S S D Z Z Z Z Z Z D D D C C C C 2 C 1 ",
"# X X o o + @ + * * & & & q & - y - - ; y - - ; y 4 5 d 5 d 8 d d 8 c 8 8 8 U U U H J A J S J S Z G S Z Z Z G D Z D D C A C C 1 ",
"X o o o + + * * * * & t & t & t y y y 4 y u u d u d d 5 d d 8 d c 8 U c U ( U U U U S J J J F J G G G G G G G G Z Z D D D D C C ",
"o o o + + * 0 * 0 0 * e e & t t s y y y y u u d d d d x c x c c c c c ( ( ( ( U U U J T J J K K I I I G G G G G F F Z Z D D C C ",
"o + + + + 0 & 0 0 & e & t t y t y y u u u u d u d d x x x c c c c c ( ( ( ` ( ( ( T T T T K K K I I G I G I G I G G G Z Z D Z D ",
"o + + + + 0 0 0 0 e t t t t t f u u f u d f f x f x x x c c n n ) n ( ( ( ( ' U T U T T T K T L L L L L L L L I G G F F J J Z D ",
"+ + + + 0 0 0 0 t t r t r r f r f f f f f f f f x x b x b c b n ) V ) ) ` ` ` ' ' T T T T Y P T L P L L L L L L I I I I I Z J D ",
"+ + 0 + * 0 e 0 e t e r r r r f f f a f v f v v v v b b b b n M  .)  ..._ _ ` ' ' ' ' R T Y Y Y P P P P W L L L L I I K I Z J J ",
"+ + + 0 * e & e e r r g r f f g f f f v f v v v v v v b n m. .m. .o.o.....{ { | | ] ] R R E E E Y W W W W L P P L L K K I J I J ",
"s + 0 0 t e e r e e r r g g g f a v a f l v v v b m b N M M m.m.X.o.o...O.O.O.{ } [ ] R R ! E Q / / W W W W W W L L L K K I I I ",
"0 0 0 w w w w i e g g g g g k z l l z z m m v m v b x.b x.M m.m.m.+.m.+.+.+.+.} } } [ [ @.! ! Q Q Q / / W W W W W W L L L I I K ",
"0 0 0 w w w i i i g g g g g k z l z z z z m m m z.b c.x.x.m.m.m.m.m.,X+.+X+.1.+.+.$.} [ @.@.! ! ! Q Q Q Q W Q Q W W W W L I L K ",
"w w w w w i i i g g k k k k z k z z z z m m m m z.x.c.x.m.m.m.m.m.+X+Xm.+X+.-.+.1.1.$.$.$.@.#.#.^ ^ ^ ^ Q Q Q W W W W W P L L K ",
"0 w w w i i i i k k k k k k z z z z z m m m m m c.c.x.m.m.m.m.m.,Xm.m.+X+X,X-.-.-.1.1.<.$.@.$.#.~ ~ ^ ^ ~ Q ~ W Q W W W P T P L ",
"w w w e e i i h k k k k k z t.k y.z z z.y.m Z.m c.c.%Xm.m.m.OXOX&Xm.2X@X+X,X,X,X3.3.1.1.5.#.#.#.~ ~ ~ ~ ~ ~ ~ Q Q Q Y W P P P T ",
"w e e e i p g h k k q.k k t.z z y.m y.m Z.m z.B.c.m.c.#X$XOXOX$X&X&X+X@X+X,X,X,X3.3.3.5.2.$.,.#.>.>.>.~ ~ ~ ~ ~ Q Q Q / Y Y P P ",
"i i e i g h h h k k k k M.z z y.y.z y.y.z.z.Z.m c.c.m.m.#XOX$X&X0Xm.@X@X@X2X,X,X,X<X3.5.5.,.2.,.>.>.>.>.~ ~ ~ ~ ^ Q Q Q Y / Y T ",
"a w i i h h h h t.k k M.k t.M.z y.y.y.m V.z.Z.Z.C.c.%X#X$X$X&X;X>X:X:X:X8X2X2X2X1X,X<X4.2.2.2.#.,.>.>.>.>.~ ~ ~ ~ ^ ! Q E E Y Y ",
"i i a a h h q.h q.q.q.t.t.y.N.k N.y.y.Z.z.Z.z.Z.B.B.#X#X$X$X-X-X:X>X:XqXqX:X2X3X2X4X1X<X<X4.2.2.2.,.,.>.>.>.#.#.~ ^ ! ! Q E Y Y ",
"a a i p h h q.q.q.w.t.t.t.t.t.N.y.N.y.N.V.V.Z.Z.Z.C.%X#X-X-X-X>X>X>X>X:XqXqXqXqX3X2X4X<X1X7.7.2.2.,.2.,.,.>.#.#.~ ^ ! ! R E E E ",
"p p p p h q.q.q.q.t.t.t.t.t.t.t.N.y.V.V.V.V.Z.Z.C.C.*X-X=X>X>X>XfX>X0X0X0XqXqX3X3X3X3X3X1X1X<X7.2.2.,.,.,.,.>.#.~ ~ ! ! ! R E E ",
"p p p p q.q.q.w.t.t.a.a.M.t.N.N.N.N.y.V.V.V.{.C.C.C.*X=X=X=XdXdXfXfXKX0XrXrX9XqX9X9X3X3X5X5X5X7.7.7.2.2.2.,.,.>.>.#.@.@.! R R R ",
"p p p 0.0.q.q.t.t.a.a.M.t.M.t.N.N.y.N.V.~.V.Z.{.`.*X*X=XpX&.9 8.8.8.8.rXKXeX0X9X9X9X9X7X6X5X6X6.6.6.2.2.2.,.,.,.#.#.@.@.R ! R R ",
"p h j 0.q.e.w.u.t.a.a.a.t.M.M.N.N.N.V.N.V.{.{.C.`.*XpX=XjX&.9 %.%.&.%.KXCXeXeXeXtXwXwX9X6X6X5X5X6.6.7.7.2.2.,.,.$.#.@.@.! ] R R ",
"0.p 0.0.r.w.t.s.a.a.M.j.M.M.N.M.N.V.V.V.~.~.{.`.*XiX=XpXdX&.%.%.' &.8.CXCXCXCXeXtXyXyXwX6X6X6X6.6.6.6.2.2.2.2.,.,.#.@.@.@.] R R ",
"j 0.0.r.e.e.s.a.a.a.j.g.M.N.M.N.N.N.Y.V.~.{.{.`.`.=XgXpXjX8.*.%.*.*.6.DXKXCXCXeXtXyXyXyXwXwX6X6X6.6.6.6.2.2.2.5.,.<.@.@.@.R ] ] ",
"9.0.0.q.w.w.s.f.f.g.h.M.h.n.n.K.k.P.n.~.~.(.`.`.`.iXsXsXjXjXkXkXlXkXZXSXDXCXCXDXtXtXtXyXyXyX6X6X6X5X6.6.6.4.2.5.<.<.<.] [ R [ R ",
"0.0.w.w.s.u.a.f.f.g.h.h.S.S.K.n.P.P.(.~.(.{.(.`.aXiXsXsXjXjXkXkXkXZXZXAXSXSXDXDXDXDXDXtXyXyXyX6X5X5X5X5X4.4.2.5.<.<.>.[ [ [ ] ] ",
"q.w.w.w.u.s.f.f.g.h.n.S.S.D.K.K.P.P.^.~.~.`.`.`.aXaXgXjXjXjXkXnXnXAXFXSXSXSXSXDXDXtXtXtXyXyXyX6X6X5X5X5X4.4.4.5.<.<.<.<.[ [ [ ] ",
"0.w.w.w.s.s.f.f.g.M.h.S.S.S.J.K.L.P.P.~.(.(.).`._.aXhXjXjXjXkXnXAXAXFXGXSXSXSXSXSXDXDXtXtXyXwX6X6X7X7X5X4.4.4.2.5.<.=.[ =.[ [ ] ",
"e.e.e.u.p.p.f.d.g.n.A.S.S.K.H.L.I.U.^.~.(.`.).).aXaXxXxXjXbXnXnXFXAXGXGXGXSXSXSXDXDXDXDXtXyXyX6X6X6X7X1X6.4.3.5.1.<.<.R [ [ ' ] ",
"e.u.u.u.p.f.h.n.A.A.A.S.J.J.L.J.n.'.I.^.(./.)._._.aXsXxXjXMXnXnXBXJXJXJXGXGXSXSXSXDXDXtXtXtXeX9XwX6X7X1X4X<X4.3.1.<.=.=.[ [ [ ' ",
"e.i.u.u.f.f.n.n.b.A.A.J.J.H.L.T.n.P.U.^.^.].[._._.sXxXxXjXbXnXBXHXFXJXJXGXGXGXSXSXSXDXDXCXtXyX9XwX3X3X4X4X4.3.3.=.1.>.{ R =.| ' ",
"i.u.p.p.f.f.n.n.A.A.F.J.F.H.G.T.Q.I.E.^.^./.).[.[.zXzXMXbXBXBXBXHXHXJXJXGXGXGXGXSXSXSXDXCXCXeXyX9X6X9X4X1X,X,X3.3.=.=.=.=.{ { ' ",
"u.u.p.p.d.n.n.b.b.G.b.G.G.G.T.T.E.W.W.^.^./.).[.|.|.vXcXmXBXBXBXBXHXHXJXJXJXGXGXSXSXSXDXCXeXeXeXyXqX4X4X4X,X,X3.3.=.=.{ { [ | ' ",
"u.u.p.p.d.n.b.b.G.b.G.G.G.G.T.T.E.E.W.Q.'.'.].[.|.vXvXvXcXbXBXBXNXHXHXHXJXJXJXGXGXSXSXSXDXCXrXeX8XyXqX2X2X2X,X3.-.=.=.=.{ { | | ",
"u.p.p.d.d.b.b.b.b.G.b.G.G.G.T.T.b.E.W.Q.Q.].]._.|.|.vXvXcXbXBXBXNXNXHXHXJXJXJXGXJXSXSXSXDXVXeXrXrX8X8X2X2X,X,X,X-.-.=.} :.{ { | ",
"u.p.p.d.d.b.b.b.b.G.G.G.T.T.T.T.E.W.E.Q.'.'.].[.|.|.|.vXmXbXBXBXNXNXHXHXHXJXJXJXAXFXSXAXDXVXrXeXrX8X8X2X2X@X+X3.-.-.=.:.{ { { ` ",
"u.p.d.d.d.b.b.b.b.G.G.G.G.T.T.T.R.E.E.Q.Q.].].[.|.|.vXvXvXmXmXBXNXHXHXHXHXHXJXFXJXAXGXZXZXCXVX0X8X8X8X@X@X,X+X+X-.;.;.O.{ { _ _ ",
"p.p.p.d.d.b.b.b.b.G.G.G.G.T.T.T.R.E.E.W.'.'.].[.|.|.|.mXvXmXmXBXNXNXNXHXHXHXFXJXJXJXAXAXZXVXVXVXrX:X8X2X2X2X+X3.-.=.;.O.O._ { _ ",
"u.p.p.d.b.b.b.b.b.G.G.G.G.T.T.T.R.E.E.Q.'.'.].[.|.|.|.vXmXmXmXBXNXNXNXHXHXHXHXFXFXFXAXAXZXVXKX0XrX:X:X:X@X+X+X-.-.;.O.{ _ .._ _ ",
"u.p.d.d.b.b.b.b.G.b.G.G.G.G.T.T.R.E.E.W.Q.'.].].}.|.vXvXvXcXmXBXNXNXNXNXNXHXHXHXFXAXZXZXZXKXKX0X:XrX:X@X@X@X+X+X;.;.:.{ :._ _ _ ",
"p.p.p.d.d.b.b.b.b.b.G.G.G.T.T.T.R.!.E.W.W.Q.].].}.|.|.vXvXmXmXBXBXBXNXNXBXHXnXFXAXnXAXZXlXlXfXfX0X>X:X:X@X+X+X+X;.:.+.o..._ _ ) ",
"u.p.p.p.d.d.b.b.b.b.b.G.G.G.G.T.R.!.E.W.Q.'.'.].}.}.|.|.vXvXmXmXmXBXBXBXBXHXnXnXnXAXkXlXlXVXfXfX>X:X:X:X&X+XOX:.;.;.;....._  ._ ",
"u.u.p.p.d.d.n.b.b.G.G.G.G.G.G.T.!.!.!.W.Q.Q.'.].}.}.|.vXvXvXmXmXmXnXnXBXnXBXnXkXAXkXkXkXVXfXfXfX>X;X;X;X@X+XOX+X:.;.o..... . .) ",
"u.u.p.p.d.d.n.n.b.b.b.G.G.G.G.T.!.!.!.W.W.Q.'.].}.|.|.|.vXvXvXmXbXmXBXBXBXnXbXnXnXkXkXlXlXdXfX>X>X;X;X@X&X&X:.:.XX:.o.o. ._ ) ) ",
"u.u.u.u.p.d.d.n.b.A.A.F.b.G.G.G.!.!.!.!.U.Q.'.'.}.}.|.|.vXvXvXmXmXbXbXbXbXnXjXnXkXkXjXlXlXdXdX>X>X;X;XOXOX+X:.OXXXo.X.o._  . .) ",
"e.e.u.u.p.p.d.n.b.b.b.F.G.G.G.G.D.!.!.!.W.'.'.'.].}.|.|.|.vXvXvXbXbXbXbXbXbXbXkXjXjXlXjXdX>X>XpX=X;X;X;XOXOXOXoXo.X.o. . . .) ) ",
"e.e.e.u.u.p.d.d.n.b.A.A.F.F.b.G.D.!.!.!.I.W.'./.].].}.|.|.vXvXmXbXcXcXbXbXbXhXjXjXjXjXdXdXpXpX=X-X-X;XOXOX:.OX:.XXX.X. . . .V n ",
"9.e.e.e.u.p.p.d.d.g.b.b.b.b.F.G.D.D.!.!.U.U.'.'.].}.}.}.|.vXvX|.xXxXcXcXbXhXbXjXhXjXjXpXdXdXpX=X-X;X$X#XOXOXoX:.XXX. . . .M ) n ",
"0.e.0.e.e.i.p.p.d.g.g.A.A.A.A.J.D.D.D.!.!.U.U.'./.]. X X|.|.|.cXxXxXxXcXcXhXbXhXhXdXpXdXpX=X=X=X-X-X$XOX#X:.B.:.X.X.X.N M ) V n ",
"0.0.0.e.e.i.i.p.f.d.h.g.g.S.A.S.D.D.D.!.!.U.U.'.]./.). X|.|.gXgXzXxXxXcXhXxXhXhXhXhXhXpXpXpX=X*X%X$X#X#X#XB..X.XX.X.N  .M M n n ",
"9.9.0.e.e.e.u.u.p.f.f.g.g.A.A.M.D.D.D.D.Y.I.U.^.'./.).).|.|.gXgXgXzXxXxXhXhXhXhXhXpXpXpXpX=XuX-X#X$X#XoXoXoX.Xx.N X.N M M M n n ",
"p 9.0.0.0.e.e.u.p.p.f.g.g.g.M.M.M.D.D.D.!.Y.Y.U././.). X|.|.|.|.gXgXgXgXgXgXhXgXgXpXiXpX*X*X*X*X-XC.#XoXB..X.X.Xx.N N M M n n n ",
"p p 9.0.e.e.e.e.a.a.a.a.g.g.M.M.M.D.D.D.D.I.Y.^.^././.). X XgX XgXgXgXgXgXgXpXgXiXiXiXuXuX=X=XC.#X#XoXB.B..Xx.x.N N B M n n b b ",
"p 9.p 9.9.0.e.e.w.a.a.a.g.g.g.M.M.M.M.D.K.Y.Y.Y.^././.).)._. XgX_.aXgXgXgXgXgXiXiXiXuXuXuXuXC.-XC.#X#XB.B..Xx.x.N N B b b b b c ",
"p p p 0.9.9.w.w.w.a.a.a.a.g.M.g.M.M.D.M.D.Y.Y.Y.(.(./.).)._._. X_.gX_.gXaXaXiXiXiXiXuX*X`.%X%XC.C.#XB.B.B.x.x.x.N N B b b b b c ",
"p p p p 9.9.9.q.u.w.a.a.g.a.g.M.M.M.M.D.D.K.Y.Y.Y.(.(./.).).)._._._.aX_.aXaXiXiXiXuXuX*X*X*X*XC.#XB.B.B.B.x.x.B N B M b b b b c "
};
