/* XPM */
static char *Spr1694542249[] = {
/* columns rows colors chars-per-pixel */
"32 32 235 2 ",
"   c #0E0E19",
".  c #0E101E",
"X  c #0E1224",
"o  c #0D142B",
"O  c #161A28",
"+  c #0E1A38",
"@  c #10192F",
"#  c #0E223E",
"$  c #192436",
"%  c #1F212E",
"&  c #29242B",
"*  c #372426",
"=  c #272936",
"-  c #383037",
";  c #281B21",
":  c #6A1C0D",
">  c #781F0C",
",  c #7C240B",
"<  c #73270D",
"1  c #722F15",
"2  c #472A2B",
"3  c #54322F",
"4  c #68362A",
"5  c #713B29",
"6  c #5D170B",
"7  c #5E413D",
"8  c #734537",
"9  c #0D2748",
"0  c #162B46",
"q  c #18344D",
"w  c #0E2B55",
"e  c #0E345A",
"r  c #163A57",
"t  c #2D394C",
"y  c #0D3A67",
"u  c #0B3C77",
"i  c #483D42",
"p  c #1C415B",
"a  c #394458",
"s  c #0D4577",
"d  c #124876",
"f  c #1A537A",
"g  c #14456A",
"h  c #264966",
"j  c #33556F",
"k  c #504A53",
"l  c #6A575A",
"z  c #714F4B",
"x  c #7D615E",
"c  c #505869",
"v  c #6C5D62",
"b  c #745F61",
"n  c #546578",
"m  c #776569",
"M  c #79747B",
"N  c #6F6870",
"B  c #86290D",
"V  c #922F0F",
"C  c #97360D",
"Z  c #893514",
"A  c #963A13",
"S  c #8A2F0E",
"D  c #A43C0E",
"F  c #A53D10",
"G  c #9F4315",
"H  c #AA440F",
"J  c #AC4A14",
"K  c #A54514",
"L  c #B44D14",
"P  c #B95619",
"I  c #B0470E",
"U  c #934B2B",
"Y  c #B85B25",
"T  c #A9562B",
"R  c #BA6939",
"E  c #BF642E",
"W  c #C45C1C",
"Q  c #C15E23",
"!  c #C96628",
"~  c #C86C35",
"^  c #D3753A",
"/  c #CA7039",
"(  c #865748",
")  c #985A43",
"_  c #8B665C",
"`  c #996C5A",
"'  c #A76749",
"]  c #B46E49",
"[  c #A7735B",
"{  c #B37451",
"}  c #846A66",
"|  c #8B726D",
" . c #917571",
".. c #A67A67",
"X. c #B67E63",
"o. c #D67C45",
"O. c #C47D56",
"+. c #CB7849",
"@. c #B1AF2C",
"#. c #93912D",
"$. c #9E807A",
"%. c #A98376",
"&. c #B88A76",
"*. c #D9834D",
"=. c #D88958",
"-. c #D0885D",
";. c #C88A68",
":. c #DA956A",
">. c #D79976",
",. c #CD906F",
"<. c #DDA079",
"1. c #E0A17C",
"2. c #0E4987",
"3. c #114A88",
"4. c #0E548B",
"5. c #0D5898",
"6. c #115599",
"7. c #145885",
"8. c #166494",
"9. c #376687",
"0. c #3A7498",
"q. c #246B95",
"w. c #0D5DA4",
"e. c #105DA1",
"r. c #0D64AB",
"t. c #0E69A7",
"y. c #1165A8",
"u. c #0D6BB4",
"i. c #106EB4",
"p. c #0D76BA",
"a. c #1376B5",
"s. c #1576AB",
"d. c #277AAA",
"f. c #265E83",
"g. c #567791",
"h. c #727786",
"j. c #0D7DC5",
"k. c #1078C1",
"l. c #847D86",
"z. c #2D85B8",
"x. c #0D81BE",
"c. c #7A8797",
"v. c #78808B",
"b. c #4A8BB1",
"n. c #7194AD",
"m. c #7CA2B9",
"M. c #0D86C9",
"N. c #1587C6",
"B. c #1894CF",
"V. c #0D8BD5",
"C. c #138ED0",
"Z. c #0D92DC",
"A. c #1698D9",
"S. c #2B98D0",
"D. c #28A2DD",
"F. c #38A9DB",
"G. c #37A0CF",
"H. c #159DE1",
"J. c #1DA2E4",
"K. c #27A7E3",
"L. c #35ADE5",
"P. c #3CB3E8",
"I. c #489AC7",
"U. c #47ABD8",
"Y. c #56B4DB",
"T. c #55ABD2",
"R. c #6AB7DA",
"E. c #77BDDB",
"W. c #6CA7C8",
"Q. c #48B6E3",
"!. c #57BCE8",
"~. c #65BFE4",
"^. c #7AC1DF",
"/. c #66C2E8",
"(. c #78C6E7",
"). c #888C97",
"_. c #958B8F",
"`. c #A78D88",
"'. c #B39790",
"]. c #8997A6",
"[. c #989AA4",
"{. c #A19FA4",
"}. c #87A3B9",
"|. c #9AA8B6",
" X c #93A1AE",
".X c #B9A9A7",
"XX c #B8B5B5",
"oX c #AAA9B1",
"OX c #ACA38C",
"+X c #C69884",
"@X c #D9A586",
"#X c #C9A798",
"$X c #D6AB95",
"%X c #C7B18C",
"&X c #E3B497",
"*X c #E3AC8B",
"=X c #C9B6AD",
"-X c #D8B8A6",
";X c #CAB6AE",
":X c #E2BDA8",
">X c #BCC78B",
",X c #DBC4B8",
"<X c #C8C4BF",
"1X c #E1C6B7",
"2X c #D4D18C",
"3X c #88ACC4",
"4X c #87B4CB",
"5X c #96B4C7",
"6X c #85BAD5",
"7X c #96B7D3",
"8X c #A5BBC9",
"9X c #B6B9C2",
"0X c #C4BEC0",
"qX c #88C4DB",
"wX c #98C4DA",
"eX c #B3C8D5",
"rX c #B2CAD6",
"tX c #85CAE7",
"yX c #96CCE7",
"uX c #99D3EA",
"iX c #92D3EE",
"pX c #A7D6EA",
"aX c #B7DAE9",
"sX c #A9D8ED",
"dX c #AEE0EF",
"fX c #BBE2F2",
"gX c #B0E1EF",
"hX c #D9CCC8",
"jX c #CCD5DA",
"kX c #D8D6D8",
"lX c #CDCBD1",
"zX c #C7DAE6",
"xX c #D3DDE5",
"cX c #CAE2EC",
"vX c #CEE1EA",
/* pixels */
"    . . X X O O O O ; ; ; * * 2 3 6 3 < < < , , , , > > > : : 6 ",
"    X X X O O O % % ; ; * * 2 3 4 4 4 1 1 Z S , B B B B > > : : ",
"  . X o @ @ $ $ & & & * * 2 i 3 3 4 5 Z 1 Z Z V S V V V B B > > ",
". X @ + # $ $ $ 0 = = - - 2 i 7 z 8 8 U U A A A A A C C V B B , ",
"X o @ # # 9 $ q t t t t i i i z z ( ( U U G A K G D D D C C S B ",
"@ # # 9 0 q q q t t t i k k l l z ( ( ) T T T K I I I I F D C C ",
"+ # 9 9 e q p p t h a k k l v m } _ ` ' ' T Y Y P L L L I H G C ",
"+ # 9 w r r p h h h c c c n N } |  ...[ { ] R E Q W W P L J K H ",
"9 9 w y g g g h j j n n n N M l.l.%.%.%.X.] / ~ ! ! ! W W P I J ",
"w w e y g d d f j j n n h.h.v._.`.`.&.&.&.;.+.+.^ ~ ! ! W W P L ",
"w e y s d f f f.9.9.0.v.v.v.).[.'.'.'.,.,.;.-.*.o.^ ^ ! ! Q P P ",
"y e s s 7.f 8.q.q.j g.b.c.).].{.oX.X.X%X>.>.:.=.*.*.o.^ ~ E E Y ",
"y y s 4.4.8.8.q.0.b.b.b.c.]. XoXoXXX;X#X$X@X>.:.:.=.*.^ ^ ~ E Y ",
"u u 2.4.5.t.8.s.q.b.b.n.m. X|.8X0X;X;X;X-X$X@X<.:.:.=.*.o./ E R ",
"s s 4.5.t.t.s.z.z.b.b.n.m.5X$.#.@.%X0X:X&X:X&X*X1.:.:.=.*.+.R R ",
"2.3.6.y.t.s.x.z.z.b.T.W.m.7X>X@.@.2XkXhX1X1X&X&X1.1.>.-.*.+.+.R ",
"2.6.e.y.a.p.N.N.S.I.T.W.4X7XeXrXxXkXlXhXhX1X:X&X*X1.>.:.;.+.] ] ",
"4.5.y.i.p.k.N.B.S.I.T.W.6XwXrXaXzXxXkXkXhX1X1X:X&X*X>.>.;.O.+.] ",
"6.w.r.p.k.C.C.S.S.I.T.R.6XyXrXaXvXxXkXkXkXhX1X:X&X$X@X,.;.O.{ ] ",
"w.w.u.k.N.C.V.A.D.F.Y.~.qXyXpXgXcXxXxXxXkXhXhX,X&X&X@X,.;.&.{ ' ",
"w.w.u.j.j.Z.Z.H.D.L.Y.~.(.uXdXgXfXcXvXxXkXkXhX:X-X#X#X,.;.X.[ ' ",
"w.u.k.j.V.V.H.H.D.L.Q.~.(.iXpXdXfXcXvXxXxXjXkX;X;X#X#X+X&...[ [ ",
"w.u.k.j.V.Z.H.H.J.L.Q.!.(.iXdXdXfXcXcXvXxXjXlX<X;XXX%X'.%.%.[ ` ",
"w.u.k.j.V.Z.Z.H.J.K.Q.~./.iXiXdXfXfXfXzXzXjXlXXX=X.X'.'.%...` ` ",
"w.u.k.k.j.Z.Z.Z.J.K.Q.!./.iXiXdXgXfXfXzXjXlXeXXXXX.X{.`.%...` _ ",
"w.r.u.k.j.V.Z.Z.A.K.P.Q./.(.iXdXsXsXaXaXrXeXeXeXoX{.OX`.$. .} _ ",
"w.w.r.k.j.M.Z.Z.A.K.F.Q./.(.iXuXpXsXpXrXrXeX9XoXoX{._.$. .| } _ ",
"5.5.w.u.p.j.V.V.B.D.F.Q././.(.uXuXuXpXwXeXwXwX|.|.[.[._. .| } x ",
"3.6.e.r.u.k.M.M.B.B.F.Q.Y./.(.qXyXuXuXwXwX5X|.|. X].).v. .} m m ",
"2.3.6.w.r.i.p.M.N.B.D.F.Y./.^.qXqXqXwXwXwX5X5X}.].].c.$.h.M m b ",
"u 2.3.5.t.t.p.p.x.B.S.G.T.Y.E.^.^.qXqXqX4X}.}.}.].c.c.v.M m l l ",
"u u 2.5.5.t.t.x.x.x.S.G.U.R.R.E.E.qX6X4X4X4Xm.}.c.c.v.M N N v l "
};
