/* XPM */
static char *_b8cbc9da4964618eb0bf4bc067ab429KA0jfSi2c98Kghvq[] = {
/* columns rows colors chars-per-pixel */
"64 64 254 2 ",
"   c #0E0E19",
".  c #0E101E",
"X  c #0E1223",
"o  c #0E142B",
"O  c #161A27",
"+  c #0E1B36",
"@  c #121D34",
"#  c #0E0F22",
"$  c #241D25",
"%  c #341E20",
"&  c #172538",
"*  c #142136",
"=  c #382527",
"-  c #272A36",
";  c #2F2930",
":  c #2B1C1E",
">  c #691B0C",
",  c #771E0A",
"<  c #701E10",
"1  c #7C230C",
"2  c #79270D",
"3  c #722F16",
"4  c #472929",
"5  c #523331",
"6  c #6B392B",
"7  c #5E2113",
"8  c #79771C",
"9  c #714438",
"0  c #5E5E16",
"q  c #0D2748",
"w  c #172C45",
"e  c #0E2C55",
"r  c #0E3359",
"t  c #173A57",
"y  c #17334D",
"u  c #293548",
"i  c #303A4B",
"p  c #0E3967",
"a  c #0B3C77",
"s  c #10396C",
"d  c #0F1F41",
"f  c #4D3E42",
"g  c #314359",
"h  c #164669",
"j  c #0E4479",
"k  c #124978",
"l  c #164D75",
"z  c #2F526E",
"x  c #305772",
"c  c #514951",
"v  c #6F5453",
"b  c #4D5768",
"n  c #6A5D62",
"m  c #745E61",
"M  c #4F6479",
"N  c #776568",
"B  c #786D74",
"V  c #706C75",
"C  c #7E615D",
"Z  c #862A0D",
"A  c #98360E",
"S  c #8A3716",
"D  c #973811",
"F  c #8F300E",
"G  c #A23C10",
"H  c #A43C0E",
"J  c #803D22",
"K  c #9B4419",
"L  c #A94814",
"P  c #B34D13",
"I  c #B9551A",
"U  c #AA4510",
"Y  c #914C2D",
"T  c #B85B25",
"R  c #A8562B",
"E  c #BA6738",
"W  c #BB612C",
"Q  c #817E20",
"!  c #C25B1C",
"~  c #C86629",
"^  c #C76C36",
"/  c #D47539",
"(  c #CE7136",
")  c #C45F21",
"_  c #8B5847",
"`  c #88645A",
"'  c #976A59",
"]  c #9B6955",
"[  c #AA6A4A",
"{  c #B66D45",
"}  c #B9734B",
"|  c #A87258",
" . c #B77857",
".. c #A36C54",
"X. c #876A66",
"o. c #997468",
"O. c #887779",
"+. c #93736D",
"@. c #A77865",
"#. c #AC7C69",
"$. c #C87746",
"%. c #D57C45",
"&. c #C47B53",
"*. c #918F26",
"=. c #A7A53E",
"-. c #FAF63D",
";. c #CAC631",
":. c #B98368",
">. c #B78A77",
",. c #A98477",
"<. c #9F8B6F",
"1. c #D9834C",
"2. c #D88858",
"3. c #CF875D",
"4. c #C88967",
"5. c #DA946A",
"6. c #CA9478",
"7. c #D99C77",
"8. c #D08D68",
"9. c #E1A27A",
"0. c #DF9F77",
"q. c #ECEA57",
"w. c #0D4986",
"e. c #114A88",
"r. c #0D548B",
"t. c #0E5797",
"y. c #115699",
"u. c #14568A",
"i. c #156597",
"p. c #306B90",
"a. c #0D5DA3",
"s. c #105EA2",
"d. c #0D64AB",
"f. c #0D68A8",
"g. c #1166A7",
"h. c #0D6CB4",
"j. c #106CB3",
"k. c #0D76B9",
"l. c #1377B7",
"z. c #1775AB",
"x. c #2E7CA8",
"c. c #215B80",
"v. c #4E738E",
"b. c #797A85",
"n. c #68798C",
"m. c #437DA2",
"M. c #0D7BC4",
"N. c #1079C2",
"B. c #857D85",
"V. c #1181BD",
"C. c #3185B5",
"Z. c #788696",
"A. c #4E8CB2",
"S. c #7295AF",
"D. c #638BA8",
"F. c #0D84C9",
"G. c #1389C7",
"H. c #1893CD",
"J. c #0D8AD4",
"K. c #0E93DB",
"L. c #1597D9",
"P. c #118DD2",
"I. c #2795CC",
"U. c #279BD5",
"Y. c #3496CC",
"T. c #29A3DC",
"R. c #39A7D8",
"E. c #3AA1CE",
"W. c #169CE1",
"Q. c #1CA1E4",
"!. c #26A6E3",
"~. c #35ADE3",
"^. c #3BB1E5",
"/. c #1FA0DC",
"(. c #4B9AC5",
"). c #47ABD7",
"_. c #57B4DB",
"`. c #51AAD3",
"'. c #67B9DB",
"]. c #78BAD9",
"[. c #70AAC9",
"{. c #48B6E5",
"}. c #59BCE5",
"|. c #6ABFE3",
" X c #679FC2",
".X c #69C2E7",
"XX c #79C6E7",
"oX c #70C0E1",
"OX c #87838A",
"+X c #988687",
"@X c #878A96",
"#X c #959299",
"$X c #AF958E",
"%X c #B7A19C",
"&X c #8897A7",
"*X c #969BA6",
"=X c #839BB0",
"-X c #A59CA2",
";X c #87A5BA",
":X c #98A8B7",
">X c #98A9B2",
",X c #A7A5A9",
"<X c #B7A9A8",
"1X c #B0B0B7",
"2X c #C79985",
"3X c #D19E81",
"4X c #D9A588",
"5X c #C9A798",
"6X c #D7AC95",
"7X c #D3AB95",
"8X c #E2AA87",
"9X c #E3B498",
"0X c #E2AF92",
"qX c #C9B3AA",
"wX c #D8B8A8",
"eX c #C8B9B5",
"rX c #CBB2A9",
"tX c #E2BCA6",
"yX c #DBC5B8",
"uX c #CCC0BB",
"iX c #E1C5B6",
"pX c #E3C2AD",
"aX c #87ACC4",
"sX c #88B4CC",
"dX c #98B6C7",
"fX c #86BBD5",
"gX c #96BCD6",
"hX c #B7BAC4",
"jX c #A8B8C6",
"kX c #89C4DB",
"lX c #99C5DA",
"zX c #A8C7D8",
"xX c #B8CBD8",
"cX c #B9C5D1",
"vX c #87CBE8",
"bX c #96CCE4",
"nX c #99D3EB",
"mX c #94D3EF",
"MX c #A8D7EA",
"NX c #B7D8E7",
"BX c #A8DCF1",
"VX c #ACD5E9",
"CX c #B9E2F2",
"ZX c #B1E0EE",
"AX c #DBCCC6",
"SX c #C6CCD5",
"DX c #C9D3DC",
"FX c #D8D6D7",
"GX c #D2CAC9",
"HX c #C8DBE6",
"JX c #D5DCE3",
"KX c #C8E2ED",
"LX c #D1E2E9",
"PX c #C3BEC4",
/* pixels */
"        . . X X X X X X O O O O O O O O O $ $ $ $ : % % = = 4 4 4 4 7 7 7 7 3 3 3 2 2 2 2 2 1 2 1 1 1 , , , , , , , > > > > > > ",
"          . X X X X X O O O O O O O O O O $ $ $ $ : = = = 4 4 4 4 5 5 7 3 3 3 3 3 2 2 2 2 2 2 2 1 1 1 1 1 1 , 1 , , < > > > > > ",
"        . . X X X X o O O O O O O O O O $ $ $ $ : = = = 4 4 4 4 5 5 5 6 6 3 3 3 3 3 2 2 2 2 Z Z Z Z Z Z Z Z Z Z 1 1 , < < > > > ",
"        . X X X o o o o @ O O O O O $ $ $ $ ; : = = = 4 4 4 5 5 5 5 6 6 6 6 3 3 3 3 2 Z Z Z Z Z Z Z Z Z Z Z Z Z Z 1 1 2 < < < > ",
"      . X X o o @ o @ @ @ O O O $ $ $ $ - - ; ; ; ; = 4 4 5 5 5 5 6 6 6 6 6 6 3 S S S S S S S S F F F Z Z Z Z Z Z Z 2 1 2 2 2 < ",
"    # X X o o @ @ @ @ @ * & & & - - - - - - ; ; ; ; 4 5 5 5 5 5 6 6 6 6 9 9 9 J S S S S S S S F F F F F F F Z Z Z Z Z 2 1 1 2 2 ",
"# # # X o o @ @ @ @ & & & & & - - - - - - - ; ; ; ; 5 5 5 5 5 6 9 9 9 9 9 9 Y Y Y K S S S S D D A A A A A F F F F F Z Z Z 2 2 1 ",
"X X X o o @ + + * * & & & & & & - - - - - - ; ; ; ; 5 5 5 5 f 9 9 9 9 9 9 Y Y Y Y K K K D D D D A A A A A A A A F F F Z Z Z Z 2 ",
"X o o o @ + * * * * q w w w w w - u u u u i i i ; f f c c c c v v v v 9 Y Y Y Y Y Y K K K K K K G G G G G G G A A A F F F F Z Z ",
"o o o @ + + * q q q q w w w y u u u u i i i i i f f c c c c v v v v v _ _ _ Y Y Y Y Y K K K L L U U U U H H H H G A A A A F F Z ",
"o o + + + * q q q q w w y y y u u u i i i i i g c c c c c v v v v v v _ _ _ Y Y Y R R R R L L L L L U U U U U U H H G A A A F F ",
"+ + + + * q q q q q y y y y t u i i i i i g g c c c c c v v v m C C ` ` _ _ _ R R R R R R R L P L P P P P P U U U H G D A A A F ",
"+ + + + q q q q e e y y t t t t i i i g g g c c c c c n n n m m C ` ` ` ' ] ] [ [ R R R R T T I P P P P P P P P U U U U G D D D ",
"+ + + d q q q q e r t t t t t g i g g g g g b b b b n n n m N N X.X.X.' ' ' ..[ [ [ E E T T T T I I I I I I P P P U U U U U D A ",
"+ + * q q q e r r r t t t t h g g g g g z b b b b b n n N N B X.+.+.+.o.o.@.| | [ { { E E W W W T I I I ! I I I P P P L L U L K ",
"+ d q q q e r r r r t h h h h h z z z z z b b b b b n V V B B O.+.+.+.o.@.@.@.|  .} { { E E ~ W ~ ) ! ! ! ! ! I I I P P L L U L ",
"q q q e e r r r p h h h h h h z z z z z x b b b M V V V B B O.O.O.O.+.o.#.#.#. . . .} } { ^ ^ ~ ~ ~ ~ ~ ) ! ! ! ! I P P L L L L ",
"q q q e e r p p p h h l l l l z z x x x M M M M M V V b.b.B.B.B.+XB.+X,.,.>.:.:. . . .&.$.$.( ^ ( ~ ~ ~ ~ ~ ) ! ! I I P P L L L ",
"q q e e r r p p h h h l l l x x x x x x M M M M M V b.b.b.B.OXOX+X+X+X$X$X>.>.:.:.:.&.&.&.$./ ( ( ( ( ( ~ ~ ~ ~ ! ! I I I P P L ",
"e e e r r p p h h h l l l l x x x x x M v.v.v.M n.n.b.b.B.OX@X#X#X+X$X$X$X$X>.6.4.4.4.3.&.%.%.%./ / ( ( ( ~ ~ ~ ~ ) T I I I I P ",
"e e r r p p h h k k k l l l c.c.x x p.v.v.v.v.n.n.n.b.OX@X@X#X#X#X$X$X$X$X$X2X6.6.4.4.4.3.2.1.%.%./ / / / ( ( ~ ~ ~ ) T T I I I ",
"r r r p p s j j k k k l c.c.c.c.p.p.p.v.v.v.v.n.n.n.Z.@X@X#X#X-X-X-X%X%X%X2X2X2X2X6.6.8.8.2.2.1.1.%.%./ / / ( ( ~ ~ ~ ) T T T T ",
"r r p p s j j k k k u.u.c.c.c.p.p.p.p.v.v.v.n.n.Z.Z.Z.@X#X*X*X-X-X-X%X%X5X5X5X2X2X6.6.8.8.8.2.2.1.1.1.%./ / ( ( ( ~ ~ ~ T T T T ",
"p p p s j j k w.r.r.u.u.u.i.i.p.p.p.p.m.v.v.n.D.Z.Z.@X&X*X*X,X,X,X<X<X<X5X5X5X5X7X3X6.7.7.5.5.2.2.2.1.1.%.%./ / ( ( ~ ~ ~ T T T ",
"p p s s j j w.w.r.r.u.i.i.i.i.p.p.p.p.m.m.A.D.D.D.S.&X&X*X*X,X,X1X<X<XqXqXrX5X5X7X7X4X4X7.7.5.5.5.2.2.1.1.1.%./ / ( ^ ^ ~ W T T ",
"s s s a j w.w.r.r.t.i.i.i.i.z.p.p.p.x.m.A.A.D.D.S.S.=X&X*X>X:X1X1X1X1XqXqXrXrXrX7X7X4X4X3X7.7.5.5.5.2.2.2.1.%.%./ ( ^ ^ ^ W W T ",
"s s a j j w.r.r.t.i.i.i.i.z.z.x.x.x.x.A.A.A.D.S.S.S.=X:X:X>X1X1X1X1X1XeXeXrXrXwXwX6X6X6X4X4X9.0.5.5.5.2.2.2.1.%.%.$.( ^ ^ E W W ",
"a a j j w.r.r.t.i.i.i.g.z.z.z.x.x.x.C.A.A.A.D.S.S.S.;X:X:X:XjXjXhXhXhXeXeXeXwXrXwXwX6X6X6X4X8X9.0.5.5.5.5.2.2.1.%.%.$.^ ^ E E W ",
"a j j j w.r.t.t.a.f.f.f.z.z.z.z.C.C.C.A.A.A.S.S.S.;X:X*.*.q.q.q.q.=.=.q.q.yXwXwXwXwXwX6X6X0X8X8X9.0.7.5.5.2.2.2.1.%.$.$.^ E E E ",
"j j j w.r.t.t.a.g.f.f.z.z.z.l.C.C.C.A.A.A.A.S.S.[.;X:X*.*.8 Q *.;.8 *.*.*.yXyXyXwXwXwX9X9X0X8X8X8X9.7.5.5.5.2.2.1.%.$.$.^ E E E ",
"j j e.e.r.t.s.g.g.f.j.z.z.l.C.C.C.C.A.A.A.A. X[.[.aX:X*.Q 8 8 *.-.*.*.8 0 yXAXyXyXyXwXtX9X9X0X8X8X9.9.7.5.5.2.2.2.2.$.$.$.E E E ",
"w.w.w.r.r.a.g.f.f.j.l.l.l.V.V.C.C.C.(.(.(. X X[.[.sXdX-.-.*.-.-.-.-.-.-.-.yXAXyXyXyXpXwXtX9X9X0X8X8X9.7.7.5.5.2.2.2.&.$.$.E { E ",
"w.e.r.r.t.a.g.f.j.k.k.k.V.G.G.I.Y.Y.Y.(.(. X[.[.[.sXgXgXzXzXxXxXxXSXDXFXFXAXAXAXAXAXiXpXtXtX9X9X0X8X8X9.0.7.5.8.3.3.&.&.} } { { ",
"e.r.r.y.y.g.f.j.j.k.k.k.G.G.H.I.I.Y.Y.(.(.`.[.[.].sXgXgXzXzXxXxXxXDXDXDXFXFXAXAXAXAXyXiXpXtXtX9X0X8X4X4X0.7.5.8.3.3.&.&.} } { { ",
"r.r.r.y.s.g.j.j.k.k.k.F.G.G.H.I.I.Y.E.(.(.`.[.[.fXfXgXlXzXzXxXxXNXDXDXFXFXFXFXFXAXAXAXiXpXpXtX9X0X0X4X4X9.7.5.8.8.3.&.&.} } { { ",
"r.y.y.y.g.d.j.j.k.k.F.G.G.H.H.I.Y.Y.E.(.`.`.[.].fXfXgXlXzXzXNXNXHXDXHXFXFXFXFXFXFXAXAXiXiXpXtXtX9X0X4X4X4X7.7.8.8.4.3.&. .} } { ",
"y.y.y.a.d.j.j.k.N.M.F.G.G.H.H.I.U.E.E.).`._.'.].fXfXbXbXzXVXNXNXHXHXHXJXFXFXFXFXFXAXAXAXiXpXtXtX9X9X6X4X4X7.6.8.8.4.3.&. .} { [ ",
"y.y.a.s.d.j.k.k.M.F.G.P.P.H.L.H.U.E.R.).`._.'.].].fXbXbXVXVXNXNXHXHXHXJXJXFXFXFXFXFXAXAXiXiXtXtX9X9X6X4X4X7.6.6.4.4.3. . .} [ [ ",
"y.s.s.d.j.h.k.N.M.F.F.P.P.L.L.U.U.T.R.).)._.'.].].vXbXbXVXVXNXNXHXHXHXLXJXJXFXFXFXFXFXAXAXyXyXwXwX9X6X6X4X3X6.6.4.4.4. . .} [ [ ",
"a.a.d.d.h.k.N.M.F.F.J.P.P.L.L.L.U.T.R.).)._.'.'.XXvXbXnXMXVXNXNXCXKXKXLXJXJXJXJXFXFXFXAXAXyXyXwXwXwX6X7X7X3X2X6.4.4.:. . .| [ [ ",
"a.a.d.d.h.k.N.M.F.F.J.P.K.L.L.L.T.T.R.).)._.'.|.XXvXbXnXMXVXBXZXCXKXKXLXLXJXJXJXFXFXFXGXAXAXyXwXwXwXrX7X7X3X2X6.6.:.:. . .| | [ ",
"a.a.d.h.h.k.M.M.F.J.J.J.K.L.L.L.!.T.~.R.{._.}.|.XXvXvXnXMXMXBXZXCXKXKXKXLXLXJXJXJXFXFXFXAXAXyXwXwXrXrX5X5X2X2X6.>.>.:.#.| | | ..",
"a.a.d.h.h.k.M.M.F.J.J.K.L.L.W.W.!.!.~.~.{.{.}..XXXvXvXnXMXMXBXZXCXKXKXKXLXLXLXJXJXJXFXFXGXAXuXyXeXrXrX5X5X5X2X2X>.>.:.@.| | ....",
"a.d.d.h.h.N.M.M.J.J.J.K.K.L.W.W.!.!.!.~.{.{.}.|.XXvXvXmXnXBXZXZXCXCXKXKXKXLXHXJXJXJXDXFXGXGXGXeXeXqXrX5X5X5X$X$X>.>.:.@.@.| ..] ",
"a.d.d.h.h.N.M.F.J.J.K.K.K.W.W.Q.Q.!.~.^.{.{.}..XXXXXvXmXnXBXBXZXCXCXKXKXKXKXHXHXHXHXDXDXSXGXGXuXeXqXqX5X5X5X$X$X>.>.,.@.@.| ..] ",
"a.d.d.h.h.N.M.F.J.J.K.K.K.L.W.W.Q.!.!.~.{.{.}..XXXXXvXmXnXBXBXZXCXCXCXKXKXKXHXHXHXHXDXDXSXGXGXuXeXqXqX5X5X%X$X$X>.,.#.@.@.| ' ' ",
"a.d.h.h.h.N.M.F.J.J.K.K.K.K.L.W.Q.!.!.~.^.{.}..X.XXXvXmXnXBXBXZXCXCXCXKXKXHXHXHXHXHXDXSXSXGXGXeXeXqXqX%X%X%X$X$X>.,.#.@.o.' ' ' ",
"d.d.d.h.h.N.M.F.J.J.K.K.K.K.W.W.W.!.!.~.^.{.}.|..XXXvXmXnXnXBXZXZXCXCXCXKXHXHXHXHXHXDXSXSXSXPXeXeX<X<X%X%X$X$X$X,.,.@.o.o.' ' ' ",
"d.d.d.j.h.k.N.M.F.J.K.K.K.W.W.W.Q.!.!.~.^.{.}.}..XXXvXmXmXBXBXBXZXCXCXCXCXNXHXHXHXDXDXSXSXcXhXhX1X1X<X<X%X$X$X$X,.,.o.o.o.' ' ` ",
"a.d.d.h.h.k.N.M.F.J.J.K.K.K.W.W.W.!.!.~.^.{.{.}..XXXXXvXmXBXBXBXBXZXZXCXCXNXNXNXNXHXxXcXcXhXhXhX1X1X<X<X%X$X$X$X+X,.o.o.o.' ' ` ",
"a.a.d.d.h.k.k.N.F.F.J.J.K.K.K.L.L./.!.!.~.{.{.}..X.XXXvXmXmXBXBXBXBXZXZXNXNXNXNXNXxXxXcXcXhXhXhX1X1X,X-X-X$X$X+X,.,.o.o.o.' ` ` ",
"a.a.d.f.j.h.k.N.M.F.J.J.K.K.K.K.L.L.!.!.~.^.{.}..X.XXXvXmXmXBXBXMXMXBXZXNXNXNXNXNXxXxXcXcXhXhX1X1X,X,X-X-X$X+X+X,.+.+.+.o.X.` ` ",
"t.a.a.d.d.j.k.N.M.F.F.J.P.K.L.L.L.L.T.!.~.^.{.}.}..XXXvXvXmXnXnXMXMXMXMXVXVXVXNXxXxXcXcXhXjXjX1X1X,X,X-X-X#X+X+X,.+.+.+.X.X.` ` ",
"t.t.y.a.d.j.j.k.N.M.F.F.P.P.P.K.L.L./.T.~.^.{.{.}..XXXXXvXmXnXnXnXMXMXMXMXVXVXVXzXzXzXzXjXjXjX1X,X,X,X*X#X#X+X+X<.+.+.+.X.X.` ` ",
"y.y.y.y.a.d.j.k.k.N.M.F.F.J.P.P.L.L.L.T.T.~.{.{.}.|..XXXvXvXbXnXnXnXMXMXMXMXzXzXzXzXzXjXjXjXdX:X>X>X*X*X#X#X+X+XB.O.+.X.X.X.` C ",
"t.y.y.y.a.d.j.j.k.k.M.F.F.F.P.P.P.H.L.T.T.~.{.{.}.}..XXXXXvXvXbXbXnXnXnXnXMXbXzXzXzXzXjXjXdX:X:X>X*X*X#X#X#XOXOXO.O.O.X.X.N N m ",
"e.r.r.y.y.s.d.d.j.k.k.M.F.F.J.G.P.H.L.U.T.R.R.).}._.'.XXXXvXvXvXbXbXbXnXnXbXlXzXlXlXgXdXdXdX:X:X>X*X*X&X#X@XOXOXO.O.O.N N N m m ",
"w.e.r.y.y.y.s.d.j.h.k.k.k.F.F.G.P.H.H.U.T.R.R.)._._.'..XXXXXvXvXbXbXbXbXbXbXlXlXlXlXdXdXdXdX:X:X>X*X&X&X@X@XOXOXO.O.B N N N m m ",
"w.w.w.e.y.y.s.s.d.j.j.k.k.V.F.F.G.G.H.U.T.R.R.)._._.'..XXXXXvXvXvXkXkXkXkXlXlXlXlXgXdXdXdX:X;X;X=X&X&X&X@X@XOXB.O.B B N N N m m ",
"w.w.w.e.y.y.y.s.g.f.j.j.k.k.V.F.G.G.H.H.U.T.R.)._._.'.'.XXXXXXvXkXkXkXkXkXkXkXgXgXdXdXsXaX;X;X;X&X&X&X@X@XOXOXb.B B B N N N m m ",
"a j w.e.e.y.y.y.s.g.j.k.k.k.k.V.V.G.H.H.I.E.R.R.)._._.'.'.oXXXXXkXkXkXkXkXkXfXfXsXsXsXaXaX;X;X=X&X&X&X@X@XOXb.b.B B B N N n n n ",
"a a w.w.w.e.y.y.a.d.f.h.k.k.k.V.F.F.G.H.I.Y.E.E.)._._.'.'.].].].kXkXkXkXkXfXfXfXsXsXaXaX;X;X;X=X&X&XZ.Z.Z.Z.b.B B B V N n n n n ",
"a a a w.w.e.y.y.y.a.g.f.h.k.k.k.V.F.G.H.I.I.E.E.).`._.'.'.'.].].].kXkXkXfXfXfXsXsXsXaXaX;X;XS.S.S.Z.Z.Z.Z.Z.b.B B B N n n n n n ",
"a a a a w.w.r.t.y.a.d.f.h.k.k.k.k.V.G.G.H.I.Y.E.).`._._.'.'.].].].fXfXfXfXfXsXsXsXaXaX;X;X;XS.S.S.Z.Z.Z.Z.b.b.B B B N n n n n n "
};
