/* XPM */
static char *_3ea8ccaa11e4453e1745e086f03aff4SWG2BQpHbN6ZkScJ[] = {
/* columns rows colors chars-per-pixel */
"64 64 254 2 ",
"   c #0E0E19",
".  c #0E101E",
"X  c #0E1223",
"o  c #0E142B",
"O  c #161A27",
"+  c #0E1B36",
"@  c #121D34",
"#  c #0E0F22",
"$  c #241D25",
"%  c #341E20",
"&  c #172538",
"*  c #142136",
"=  c #382527",
"-  c #272A36",
";  c #2F2930",
":  c #2B1C1E",
">  c #691B0C",
",  c #771E0A",
"<  c #701E10",
"1  c #7C230C",
"2  c #79270D",
"3  c #722F16",
"4  c #472929",
"5  c #523331",
"6  c #6B392B",
"7  c #5E2113",
"8  c #714438",
"9  c #77761C",
"0  c #0D2748",
"q  c #172C45",
"w  c #0E2C55",
"e  c #0E3359",
"r  c #173A57",
"t  c #17334D",
"y  c #293548",
"u  c #303A4B",
"i  c #0E3967",
"p  c #0B3C77",
"a  c #10396C",
"s  c #0F1F41",
"d  c #4D3E42",
"f  c #314359",
"g  c #164669",
"h  c #0E4479",
"j  c #124978",
"k  c #164D75",
"l  c #2F526E",
"z  c #305772",
"x  c #514951",
"c  c #69575B",
"v  c #73534E",
"b  c #4D5768",
"n  c #6A5D62",
"m  c #745E61",
"M  c #4F6479",
"N  c #776568",
"B  c #786D74",
"V  c #706C75",
"C  c #7E615D",
"Z  c #862A0D",
"A  c #98360E",
"S  c #8A3716",
"D  c #973811",
"F  c #8F300E",
"G  c #A23C10",
"H  c #A43C0E",
"J  c #803D22",
"K  c #9B4419",
"L  c #A94814",
"P  c #B34D13",
"I  c #B9551A",
"U  c #AA4510",
"Y  c #914C2D",
"T  c #B85B25",
"R  c #A8562B",
"E  c #BA6738",
"W  c #BB612C",
"Q  c #817E1F",
"!  c #C25B1C",
"~  c #C86629",
"^  c #C76C36",
"/  c #D47539",
"(  c #CE7136",
")  c #C45F21",
"_  c #8B5847",
"`  c #88645A",
"'  c #976A59",
"]  c #9B6955",
"[  c #AA6A4A",
"{  c #B66D45",
"}  c #B9734B",
"|  c #A87258",
" . c #B77857",
".. c #A36C54",
"X. c #876A66",
"o. c #997468",
"O. c #887779",
"+. c #93736D",
"@. c #A77865",
"#. c #AC7C69",
"$. c #C87746",
"%. c #D57C45",
"&. c #C47B53",
"*. c #959328",
"=. c #A19E34",
"-. c #FAF63D",
";. c #CAC631",
":. c #9A817B",
">. c #B98368",
",. c #B78A77",
"<. c #A98477",
"1. c #D9834C",
"2. c #D88858",
"3. c #CF875D",
"4. c #C88967",
"5. c #DA946A",
"6. c #CA9478",
"7. c #D99C77",
"8. c #D08D68",
"9. c #E1A27A",
"0. c #DF9F77",
"q. c #EBEA58",
"w. c #0D4986",
"e. c #114A88",
"r. c #0D548B",
"t. c #0E5797",
"y. c #115699",
"u. c #14568A",
"i. c #156597",
"p. c #306B90",
"a. c #0D5DA3",
"s. c #105EA2",
"d. c #0D64AB",
"f. c #0D68A8",
"g. c #1166A7",
"h. c #0D6CB4",
"j. c #106CB3",
"k. c #0D76B9",
"l. c #1377B7",
"z. c #1775AB",
"x. c #2E7CA8",
"c. c #215B80",
"v. c #4E738E",
"b. c #797A85",
"n. c #68798C",
"m. c #437DA2",
"M. c #0D7BC4",
"N. c #1079C2",
"B. c #857D85",
"V. c #1181BD",
"C. c #3185B5",
"Z. c #788696",
"A. c #4E8CB2",
"S. c #7295AF",
"D. c #638BA8",
"F. c #0D84C9",
"G. c #1389C7",
"H. c #1893CD",
"J. c #0D8AD4",
"K. c #0E93DB",
"L. c #1597D9",
"P. c #118DD2",
"I. c #2795CC",
"U. c #279BD5",
"Y. c #3496CC",
"T. c #29A3DC",
"R. c #39A7D8",
"E. c #3AA1CE",
"W. c #169CE1",
"Q. c #1CA1E4",
"!. c #26A6E3",
"~. c #35ADE3",
"^. c #3BB1E5",
"/. c #1FA0DC",
"(. c #4B9AC5",
"). c #47ABD7",
"_. c #57B4DB",
"`. c #51AAD3",
"'. c #67B9DB",
"]. c #78BAD9",
"[. c #71AAC9",
"{. c #48B6E5",
"}. c #59BCE5",
"|. c #6ABFE3",
" X c #679FC2",
".X c #69C2E7",
"XX c #79C6E7",
"oX c #70C0E1",
"OX c #87838A",
"+X c #988687",
"@X c #878A96",
"#X c #959299",
"$X c #AF958E",
"%X c #B7A19C",
"&X c #8897A7",
"*X c #979BA6",
"=X c #829BAF",
"-X c #A59CA2",
";X c #87A5BB",
":X c #97A8B7",
">X c #99A6B2",
",X c #A7A5A9",
"<X c #B7A9A8",
"1X c #AFB0B7",
"2X c #C79985",
"3X c #D19E81",
"4X c #D9A588",
"5X c #C9A798",
"6X c #D7AC95",
"7X c #D3AB95",
"8X c #E2AA87",
"9X c #E3B498",
"0X c #E2AF92",
"qX c #C9B3AA",
"wX c #D8B8A8",
"eX c #C8B9B5",
"rX c #CCB3AA",
"tX c #E2BCA6",
"yX c #DBC4B9",
"uX c #CDC0BB",
"iX c #E1C5B6",
"pX c #E3C2AD",
"aX c #87ACC4",
"sX c #88B4CC",
"dX c #97B5C8",
"fX c #86BBD5",
"gX c #95BAD4",
"hX c #B7BAC4",
"jX c #A8B8C6",
"kX c #89C4DB",
"lX c #99C5DA",
"zX c #A8C7D8",
"xX c #B8CBD8",
"cX c #B9C5D1",
"vX c #87CBE8",
"bX c #96CCE4",
"nX c #99D3EB",
"mX c #94D3EF",
"MX c #A8D7EA",
"NX c #B7D8E7",
"BX c #A8DCF1",
"VX c #ACD5E9",
"CX c #B9E2F2",
"ZX c #B1E0EE",
"AX c #DACBC6",
"SX c #C6CCD5",
"DX c #C9D3DC",
"FX c #D8D6D7",
"GX c #D2CAC9",
"HX c #C8DBE6",
"JX c #D5DCE3",
"KX c #C8E2ED",
"LX c #D1E2E9",
"PX c #C3BEC4",
/* pixels */
"        . . . X X X X O X X O O $ o $ $ # : $ $ : : % % % 4 4 4 7 7 7 5 < 7 3 3 2 2 2 2 2 2 2 2 2 1 1 1 Z , , , , , > > > > > > ",
"        . . X . X X X X O O O O o $ o $ $ $ $ $ $ % % % % 4 4 4 4 4 4 6 6 7 3 3 3 2 3 2 2 2 Z 2 1 1 1 1 , Z , Z , , , > > > > > ",
"        . . X X X X O O O O O O @ $ $ o $ $ $ $ % % % 4 4 4 4 5 5 7 6 7 3 6 3 3 3 3 3 2 Z 2 2 2 Z Z Z Z Z Z Z Z , , , < > > > > ",
"        . X X X o O O @ * O O O $ @ $ $ $ $ - % ; = = = 4 4 5 5 6 5 5 6 6 6 3 6 3 2 S Z Z Z F Z Z Z Z Z Z Z Z Z Z , , , > > > > ",
"      # # X o o O O O O * & O O @ - $ $ - $ - = ; = 4 4 5 d 5 5 5 5 6 6 6 6 J S S J S F F S S Z Z Z F F F Z Z Z Z Z 1 2 < < < < ",
"    # # X o o @ O * * & & O & - $ - - - - - ; y ; ; ; 4 4 5 d 5 6 8 6 6 6 6 J J J S S S S F S F F A F F F F F F Z Z Z 2 , , < , ",
". # # X o o o @ * * & & & & & & s ; - - ; - ; 4 4 4 4 4 d 5 d 8 v 6 8 8 8 6 Y J J S S S D S D D A A A A A A F F F F Z Z Z Z Z 2 ",
"# X X o o + @ + * * & & & q & - y - - ; y - ; ; d u d d d d 8 d 6 v 6 v Y Y 8 Y Y K Y K K D K D A A G A A A A A F F F Z Z Z 2 Z ",
"X o o o + + * * * * & t & t & t - y y ; u u u d u d d 5 8 d x 8 v 8 v 8 _ Y Y Y Y Y K K K K G L H H H H H H H H D A F F F F Z Z ",
"o o o + + * 0 * 0 0 * e e & t t y y y y u 4 u d d d d d x x v v v v v _ _ _ _ Y Y Y K R K K L K U U H H H H H H G G A F F F F Z ",
"o + + + + 0 & 0 0 & e & t t y t w u u u u u d u d d x c c x c v C v _ _ _ _ _ R _ Y R R R L L L U U H P P H H H H H G G A F F F ",
"o + + + + 0 0 0 0 e t t t t t f u u u f f f f x x f x x c v c v C v ` _ _ ] _ _ R R R R P R R U P P P P H ! U U H H G G K K A F ",
"+ + + + 0 0 0 0 t t r t r r f r f f f f f x f f b x c b c c n c C ` ` ` ' ] ] [ [ R R R E R I R P I P P P P P P U U U K U A K F ",
"+ + 0 + * 0 e 0 e t e r r r r f a f f f f f b b b x c c c c m B.X.` ` o.' ' ] [ [ [ R E R T T T I I I I ! P P P P U U U U A U K ",
"+ + + 0 * e & e e r r g r f f g f f f b b b b b b b b n n B.B.+.X.+.+.o.@.@.| [ [ { { E E E W W ! ! ! ! ! P ! I P P P L U K K K ",
"s + 0 0 t e e r e e r r g g g f a f l f l l b b n M n V n B.X.B.O.+.+.+.o.@.@.|  . .{ E E ^ W ~ W ! ! ! ! ! ! I I P P L L U U U ",
"0 0 0 w w w w i e g g g g g k z l l z z M M b M n M V n b.b.B.B.#.B.#.#.#.#.#. . . .} } { ^ ^ ~ ~ ~ ~ ) ! ! ! ! ! ! P P P U U L ",
"0 0 0 w w w i i i g g g g g k z l z z z z M M M v.n b.b.b.B.B.B.B.B.B.B.$X#.,.#.#.&. .} $.$.( ^ ^ ~ ~ ~ ~ ~ ~ ! ! ! ! ! P P L L ",
"w w w w w i i i g g k k k k z k z z z z M M M M v.V n.B.b.B.B.B.$XB.B.2X$X#.#.4.4.4.&.&.&.$.%.$.( ( ( ~ ~ ~ ~ ! ! ! ! ! I L P L ",
"0 w w w i i i i k k k k k k z z z z z M M M M M n.n.b.n.B.B.B.B.B.2X2XB.$X2X,.,.4.>.4.3.&.%.%.%./ / / ( / ~ / ! ~ ! ! ! I I I P ",
"w w w e e i i h k k k k k z i.k p.z z v.p.M D.M n.n.B.B.@XB.#X#X-XB.5X%X$X2X2X2X6.6.4.4.&.2.%.%./ %./ / / / / ~ ~ ~ T ! T I R P ",
"w e e e i p g h k k r.k k i.z z p.M p.M D.M v.Z.n.b.B.=X@X#X#X*X<X-X%X%X%X2X2X2X2X6.6.8.5.%.8.%.1.%.1./ / / / / ~ ~ ~ ) T T T T ",
"i i e i g h h h k k k k V.z z p.p.z p.p.v.v.D.M n.S.b.@X#X*X*X-XB.%X%X%X%X5X5X2X2X3X6.8.8.8.5.%.1.1.1.1./ / / / ( ~ ~ ~ T T T I ",
"a w i i h h h h i.k k V.k i.V.z p.p.p.M A.v.D.D.n.S.=X@X*X*X,X>XPX-X<X<X5X5X5X2X7X2X3X7.7.5.5.2.2.1.1.1.1./ / / / ( ^ ~ W W T T ",
"i i a a h h r.h r.r.r.i.i.p.C.k C.p.p.D.v.D.v.D.Z.Z.&X&X*X>X,X,X1X<X<XrXrX<X5X5X7X7X3X3X7.7.5.5.5.2.2.1.1.1.%.%./ ( ^ ^ ~ W T T ",
"a a i p h h r.r.r.t.i.i.i.i.i.C.p.C.p.C.A.A.D.D.D.S.=X&X>X>X>X1X1XhX1X<XrXrXrXrX5X7X7X4X4X7.5.5.5.2.5.2.2.1.%.%./ ( ^ ^ E W W W ",
"p p p p h r.r.r.r.i.i.i.i.i.i.i.C.p.A.A.A.A.D.D.S.S.;X>X:X:X:X1X1X1XPXeXeXrX6XrX7X6X6X6X4X4X0.0.5.5.2.2.2.2.1.%./ / ^ ^ ^ E W W ",
"p p p p r.r.r.t.i.i.f.f.V.i.C.C.C.C.p.A.A.A. XS.[.S.;X:X:X1XjXjXhXPXPXeXeXyXrXwXwXwXwX6X0X4X8X0.0.0.5.5.5.2.2.1.1.%.$.$.^ E E E ",
"p p p e.e.r.r.i.i.f.f.V.i.V.i.C.C.p.C.A.(.A.D. X;X;X;X:X*.=.q.q.q.q.=.;.PXyXrXyXwXwXwX6X9X8X9X9.9.9.5.5.5.2.2.2.%.%.$.$.E ^ E E ",
"p h j e.r.y.t.a.i.f.f.f.i.V.V.C.C.C.A.C.A. X XS.S.;XdX:X*.Q 9 Q *.;.9 *.AXyXyXyXtXtXtXtX9X9X8X9.9.9.0.0.5.5.2.2.&.%.$.$.^ { E E ",
"e.p e.e.u.t.i.g.f.f.V.z.V.V.C.V.C.A.A.A.(.(. X[.[.;XdX:X=.Q 9 9 *.-.R *.PXAXyXyXiXiXpXtX9X9X9X9.9.9.0.5.5.5.5.2.2.%.$.$.$.{ E E ",
"j e.e.u.y.y.g.f.f.f.z.k.V.C.V.C.C.C.E.A.(. X X[.aXsXdXlX-.-.*.-.-.-.q.q.AXAXAXAXiXpXpXpXtXtX9X9X8X9.9.9.5.5.5.8.2.3.$.$.$.E { { ",
"w.e.r.r.y.y.g.j.j.k.l.l.V.N.Y.N.N.(.N.(.(.`.[.[.[.sXgXgXzXzXcXxXcXSXSXDXFXFXAXAXAXiXiXiXiXpX9X9X0X8X9.9.7.7.5.5.3.3.&.$.} { $.E ",
"e.e.t.y.g.a.f.j.l.k.l.V.G.G.G.G.Y.Y.(.(.(. X_.[.sXgXgXgXzXzXxXxXxXSXDXFXFXAXFXAXAXAXiXiXpXpXtX9X0X8X8X8X9.7.6.8.3.3.3.} } } { { ",
"r.t.t.t.t.f.j.h.l.k.l.G.G.I.I.I.Y.Y.(.).`. X[.[.fXfXkXlXzXzXxXNXHXDXDXDXFXFXFXAXiXAXAXAXpXpXpX9X0X0X8X8X7.7.5.8.3.3.&.&.} } { { ",
"e.t.t.y.g.f.j.j.k.k.N.N.G.G.P.I.Y.Y.Y.(.`._.'.[.fXfXlXlXzXxXNXxXNXDXHXFXFXFXFXFXFXFXAXiXiXpXtXtX9X0X8X8X9.7.7.8.8.3.3. . .} [ { ",
"y.y.y.a.d.d.j.h.F.M.G.G.G.I.P.P.!.Y.).).`.`.[.].].fXbXbXzXVXNXNXHXJXLXJXJXFXFXFXFXAXAXiXiXiXpXtX9X9X0X4X9.7.6.5.>.3.3.} &.} { [ ",
"y.a.a.a.d.j.l.N.k.F.F.G.P.P.U.U.Y.T.Y.).`._.|.].].kXbXzXMXzXNXNXHXLXLXJXJXJXFXFXAXFXFXiXAXiXtXtX9X9X6X6X4X3X7.6.4.3.>.3. .} } [ ",
"y.s.a.a.j.j.N.N.M.F.F.P.P.L.K.U.T.!.~.).{._.'.'.].gXvXbXMXVXZXNXZXKXLXLXJXJXJXFXFXFXFXAXAXiXiXwXpX9X6X6X7X3X6.6.4.4.>.} >.} [ [ ",
"a.a.d.d.j.h.N.N.F.F.J.P.J.L.W.W.T.Y.!.).)._.'.|.vXvXbXbXMXMXNXZXNXKXLXLXJXJXJXJXFXFXFXFXAXiXyXwXwXwX7X7X7X6.3X6.6.>.>.>.} | [ | ",
"a.a.d.d.h.N.N.M.M.M.K.K.K.K.W.W.!.T.R.).{._.|.|.XXvXmXnXMXMXZXZXKXKXKXLXLXLXJXJXJXFXFXAXAXAXwXyXpXwX7X7X5X4X2X6.6.>.>.| | | | [ ",
"a.a.d.d.h.N.M.M.K.M.K.K.K.K.W.W.M.T.!.^.{._.}.|.XXvXmXmXMXMXZXZXCXKXKXKXLXLXLXJXFXJXFXFXAXAXAXwXuXwXqX5X5X3X%X6.,.>.>.>. .| | ..",
"a.d.d.h.h.M.M.M.M.K.M.K.K.W.W.W.~.!.~.^.).{.}.|.XXXXmXmXnXBXZXZXCXKXKXKXLXLXLXJXJXJXFXFXGXGXAXeXqXqXwX5X5X%X6.2X,.,.>.| >.| ....",
"a.d.d.h.h.M.M.M.M.K.K.K.K.W.W.W.!.!.!.^.{._.}.|..XXXmXmXnXBXZXZXCXCXKXKXKXLXLXJXHXJXFXDXGXGXAXeXuXqXqX%X5X2X$X$X,.,.>.@.' | ..] ",
"a.d.h.h.h.M.M.M.M.K.K.K.K.K.W.Q.Q.!.!.^.^.{.}.|.XXXXmXmXmXBXZXZXCXCXKXKXKXKXDXLXHXJXDXDXGXGXuXuXuXqXqX%X5X%X6.6.<.>.<.' :.| ' ' ",
"d.d.d.h.h.M.M.M.K.M.K.K.K.W.W.W.Q.Q.!.^.^.}.}.|.XXXXmXmXmXBXBXZXCXCXCXKXKXKXKXKXHXHXJXDXSXGXGXuXqXqXqX<X5X%X$X,.,.<.>.>...| ' ' ",
"a.d.d.h.M.M.M.M.M.K.K.K.K.W.W.W.Q.!.~.^.{.{.}.|..XXXXXmXBXBXBXZXCXCXCXKXKXKXKXKXHXHXDXSXSXPXPXeXeXqX<X%X%X$X$X$X<.<.:.] ..:.' ' ",
"a.d.h.h.M.M.M.M.K.M.K.K.K.W.W.Q.Q.Q.!.!.{.{.}.}..XXXmXmXmXnXBXZXCXCXCXCXCXKXKXKXHXDXSXSXSXPXPXPXeX<XqX<X%X%X$X,.,.<.>.<.' ' ' ' ",
"d.d.d.h.h.N.M.M.M.M.K.K.K.W.W.W.Q.Q.!.~.~.{.}.}..XXXXXmXmXBXBXBXZXZXCXCXZXKXHXNXDXNXSXSXcXcXhXuX1X1X<X<X%X$X,.,.:.<.o.o.' ' ' ` ",
"a.d.d.d.h.N.N.M.M.M.M.K.K.K.K.W././.!.~.^.^.{.}..X.XXXXXmXmXBXBXZXZXZXCXZXNXZXNXNXDXxXxXcXcXhXhX1X<X<X<X,X$X:.,X,.:.:.:.o.' X.` ",
"a.a.d.d.h.h.N.M.M.M.K.K.K.K.W.W./././.~.^.^.{.}..XXXXXmXmXmXmXBXVXZXZXZXNXNXNXxXDXxXxXcXuXcXhX1X1X,X,X,X,.*X,.:.:.:.:.X.o.X.' ` ",
"a.a.d.d.h.h.h.N.M.K.M.K.K.K.K.K./././.~.~.^.{.}..XXXXXXXmXmXBXBXBXVXZXZXNXZXNXNXxXNXxXcXcXjXjX1X1X,X,X%X,X,X#X,X:.:.=.:.o.' X.` ",
"a.a.a.a.d.h.N.N.M.F.F.J.M.K.K.K././././.~.^.{._..X.XXXXXmXmXmXBXMXMXBXMXMXNXxXNXxXxXcXjXcXjX1XjX1X,X,X-X:.-X:.:.:.:.+.X.` ` X.` ",
"y.y.a.a.d.d.h.h.M.M.M.J.K.K.K.K.H./././.R.~.{.{.}..X.XXXXXmXmXmXnXMXMXMXMXMXMXzXMXzXzXzXjXjXjX1X>X,X*X,X>X:.Z.:.:.+.O.+.X.X.` C ",
"w.y.y.a.a.d.h.h.N.M.M.F.J.J.M.K.H././.T.~.~.{.{.}.}..XXXXXmXmXmXnXMXnXMXMXMXzXMXzXzXjXjXjXdX:XdX>X,X>X*X#X:.#X:.OXO.+.X.X.` N C ",
"y.y.y.y.a.a.h.h.h.k.M.F.M.M.J.K.H.H././.T.R.{.).}.}..XXXXXmXmXmXbXbXnXnXMXlXnXzXlXzXzXjXjXjXdX:X>X>X*X#X#X#X:.@X:.O.O.X.N N C C ",
"e.y.e.y.y.s.d.d.h.k.k.F.F.F.F.P.H.H.H././.R.{.{._.}.'.oXXXnXvXvXbXbXnXbXnXbXlXzXlXzXdXjXdXdX:X:X>X>X*X&XS.:.OXOXO.O.O.B N C C N ",
"e.e.e.y.y.s.s.d.j.h.l.k.k.G.F.G.H.H.H././.R.R.).}._.'.oXXXXXXXnXvXbXbXnXlXbXbXlXlXdXdXdXdXdX:X;X&X*X&X#X#X@XOXOX:.B B X.N C C m ",
"w.e.e.y.y.y.a.a.d.j.j.k.k.V.F.V.V.H.H.H.E.T.R.{._._.'.oXoXXXkXkXkXbXbXbXkXlXlXlXdXlXdXdX:X:X;X>X>XS.&X@XZ.:.OXOXb.B B N N m m m ",
"p w.e.e.e.y.y.a.d.d.j.k.k.k.F.V.H.H.H.H./.E.E.R.)._.'.oXoXoXXX].kXkXkXkXkXlXkXkXkXdXsXdXaXaX;X;X>X&X&X&XZ.Z.b.O.B B B B N m m n ",
"p w.w.w.e.y.y.a.f.f.f.f.k.k.V.V.V.H.H.H.H.T.E.E._._._.'.oXoXkXXXkXkXkXkXkXkXdXkXfXsXsXaXaX;X:XS.S.#XZ.Z.Z.:.Z.b.b.B V N N m n c ",
"p p p e.w.w.y.y.a.f.f.f.k.k.k.V.V.V.V.H.I.E.E.E.)._._._.'.].oX].kX].kXfXkXkXkXdXsXsXaXaX;X;X;X>X&X&XS.Z.Z.Z.b.b.B V N n n n m c ",
"p p p e.w.w.r.t.t.a.f.f.f.k.V.k.V.V.V.H.I.E.E.E.).`._.'.'.].'.kX].].fXkX].fXsXsXsXaXaX;X;X;X;XS.&XS.#XZ.Z.b.b.B B V V n n n c c ",
"p p p p w.w.t.r.t.a.f.f.k.f.k.V.V.V.V.H.H.H.E.E.).`.`.'.'.'.'.'.].kX].kXsXfXfXsXsXsX;X;X;X[.S.;XZ.Z.Z.Z.Z.b.b.b.B N N N n n c c "
};
