/* XPM */
static char *Spri1694542248[] = {
/* columns rows colors chars-per-pixel */
"32 32 235 2 ",
"   c #0E0E19",
".  c #0E101E",
"X  c #0E1224",
"o  c #0D142B",
"O  c #161A28",
"+  c #0E1A38",
"@  c #10192F",
"#  c #0E223E",
"$  c #192436",
"%  c #1F212E",
"&  c #29242B",
"*  c #372426",
"=  c #272936",
"-  c #383037",
";  c #281B21",
":  c #6A1C0D",
">  c #781F0C",
",  c #7C240B",
"<  c #73270D",
"1  c #722F15",
"2  c #472A2B",
"3  c #54322F",
"4  c #68362A",
"5  c #713B29",
"6  c #5D170B",
"7  c #5E413D",
"8  c #734537",
"9  c #0D2748",
"0  c #162B46",
"q  c #18344D",
"w  c #0E2B55",
"e  c #0E345A",
"r  c #163A57",
"t  c #2D394C",
"y  c #0D3A67",
"u  c #0B3C77",
"i  c #483D42",
"p  c #1C415B",
"a  c #394458",
"s  c #0D4577",
"d  c #124876",
"f  c #1A537A",
"g  c #14456A",
"h  c #264966",
"j  c #33556F",
"k  c #504A53",
"l  c #6A575A",
"z  c #714F4B",
"x  c #7D615E",
"c  c #505869",
"v  c #6C5D62",
"b  c #745F61",
"n  c #546578",
"m  c #776569",
"M  c #79747B",
"N  c #6F6870",
"B  c #86290D",
"V  c #922F0F",
"C  c #97360D",
"Z  c #893514",
"A  c #963A13",
"S  c #8A2F0E",
"D  c #A43C0E",
"F  c #A53D10",
"G  c #9F4315",
"H  c #AA440F",
"J  c #AC4A14",
"K  c #A54514",
"L  c #B44D14",
"P  c #B95619",
"I  c #B0470E",
"U  c #934B2B",
"Y  c #B85B25",
"T  c #A9562B",
"R  c #BA6939",
"E  c #BF642E",
"W  c #C45C1C",
"Q  c #C15E23",
"!  c #C96628",
"~  c #C86C35",
"^  c #D3753A",
"/  c #CB7039",
"(  c #865748",
")  c #985A43",
"_  c #8B665C",
"`  c #996C5A",
"'  c #A76749",
"]  c #B46E49",
"[  c #A7735B",
"{  c #B37451",
"}  c #846A66",
"|  c #8B726D",
" . c #917671",
".. c #A67A67",
"X. c #B67E63",
"o. c #AB7F72",
"O. c #D67C45",
"+. c #C47D56",
"@. c #CB7849",
"#. c #9D9B2A",
"$. c #B1B030",
"%. c #9B8A73",
"&. c #B28877",
"*. c #BDB867",
"=. c #D9834D",
"-. c #D88958",
";. c #D0885D",
":. c #C88A68",
">. c #DA956A",
",. c #D79976",
"<. c #CD8F6F",
"1. c #DDA079",
"2. c #E0A17C",
"3. c #CACB6B",
"4. c #0E4987",
"5. c #114A88",
"6. c #0E548B",
"7. c #0D5898",
"8. c #115599",
"9. c #145885",
"0. c #166494",
"q. c #376687",
"w. c #2E6E95",
"e. c #0D5DA4",
"r. c #105DA1",
"t. c #0D64AB",
"y. c #0E69A7",
"u. c #1165A8",
"i. c #0D6BB4",
"p. c #106EB4",
"a. c #0D76BA",
"s. c #1376B5",
"d. c #1576AB",
"f. c #277BAA",
"g. c #265E83",
"h. c #517794",
"j. c #727786",
"k. c #0D7DC5",
"l. c #1078C1",
"z. c #847D86",
"x. c #2E85B7",
"c. c #0D81BE",
"v. c #7A8797",
"b. c #78808B",
"n. c #4A8BB1",
"m. c #7094AD",
"M. c #7BA0BA",
"N. c #0D86C9",
"B. c #1587C6",
"V. c #1894CF",
"C. c #0D8BD5",
"Z. c #138ED0",
"A. c #0D92DC",
"S. c #1698D9",
"D. c #2A96CD",
"F. c #2C9AD3",
"G. c #28A2DD",
"H. c #38A8DA",
"J. c #37A0CF",
"K. c #159DE1",
"L. c #1DA1E3",
"P. c #27A6E4",
"I. c #35ADE3",
"U. c #3CB3E8",
"Y. c #489AC7",
"T. c #47ABD8",
"R. c #56B3DB",
"E. c #55ABD2",
"W. c #6AB7DA",
"Q. c #77BDDB",
"!. c #6CA7C8",
"~. c #48B6E3",
"^. c #59BDE8",
"/. c #66BFE2",
"(. c #7AC1DF",
"). c #66C2E8",
"_. c #78C6E7",
"`. c #95888B",
"'. c #908D94",
"]. c #A78D88",
"[. c #B29791",
"{. c #8896A5",
"}. c #9599A3",
"|. c #A19FA7",
" X c #87A3B9",
".X c #9AAAB7",
"XX c #96A1AE",
"oX c #A8AAB3",
"OX c #B8B6B6",
"+X c #B2A9AB",
"@X c #BEA297",
"#X c #C69884",
"$X c #D9A586",
"%X c #C9A798",
"&X c #D6AB95",
"*X c #CCA38F",
"=X c #E3B497",
"-X c #E3AC8B",
";X c #C9B6AD",
":X c #D8B8A6",
">X c #C6B6B0",
",X c #E2BDA7",
"<X c #DAC4B8",
"1X c #CCC3BE",
"2X c #E1C6B7",
"3X c #88ACC4",
"4X c #86B3CC",
"5X c #97B5C9",
"6X c #86BCD7",
"7X c #97BAD3",
"8X c #A5BBC9",
"9X c #B6B9C2",
"0X c #88C4DB",
"qX c #98C4DA",
"wX c #B3C9D5",
"eX c #B2C8D6",
"rX c #85C9E7",
"tX c #96CCE7",
"yX c #98D3EA",
"uX c #93D4ED",
"iX c #A7D6EA",
"pX c #B3DEED",
"aX c #BAD7E7",
"sX c #A9D5EB",
"dX c #B9E2F2",
"fX c #ACE0EE",
"gX c #C8C7C9",
"hX c #D8CBC7",
"jX c #CAD5D9",
"kX c #D8D6D8",
"lX c #D2CFD1",
"zX c #C7D9E5",
"xX c #D4DDE5",
"cX c #CAE2EB",
"vX c #CFE1E9",
/* pixels */
"    . . X X O O O ; O ; ; * * 2 3 6 3 < , , , , , , > > > : 6 6 ",
"    X X X O O O O O ; & * * 2 3 4 4 4 1 1 1 Z 1 B B B B B > : : ",
"  . X o @ @ $ $ = = & * * - 3 3 4 8 5 1 1 Z S S V C S B B > > > ",
". X @ + # $ $ $ = = = - - 3 3 k 7 8 8 U U G A A C C C C V B B B ",
"X o @ # # 9 $ q 0 t - t t 3 k z z U ( U U U G G G D D D D V V B ",
"@ # # 9 0 q q q t t t k k k z l z x _ U T T T K I I I I D D C C ",
"+ # 9 9 e q p p a h a k k c v m } _ ` ' ' T Y Y P L P L I H G C ",
"+ # 9 w r r p h h a j c c N N M  . ...[ ] ] R ! W W P P L J H H ",
"9 9 w y g g g h j j n n N M M  .z.o.X.&.X.] / ~ ! ! ! W W P I J ",
"w w e y g d f f j j n n n j.b.'.`.[.&.&.&.:.@.@.^ ~ ! W W W P J ",
"w e y s d f f g.j q.q.b.b.v.'.}.[.[.[.#X<.;.;.=.O.^ ^ ^ ! Q P P ",
"y e s s f 9.0.0.w.q.h.n.v.v.}.|.+X+X%X*X#X,.>.-.=.=.O.^ ~ E E Y ",
"y y s 6.6.0.0.w.x.w.n.b.m.m.XX.XoXOX;X%X&X$X,.>.-.-.=.O.^ ~ E Y ",
"u u 4.6.7.y.0.d.n.n.n.m.m.XX.XOX1X>X>X;X:X&X&X1.1.>.-.=.O./ R E ",
"s s 6.7.y.y.d.x.x.x.m.!.M.5X%.#.$.1.hX:X=X=X=X2.2.>.>.-.=./ R R ",
"4.5.8.u.y.d.c.x.x.n.n.!.M.qX3.#.$.3.hXhX2X2X,X=X2.2.>.;.;.;./ R ",
"4.8.r.u.s.s.B.B.D.Y.E.!.4X7XwXjXjXkXkXhX2X2X2X=X-X2.1.<.;.{ ] ] ",
"6.7.e.p.a.l.B.V.D.Y.E.!.6XqXqXwXaXjXkXkXkX2X2X=X=X-X1.<.;.;.@.] ",
"8.e.t.l.k.B.Z.F.F.Y.E.W.6XtXiXaXzXxXkXkXkXhX2X:X=X&X1.,.:.{ { ] ",
"e.e.p.l.N.Z.C.S.G.T.R./.0XtXiXdXcXvXxXxXkXhX<X<X=X:X$X<.<.:.{ ' ",
"e.e.a.k.k.A.A.K.P.I.R./._.uXfXfXdXvXvXxXkXkXhX<X;X%X*X#X&.{ { { ",
"e.i.l.k.C.C.K.K.L.I.~./._.uXyXdXdXcXvXvXxXjXlX<X;X%X%X<.&.&.[ ` ",
"t.i.l.k.C.A.K.K.K.I.~.^._.uXfXfXdXcXcXcXxXjXlX1X>X;X@X[.&.%.[ ` ",
"e.t.l.k.C.A.A.K.L.I.~.^._.uXyXfXdXdXcXcXjXjXgX9X>X+X*X].&...` ` ",
"e.i.l.l.k.A.A.A.L.P.U.^.)._.uXfXpXdXaXaXzXgXwXwXOX+X[.].%...` _ ",
"e.e.i.l.k.C.A.A.S.P.U.^._._.uXfXsXpXpXaXaXwX9XOX+X|.|.`.%. .` } ",
"e.e.t.l.k.N.A.A.S.P.U.~.)._.uXyXiXiXiXsXeXeXeXoXoX|.].%. .| } } ",
"7.8.e.i.a.k.C.C.V.G.H.~.).)._.uXyXyXiXeXqX8X5X.XoX}.}.`.z.} } _ ",
"5.8.r.t.i.l.k.N.V.V.H.T.R.(._.0XyXyXtXqXqX5X.X.XXX{.'.`. .| m v ",
"4.5.8.e.t.a.a.N.B.V.G.H.R.).(.(.rXqXqXqX7X5X5X X{.{.b.z.j.} m v ",
"u 4.4.7.t.y.a.c.c.V.F.J.T.W.Q.(.0X0X0X4X4X3X X X{.v.'.j.M N v b ",
"u u 4.7.7.y.d.a.c.B.D.J.T.R.W.Q.Q.(.0X4X4X4X X{.m.v.b.j.N v v l "
};
