/* XPM */
static char *result[] = {
/* columns rows colors chars-per-pixel */
"32 32 105 2 ",
"   c #000000",
".  c #070805",
"X  c #080905",
"o  c #0D0F09",
"O  c #0E110A",
"+  c #11130C",
"@  c #13190F",
"#  c #171C11",
"$  c #1C1E13",
"%  c #1D2114",
"&  c #212616",
"*  c #252919",
"=  c #292D1C",
"-  c #2C321D",
";  c #353B22",
":  c #3C3922",
">  c #433923",
",  c #483A24",
"<  c #543724",
"1  c #593D27",
"2  c #613725",
"3  c #693423",
"4  c #643D22",
"5  c #713E29",
"6  c #3B4324",
"7  c #3F4926",
"8  c #404A27",
"9  c #434C29",
"0  c #494C2F",
"q  c #49532A",
"w  c #4D5B2C",
"e  c #525F2E",
"r  c #4D4D33",
"t  c #494D3C",
"y  c #53602F",
"u  c #576430",
"i  c #596731",
"p  c #5C6B33",
"a  c #646E2E",
"s  c #637933",
"d  c #687A36",
"f  c #6C7E38",
"g  c #5A6945",
"h  c #647042",
"j  c #686C5C",
"k  c #823D2B",
"l  c #9F3D2D",
"z  c #B73E2F",
"x  c #B83F30",
"c  c #897A5B",
"v  c #6F823A",
"b  c #72853A",
"n  c #768B3C",
"m  c #798E3E",
"M  c #7D933F",
"N  c #7F9540",
"B  c #859D3D",
"V  c #809640",
"C  c #869D42",
"Z  c #90825E",
"A  c #939058",
"S  c #8AA344",
"D  c #8EA846",
"F  c #90AA47",
"G  c #94AE48",
"H  c #96B149",
"J  c #9AB64B",
"K  c #9EBB4D",
"L  c #9BA655",
"P  c #A0BE4E",
"I  c #818B75",
"U  c #A9AB62",
"Y  c #AFB364",
"T  c #A3B56E",
"R  c #B9AB73",
"E  c #AABD74",
"W  c #BCB174",
"Q  c #C9BC7B",
"!  c #A3C14F",
"~  c #A6C450",
"^  c #BBC269",
"/  c #A3AD87",
"(  c #B2B3B0",
")  c #BEBFBB",
"_  c #DCBB92",
"`  c #B5C48B",
"'  c #B9C88D",
"]  c #BCCA93",
"[  c #DCCE87",
"{  c #DEC78C",
"}  c #C0CF92",
"|  c #E1D28A",
" . c #E4C296",
".. c #E7C399",
"X. c #EBC49D",
"o. c #C1CAA6",
"O. c #D3DCBA",
"+. c #FED6A7",
"@. c #FFD7A8",
"#. c #FFDAAC",
"$. c #DBE4C4",
"%. c #E5E6E4",
"&. c #E7E8E5",
"*. c #F8F7F9",
"=. c #F9FAF9",
/* pixels */
"                                                                ",
"                                                                ",
"                                                                ",
"                                                                ",
"                                                                ",
"                $ $ % $ % % % $ $ $ $ % $ % $ #                 ",
"            . @ - w y y e y u p p p p p p p p y % .             ",
"            $ > ; d S C S C D J K K K J J J ! F 8 O             ",
"          % 1 l > s S S C S S D K P H D S S G F 8 +             ",
"          % 5 z , s E o.h / ] S J v f H H J V e ; +             ",
"          % 1 k : s } %.t ( $.D J v v K P ~ C e ; +             ",
"          $ - ; > a ` %.j ) $.S J K P K K K P F 8 O             ",
"            @ > l 4 I *.&.*.O.S K P K P K K ~ F 8 O             ",
"            O , z 3 g ` ' ` T S J P P ~ P ~ ~ G 8 O             ",
"            + : k < e B B B B S G K F b n m N v 6 +             ",
"            + - - - w M C S S S S J N 7 ; - = - - +             ",
"              . . & ; q N S F J K K K C 6 @ . . .               ",
"                  X $ 6 M U Q | [ [ | Q 0 o                     ",
"                + o # 6 M R X.#.#.#.#...r O                     ",
"              . - 6 8 q V W ..+.@.@.#. .r O                     ",
"              . - b F F S R ..+.@.@.#. .r o                     ",
"              . - w b G S L A c _ X.{ Y 0 O                     ",
"              . % = 9 v C D m p Z R ^ F 7 O                     ",
"                  $ - ; b G P F 8 f H C 6 o                     ",
"                  . . o ; v J F 7 ; 9 6 O                       ",
"                        O 6 u u 6 ; * O                         ",
"                          + % $ % & +                           ",
"                                                                ",
"                                                                ",
"                                                                ",
"                                                                ",
"                                                                "
};
