/* XPM */
static char *Sprite1694542249[] = {
/* columns rows colors chars-per-pixel */
"32 32 234 2 ",
"   c #0E0E19",
".  c #0E101E",
"X  c #0E1224",
"o  c #0D142B",
"O  c #161A28",
"+  c #0E1A38",
"@  c #10192F",
"#  c #0E223E",
"$  c #192436",
"%  c #1F212E",
"&  c #29242B",
"*  c #372426",
"=  c #272936",
"-  c #383037",
";  c #281B21",
":  c #6A1C0D",
">  c #781F0C",
",  c #7C240B",
"<  c #73270D",
"1  c #722F15",
"2  c #472A2B",
"3  c #54322F",
"4  c #68362A",
"5  c #713B29",
"6  c #5D170B",
"7  c #5E413D",
"8  c #734537",
"9  c #0D2748",
"0  c #162B46",
"q  c #18344D",
"w  c #0E2B55",
"e  c #0E345A",
"r  c #163A57",
"t  c #2D394C",
"y  c #0D3A67",
"u  c #0B3C77",
"i  c #483D42",
"p  c #394458",
"a  c #0D4577",
"s  c #124876",
"d  c #1A537A",
"f  c #14456A",
"g  c #264966",
"h  c #33556F",
"j  c #1C415B",
"k  c #504A53",
"l  c #6A575A",
"z  c #714F4B",
"x  c #7D615E",
"c  c #515869",
"v  c #6C5D62",
"b  c #745F61",
"n  c #546578",
"m  c #776569",
"M  c #79747B",
"N  c #6F6970",
"B  c #86290D",
"V  c #922F0F",
"C  c #97360D",
"Z  c #893514",
"A  c #963A13",
"S  c #8A2F0E",
"D  c #A43C0E",
"F  c #A53D10",
"G  c #9F4315",
"H  c #AA440F",
"J  c #AC4A14",
"K  c #A54514",
"L  c #B44D14",
"P  c #B95619",
"I  c #B0470E",
"U  c #934B2B",
"Y  c #B85B25",
"T  c #A9562B",
"R  c #BA6939",
"E  c #BF642E",
"W  c #C45C1C",
"Q  c #C15E23",
"!  c #C96628",
"~  c #C86C35",
"^  c #D3753A",
"/  c #CE6F36",
"(  c #865748",
")  c #985A43",
"_  c #8B665C",
"`  c #996C5A",
"'  c #A76749",
"]  c #B46E49",
"[  c #A7735B",
"{  c #B37451",
"}  c #846A66",
"|  c #8B726D",
" . c #917571",
".. c #A67A67",
"X. c #B67E63",
"o. c #AA7E71",
"O. c #C97747",
"+. c #D67C45",
"@. c #C47D56",
"#. c #A09C1F",
"$. c #989529",
"%. c #B2B132",
"&. c #DAD73C",
"*. c #948D75",
"=. c #AF8678",
"-. c #BDB75C",
";. c #D9834D",
":. c #D88958",
">. c #D0885D",
",. c #C88A68",
"<. c #DA956A",
"1. c #D79976",
"2. c #CD8F6F",
"3. c #D4A979",
"4. c #E0A17C",
"5. c #B5C27D",
"6. c #0E4987",
"7. c #114A88",
"8. c #0E548B",
"9. c #0D5898",
"0. c #115599",
"q. c #145885",
"w. c #166494",
"e. c #376687",
"r. c #2E6E95",
"t. c #0D5DA4",
"y. c #105DA1",
"u. c #0D64AB",
"i. c #0E69A7",
"p. c #1165A8",
"a. c #0D6BB4",
"s. c #106EB4",
"d. c #0D76BA",
"f. c #1376B5",
"g. c #1576AB",
"h. c #277AAA",
"j. c #265E83",
"k. c #567791",
"l. c #727786",
"z. c #487DA1",
"x. c #0D7DC5",
"c. c #1078C1",
"v. c #847E87",
"b. c #2E85B7",
"n. c #0D81BE",
"m. c #7A8797",
"M. c #78808B",
"N. c #498CB4",
"B. c #7194AD",
"V. c #0D86C9",
"C. c #1587C6",
"Z. c #1894CF",
"A. c #0D8BD5",
"S. c #138ED0",
"D. c #0D92DC",
"F. c #1698D9",
"G. c #2B98D0",
"H. c #29A1DD",
"J. c #38A8DA",
"K. c #37A0CF",
"L. c #159DE1",
"P. c #1EA2E4",
"I. c #29A7E3",
"U. c #36ADE3",
"Y. c #3CB3E8",
"T. c #499AC7",
"R. c #47ABD8",
"E. c #57B4DB",
"W. c #55ABD2",
"Q. c #6AB7DA",
"!. c #77BDDB",
"~. c #75A8C9",
"^. c #48B6E4",
"/. c #59BDE8",
"(. c #66BFE2",
"). c #7AC1DF",
"_. c #66C2E8",
"`. c #79C6E7",
"'. c #95888B",
"]. c #888C97",
"[. c #958F95",
"{. c #B0948E",
"}. c #8997A6",
"|. c #9698A3",
" X c #A19FA6",
".X c #87A3B8",
"XX c #99A7B6",
"oX c #93A1AE",
"OX c #A7A9B3",
"+X c #B3ADAF",
"@X c #BEA297",
"#X c #C69884",
"$X c #D9A586",
"%X c #C9A898",
"&X c #D6AB95",
"*X c #CCA38F",
"=X c #E3B498",
"-X c #E3AC8B",
";X c #C6ADA5",
":X c #D8B7A6",
">X c #C8BAB4",
",X c #E3BDA7",
"<X c #DAC3B7",
"1X c #CCC3BC",
"2X c #E1C6B7",
"3X c #86BCD6",
"4X c #8EB3CB",
"5X c #A5BBC9",
"6X c #B6B9C2",
"7X c #88C4DB",
"8X c #98C5DA",
"9X c #BAC5CA",
"0X c #A3C7D9",
"qX c #B3C8D5",
"wX c #BAD0DE",
"eX c #84C9E6",
"rX c #96CCE6",
"tX c #99D4EA",
"yX c #91D2EF",
"uX c #A7D6EA",
"iX c #B3DEED",
"pX c #B9D8E7",
"aX c #A9D5EB",
"sX c #B9E2F3",
"dX c #ACE0EE",
"fX c #DACBC7",
"gX c #C8D4D8",
"hX c #D9D7D7",
"jX c #CCCCD0",
"kX c #C8D9E5",
"lX c #D5DDE5",
"zX c #C9E2EC",
"xX c #CEE2EA",
"cX c #E0D9CF",
/* pixels */
"    . . X X O O O ; O ; ; * * 2 3 : 4 : < < , < , , > > > : : 6 ",
"    X X X O O O O % ; & * * 2 3 3 4 4 4 1 Z S B B B B B B > : : ",
"  . X o @ @ $ $ % = = * * 2 3 4 3 4 5 Z 1 Z Z S S V V B B , > : ",
". X @ + # $ $ $ = = = - - 2 i i z 8 8 U U A A A C C C C V B B B ",
"X o @ # # 9 $ q t t t t i i i z z U ( U U G G G G D D D C C V B ",
"@ # # 9 0 q q q t t t i k k l l z x ( ) T T T K I I I I F D C C ",
"+ # 9 9 e q j j g t p k k c v m } _ ` ' ' T T Y P L L L I H G C ",
"+ # 9 w r r j g g g c c c v N | |  ...[ { ] ~ E Q W W P L J K H ",
"9 9 w y f f f g h h n n N N M v. .o.=.=.X.] ~ ~ ! ! W W W P I J ",
"w w e y f s d d h h n n k.l.l.'.[.{.=.=.=.,.;.O.^ ~ ! ! W W P L ",
"w e y a s d d j.r.h e.M.M.m.].[. X{.@X2.2.,.>.;.+.^ ^ / ! Q P P ",
"y e a a d q.w.w.r.e.k.N.m.].|. XOX@X%X*X#X1.<.>.;.;.+.^ / E E Y ",
"y y a 8.8.w.w.r.r.N.N.m.B.m.oXOX+X;X;X;X*X$X4.<.:.:.;.+.^ ~ E Y ",
"u u 6.8.9.i.w.g.r.N.N.B.B..X5X9X6X>X>X:X:X&X$X4.4.<.:.;.+.~ R R ",
"a a 8.9.i.i.g.b.b.N.N.B.4X*.$.%.%.#.$XfX=X=X=X4.4.<.<.:.;.O.R R ",
"6.7.0.p.i.g.n.b.b.N.T.~.~.5.#.%.&.%.5.cX2X2X,X=X4.4.<.:.>.;.R R ",
"7.8.y.u.f.f.C.C.G.K.W.~.~.0X9XgXjXcXcXfXfX,X,X,X-X-X4.2.>.@.O.] ",
"0.9.p.s.d.x.C.Z.G.T.W.~.3X8X0XwXpXgXlXhXcX2X,X,X=X$X1.2.>.@.] ] ",
"0.t.a.f.x.C.S.G.G.T.W.Q.3XrXaXpXkXlXlXcXhXfXfX,X=X&X$X1.,.@.] ] ",
"t.t.s.c.x.S.S.F.H.R.E.Q.eXrXaXsXkXlXlXlXhXfXfX,X:X&X$X2.2.X.{ ] ",
"t.t.a.x.x.A.L.L.H.U.E.(.eXtXdXdXsXzXxXlXlXhXfX,X:X%X*X#X=.X.{ [ ",
"t.a.c.x.A.D.D.L.P.U.^.(.`.yXtXdXsXzXzXzXlXhXjX<X>X;X%X2.=.X.[ ` ",
"t.a.c.x.A.A.L.L.P.U.^./.`.yXdXdXsXzXzXkXkXgXjX1X>X;X@X{.=...[ ` ",
"u.a.c.x.A.D.D.L.P.I.^./._.yXtXdXsXzXzXzXkXjXjX6X+X@X@X{.=...` ` ",
"t.a.c.c.x.D.D.D.P.I.Y./._.yXtXdXiXsXsXpXwXgX9X6X+X+X{.{.*...` } ",
"t.u.a.c.x.A.D.L.F.I.Y.^._.`.yXdXaXiXiXpXwXqX9X6X+X+X{.{.*. .` _ ",
"9.t.u.c.x.V.A.D.F.I.Y.^._.`.yXtXuXuXuXqXqXqX5X+XOX X[.'. .| } _ ",
"9.9.t.a.a.x.A.A.Z.H.J.^._._.`.tXtXtXuX0X0X0X0XXXXX|.[.'.v.} } x ",
"7.0.0.u.a.d.x.V.Z.Z.J.R.E._.`.eXtXtXtX8X0X5XXX.XoX[.m.'. .| m b ",
"6.7.0.t.a.d.d.V.C.Z.H.J.E.Q.).7X7X7X8X8X4X4X4X.X}.}.M.'.l.} m b ",
"u 6.6.t.u.a.d.n.n.Z.G.J.E.E.!.).!.7X7X4X4X4X.X.X}.m.].l.N m v v ",
"u u 6.8.9.i.g.d.n.n.G.K.W.E.Q.!.!.7X3X3X4X.X~..XB.m.M.l.N N v l "
};
