/* XPM */
static char *_2c1feaa81bb45bcabce4489628ca046aFDVF3ic8TqXos2m[] = {
/* columns rows colors chars-per-pixel */
"64 64 254 2 ",
"   c #0E0E19",
".  c #0E101E",
"X  c #0E1223",
"o  c #0E142B",
"O  c #161A27",
"+  c #0E1B36",
"@  c #121D34",
"#  c #0E0F22",
"$  c #241D25",
"%  c #341E20",
"&  c #172538",
"*  c #142136",
"=  c #382527",
"-  c #272A36",
";  c #2F2930",
":  c #2B1C1E",
">  c #691B0C",
",  c #771E0A",
"<  c #701E10",
"1  c #7C230C",
"2  c #79270D",
"3  c #722F16",
"4  c #472929",
"5  c #523331",
"6  c #6B392B",
"7  c #5E2113",
"8  c #714438",
"9  c #6D6C1B",
"0  c #0D2748",
"q  c #172C45",
"w  c #0E2C55",
"e  c #0E3359",
"r  c #173A57",
"t  c #17334D",
"y  c #293548",
"u  c #303A4B",
"i  c #0E3967",
"p  c #0B3C77",
"a  c #10396C",
"s  c #0F1F41",
"d  c #4D3E42",
"f  c #314359",
"g  c #164669",
"h  c #0E4479",
"j  c #124978",
"k  c #164D75",
"l  c #2F526E",
"z  c #305772",
"x  c #514951",
"c  c #6F5453",
"v  c #4D5768",
"b  c #6A5D62",
"n  c #745E61",
"m  c #4F6479",
"M  c #776568",
"N  c #786D74",
"B  c #706C75",
"V  c #7E615D",
"C  c #862A0D",
"Z  c #98360E",
"A  c #8A3716",
"S  c #973811",
"D  c #8F300E",
"F  c #A23C10",
"G  c #A43C0E",
"H  c #803D22",
"J  c #9B4419",
"K  c #A94814",
"L  c #B34D13",
"P  c #B9551A",
"I  c #AA4510",
"U  c #914C2D",
"Y  c #B85B25",
"T  c #A8562B",
"R  c #BA6738",
"E  c #BB612C",
"W  c #817E1F",
"Q  c #C25B1C",
"!  c #C86629",
"~  c #C76C36",
"^  c #D47539",
"/  c #CE7136",
"(  c #C45F21",
")  c #8B5847",
"_  c #88645A",
"`  c #976A59",
"'  c #9B6955",
"]  c #AA6A4A",
"[  c #B66D45",
"{  c #B9734B",
"}  c #A87258",
"|  c #B77857",
" . c #A36C54",
".. c #876A66",
"X. c #997468",
"o. c #887779",
"O. c #93736D",
"+. c #A77865",
"@. c #AC7C69",
"#. c #C87746",
"$. c #D57C45",
"%. c #C47B53",
"&. c #939228",
"*. c #A3A12A",
"=. c #FAF63D",
"-. c #D5D333",
";. c #B98368",
":. c #B78A77",
">. c #A98477",
",. c #9A817B",
"<. c #D9834C",
"1. c #D88858",
"2. c #CF875D",
"3. c #C88967",
"4. c #DA946A",
"5. c #CA9478",
"6. c #D99C77",
"7. c #D08D68",
"8. c #E1A27A",
"9. c #DF9F77",
"0. c #EDEB54",
"q. c #D8D355",
"w. c #0D4986",
"e. c #114A88",
"r. c #0D548B",
"t. c #0E5797",
"y. c #115699",
"u. c #14568A",
"i. c #156597",
"p. c #306B90",
"a. c #0D5DA3",
"s. c #105EA2",
"d. c #0D64AB",
"f. c #0D68A8",
"g. c #1166A7",
"h. c #0D6CB4",
"j. c #106CB3",
"k. c #0D76B9",
"l. c #1377B7",
"z. c #1775AB",
"x. c #2E7CA8",
"c. c #215B80",
"v. c #4E738E",
"b. c #797A85",
"n. c #68798C",
"m. c #437DA2",
"M. c #0D7BC4",
"N. c #1079C2",
"B. c #857D85",
"V. c #1181BD",
"C. c #3185B5",
"Z. c #788696",
"A. c #4E8CB2",
"S. c #7295AF",
"D. c #638BA8",
"F. c #0D84C9",
"G. c #1389C7",
"H. c #1893CD",
"J. c #0D8AD4",
"K. c #0E93DB",
"L. c #1597D9",
"P. c #118DD2",
"I. c #2795CC",
"U. c #279BD5",
"Y. c #3496CC",
"T. c #29A3DC",
"R. c #39A7D8",
"E. c #3AA1CE",
"W. c #169CE1",
"Q. c #1CA1E4",
"!. c #26A6E3",
"~. c #35ADE3",
"^. c #3BB1E5",
"/. c #1FA0DC",
"(. c #4B9AC5",
"). c #47ABD7",
"_. c #57B4DB",
"`. c #51AAD3",
"'. c #67B9DB",
"]. c #78BAD9",
"[. c #71AAC9",
"{. c #48B6E5",
"}. c #59BCE5",
"|. c #6ABFE3",
" X c #679FC2",
".X c #69C2E7",
"XX c #79C6E7",
"oX c #70C0E1",
"OX c #87838A",
"+X c #988687",
"@X c #878A96",
"#X c #959299",
"$X c #AF958E",
"%X c #B7A19C",
"&X c #8898A7",
"*X c #969BA6",
"=X c #839BB0",
"-X c #A59CA2",
";X c #87A5BB",
":X c #97A8B7",
">X c #99A2AE",
",X c #A7A5A9",
"<X c #B7A9A8",
"1X c #B0B0B7",
"2X c #C79985",
"3X c #D19E81",
"4X c #D9A588",
"5X c #C9A798",
"6X c #D7AC95",
"7X c #D3AB95",
"8X c #E2AA87",
"9X c #E3B498",
"0X c #E2AF92",
"qX c #C9B3AA",
"wX c #D8B8A8",
"eX c #C8B9B5",
"rX c #CBB2A9",
"tX c #E2BCA6",
"yX c #DBC4B8",
"uX c #CCC0BB",
"iX c #E1C5B6",
"pX c #E3C2AD",
"aX c #87ACC4",
"sX c #88B4CC",
"dX c #97B6C7",
"fX c #86BBD5",
"gX c #96BCD6",
"hX c #B7BAC4",
"jX c #A8B8C6",
"kX c #89C4DB",
"lX c #99C5DA",
"zX c #A8C7D8",
"xX c #B8CBD8",
"cX c #B9C5D1",
"vX c #87CBE8",
"bX c #96CCE4",
"nX c #99D3EB",
"mX c #94D3EF",
"MX c #A8D7EA",
"NX c #B7D8E7",
"BX c #A8DCF1",
"VX c #ACD5E9",
"CX c #B9E2F2",
"ZX c #B1E0EE",
"AX c #DBCBC6",
"SX c #C6CCD5",
"DX c #C9D3DC",
"FX c #D8D6D7",
"GX c #D2CAC9",
"HX c #C8DBE6",
"JX c #D5DCE3",
"KX c #C8E2ED",
"LX c #D1E2E9",
"PX c #C3BEC4",
/* pixels */
"        . . . X X X X O X X O O $ o $ $ # : $ $ : : % % % 4 4 4 7 7 7 5 < 7 3 3 3 2 2 2 2 2 2 2 2 1 1 1 C , , , , > > > > > > > ",
"        . . X . X X X X O O O O o $ o $ $ $ $ $ $ % % % % 4 4 4 4 4 4 6 6 7 3 3 3 2 2 2 2 2 C 2 1 1 1 1 , C , C , , , > > > > > ",
"        . . X X X X O O O O O O @ $ $ @ $ $ $ $ % % % 4 4 4 4 5 5 7 6 7 3 6 3 3 3 2 2 2 2 C 2 2 C C C C C C C C C , , > > > > > ",
"        . X X X o O O @ * O O O $ @ $ $ $ $ - % ; = = = 4 4 5 5 6 5 5 6 6 6 3 6 3 3 A C D 2 D C C C C C C C C C C , , , > > > > ",
"      # # X o o O O O O * & O O @ $ - $ $ - ; ; ; = 4 4 5 d 5 5 d 6 6 6 6 6 H A H A A A C A C A C C D D C C C C C 1 C < , < < < ",
"    # # X o o @ O * * & & O & - - - - $ - - ; - ; ; ; 4 4 5 d 5 6 6 6 6 6 6 H H A A A A A S A D D D D D D D D D C C C C , , 1 < ",
". # # X o o o @ * * & & & & & & - - - ; - ; - 4 4 4 4 4 d 5 d 8 8 8 8 8 8 6 U H A U H A S S S S Z Z Z Z Z D D D D D C C C 2 2 1 ",
"# X X o o + @ + * * & & & q & - s - - y ; y - 4 d u d d d d 8 d d 8 6 c U U 8 U H U J J J S S J Z G S G Z G Z Z D D C A C C C C ",
"X o o o + + * * * * & t & t & t - y y - u 4 d u 4 d d d 8 d x 8 c 8 U c ) U U U U U J J J J K F G G G G G G G G F Z Z D D C C C ",
"o o o + + * 0 * 0 0 * e e & t t y y y y u u u d u d d x x d c c c c c ) ) ) ) U U U J T J J J K I I G G G G G G G Z Z D D D D C ",
"o + + + + 0 & 0 0 & e & t t y t w u y u u u d f x x x x c x c c c ) ) ) ) ) ) ) T ) T T K K K K K I I I I I I G G G G F Z D D D ",
"o + + + + 0 0 0 0 e t t t t t f y y f u f u x f x x x x c c n n V c _ ) ) ) ] U ) T T T T T T L L L L I L L I L G G F F J J Z D ",
"+ + + + 0 0 0 0 t t r t r r f r f f f f f f f x f x c v b b b n V _ _ _ ' ' ' ] R T T T T Y T L P L L L L L L L I I I I I J Z Z ",
"+ + 0 + * 0 e 0 e t e r r r r f a f f f v f v v v v b b b n n n ......X.` '  . .] ] R R T Y Y Y P P P P P L L L L I I K I Z Z J ",
"+ + + 0 * e & e e r r g r f f g f f f l f v v v v v b b b n ..B.....O.X.X.+. .] ] [ [ R R R E E Q Q Q Q Q P Q L L L K K K I I J ",
"s + 0 0 t e e r e e r r g g g f l f l f l v v v v b m b b...B.B.o.O.O.X.+.+.+.} | ] [ [ R ~ E ! ( ( Q Q Q Q P Q P L L K K J I I ",
"0 0 0 w w w w i e g g g g g k z l l z z m m v m v.b B b b.N B.B.@.B.@.@.@.@.@.%.| | | { [ ~ ~ ~ E ! ( ( Q Q Q Q Q Q L L L L I I ",
"0 0 0 w w w i i i g g g g g k z l z z z z m m m b m n.b.b.B.B.B.B.B.B.B.B.:.;.@.@.| %.%.#.#.~ / / ! / ! ! ! ! Q Q Q Q Q L I K K ",
"w w w w w i i i g g k k k k z k z z z z m m m m n.n.n.b.B.B.B.B.B.2XB.2X2X:.:.@.3.3.%.%.#.#.$.#./ / / ! ! ! ! Q Q Q Q Q P L L K ",
"0 w w w i i i i k k k k k k z z z z z m m m m m n.n.b.b.B.B.B.B.B.$X2XB.$X2X:.:.;.3.%.3.%.$.$.$.^ ^ / / ^ ! ^ Q ! Q Q Q P T P L ",
"w w w e e i i h k k k k k z i.k p.z z v.p.m D.m n.b.B.B.@XOX#X#X-X-XB.5X$X2X2X2X5.5.3.3.%.1.$.$.^ $.^ ^ ^ ^ ^ ! ! ! ( Q P P P T ",
"w e e e i p g h k k r.k k i.z z p.m p.m D.m v.Z.n.n.S.B.@X#X#X-X-X%X%X5X$X2X2X2X2X5.7.7.4.%.1.$.<.$.<.^ ^ ^ ^ ^ ! ! E ! Y Y P P ",
"i i e i g h h h k k k k V.z z p.p.z p.p.v.v.D.m n.S.Z.B.#X#X*X*X1XB.%X%X%X5X2X3X3X5.5.5.7.7.4.1.<.<.<.<.^ ^ ^ ^ / ! ! E E Y Y Y ",
"a w i i h h h h i.k k V.k i.V.z p.p.p.m A.v.D.D.n.Z.=X&X*X*X,X,X<X<X<X<XrX5X5X5X5X2X3X6.4.4.4.$.1.<.<.<.<.^ ^ ^ / / ! ! E E Y Y ",
"i i a a h h r.h r.r.r.i.i.p.C.k C.p.p.D.v.D.v.D.Z.Z.&X&X*X>X>X:X1X<X<XrXrX<X5X5X5X4X4X3X3X6.4.4.4.1.1.<.<.<.$.$.^ / ~ ~ ~ E Y Y ",
"a a i p h h r.r.r.t.i.i.i.i.i.C.p.C.p.C.A.A.D.D.D.S.=X&X>X:X,X1X1XhX1X<XrXrXrXrX7X7X7X3X3X9.9.4.4.1.4.1.1.<.$.$.^ ^ ~ ~ R E E E ",
"p p p p h r.r.r.r.i.i.i.i.i.i.i.C.p.A.A.A.A.D.D.S.S.;X:X:X:X1X1X1X1XPXeXeXrXwXrXrX6X6X6X8X4X9.9.4.4.1.1.1.1.<.$.^ ^ / ~ ~ E E E ",
"p p p p r.r.r.t.i.i.f.f.V.i.C.C.C.C.p.A.A.A. XS.S.S.;X:X:X:XzX:XhXPXPXeXeXyXrXwXwX6XwX6X0X4X8X9.9.9.4.4.4.1.1.<.<.$.#.~ ~ R R R ",
"p p p e.e.r.r.i.i.f.f.V.i.V.i.C.C.p.C.A.(.A.D. X;X;XW &.0.0.0.0.q.&.0.0.8.0.iXwXwXwXwX9X9X8X9X8.8.9.4.4.4.1.1.1.$.$.#.#.[ ~ R R ",
"p h j e.r.y.t.a.i.f.f.f.i.V.V.C.C.C.A.C.A. X XS.[.;X*.W &.&.*.&.&.9 &.9 *.*.AXyXtXtXtXwX9X9X8X8.8.8.9.9.4.4.1.1.%.$.#.#.~ [ R R ",
"e.p e.e.u.t.i.g.f.f.V.z.V.V.C.V.C.A.A.A.(.(. X[.[.;X*.W W &.*.-.&.&.*.9 *.U AXiXiXiXpXtX9X9X9X8X8.8.8.4.4.4.4.1.1.$.#.#.#.[ R R ",
"j e.e.u.y.y.g.f.f.f.z.k.V.C.V.C.C.C.E.A.(. X X[.;XsX0.=.&.0.=.=.=.=.=.=.=.0.AXyXiXpXpXpXtXtX9X9X8.8.8.8.4.4.4.7.1.2.#.#.#.R [ [ ",
"e.e.r.r.t.t.g.j.j.k.l.V.V.N.N.I.Y.(.(.(.(. X[.[.sXsXgXgXzXzXcXxXcXcXDXSXFXFXAXAXAXiXiXiXiXpX9X9X0X8X8.8.8.6.4.7.2.2.%.#.{ [ ~ [ ",
"e.e.r.y.t.d.g.j.j.l.k.l.G.G.I.N.Y.N.Y.(.(.`.[.].].sXgXgXzXzXxXxXxXxXFXDXFXAXFXAXFXiXiXiXpXpXpX9X0X8X8X8X6.6.4.7.2.2.2.{ { { [ [ ",
"t.e.t.t.f.g.j.j.k.k.l.G.G.G.I.I.N.).Y.Y.`.`.`.[.sXfXkXlXzXzXxXNXHXDXDXDXFXFXFXAXAXAXAXiXpXpXpX9X9X8X8X8X6.6.6.7.7.2.2.%.{ { { [ ",
"t.t.t.t.g.d.j.j.l.V.V.N.G.H.P.I.Y.Y.(.). X`.[.].fXfXlXlXzXxXNXxXNXDXHXFXJXFXFXFXFXAXFXiXiXpXtX9X9X9X8X8X6.6.6.7.7.2.| %.{ { { [ ",
"y.y.y.a.d.d.j.h.M.M.F.G.P.I.P.I.U.Y.).).`.`.].[.].fXbXbXzXVXNXNXHXJXLXJXJXFXFXFXFXAXAXiXiXiXpX9X9X9X6X4X8.6.5.4.3.2.2.{ | { ] { ",
"y.y.a.a.d.j.l.N.M.F.F.G.P.J.U.L.!.Y.Y.).`._.'.].].fXgXbXMXzXNXNXNXLXLXJXJXFXFXFXFXFXAXAXiXyXpXtX9X9X0X6X6X3X6.5.3.2.;.;.| { ] ] ",
"y.s.a.a.j.j.N.N.M.F.F.P.P.U.L.L.U.!.~.).`._.|.].].fXbXbXMXVXZXNXKXKXLXLXJXJXJXFXFXFXFXAXAXiXyXwXpX6X6X6X4X5.5.5.;.3.2.{ ;.] { ] ",
"a.a.d.d.h.j.N.N.F.F.P.P.J.K.L.W.!.Y.~.R.{._.'.|.|.vXbXVXMXMXNXZXNXKXLXLXJXJXJXJXFXFXFXAXAXAXyXyXwXwX6X6X7X3X3X5.5.;.;.;.[ ;.]  .",
"a.a.d.d.h.N.M.M.M.K.K.M.W.K.W.W.!.Y.~.).).}.'.|.XXvXmXnXMXMXZXZXCXKXKXLXLXJXJXJXJXFXFXAXAXAXyXwXpXwX7X7X7X7X2X5.3.;.;.} } } ] ] ",
"a.a.d.d.N.h.M.M.M.M.K.K.K.W.W.W.Q.!.!.).{._.}.|.XXvXmXmXMXMXZXZXCXKXKXKXLXLXLXJXJXFXFXFXAXAXyXyXqXrXrX5X5X2X2X5.:.:.;.;.} } } } ",
"a.d.d.h.h.M.M.M.M.K.K.K.K.W.W.W.Q.!.~.~.{._.}.|.XXXXmXmXnXBXZXZXCXKXKXKXLXLXLXLXJXJXFXFXGXGXGXyXuXrXrX5X5X2X2X$X:.:.;.} } `  . .",
"a.d.d.h.h.M.M.M.K.M.K.K.K.W.W.W.Q.!.~.^.^.{.}.|..XXXmXmXnXBXZXZXCXCXKXKXKXLXLXJXHXFXDXSXGXGXuXuXuXqXrX5X5X%X2X:.:.:.;.;.;.;. .' ",
"d.d.d.h.h.M.M.M.K.K.K.K.K.W.W.W.Q.!.!.~.{.}.}.|.XXXXmXmXmXBXZXZXCXCXKXKXKXKXHXLXLXJXDXDXGXGXuXeXqXqX<X5X5X$X2X2X$X:.@.+.` ;.` ' ",
"d.d.d.h.h.M.M.M.M.K.M.K.K.W.W.W.Q.Q.~.^.^.{.}.|.XXXXmXmXmXBXBXZXCXCXCXKXKXKXKXHXHXHXJXDXSXGXGXPXuXqXqX<X5X%X$X$X:.>.@.+.X.` ' ` ",
"a.d.h.h.M.M.M.M.K.M.K.K.K.K.W.W.Q.!.!.^.{.{.}.|..XXXXXmXBXBXBXZXCXCXCXKXKXKXKXKXHXHXDXSXSXPXPXuXeXqX<X<X5X$X$X:.:.>.@.X.X.&.` ` ",
"a.d.h.h.M.M.M.M.M.K.M.K.K.W.W.Q.Q.Q.!.~.^.{.}.}..XXXmXmXmXnXBXZXCXCXCXCXKXKXKXKXHXHXSXSXSXPXPXeXeX<XqX%X%X$X$X$X$X@.@.+.X.` ` _ ",
"d.d.d.h.h.M.M.M.M.M.K.K.K.W.W.W.Q.Q.!.~.~.{.}.}..XXXXXmXmXBXBXBXZXCXZXCXKXZXNXDXNXDXxXSXGXcXhXuX1X<X<X<X%X$X,.:.,.>.+.X.X.X._ ` ",
"a.a.d.d.h.h.M.M.M.M.M.K.K.K.K.W././.!.~.^.^.{.}..X.XXXXXmXmXBXBXZXZXZXZXZXKXNXNXDXNXSXSXcXcXhXhX1X1X<X<X%X$X%X,.:.,.,.o.X.` ` _ ",
"a.d.d.d.h.h.N.M.M.K.K.K.K.K.K.W./././.~.^.^.{.}..XXXXXmXmXmXmXBXBXNXZXNXZXNXNXNXNXxXxXcXcXhXhX1X1X<X,X,X$X#X%X,.,.,.,.&.O.` _ _ ",
"a.a.d.d.h.h.N.N.M.M.M.K.K.K.K.W./././.~.~.^.{.}..XXXXXXXmXmXBXBXBXBXZXZXZXNXNXNXNXxXxXcXcXjXjXjX1X,X,X-X,X,X,.,.,.,.,.,.X..._ _ ",
"y.a.a.a.d.h.h.N.M.F.F.J.M.K.K.K././././.~.{.{.}..X.XXXXXmXmXmXBXMXMXBXMXZXMXNXxXxXxXxXcXcXjXjX1X1X,X,X#X$X#X,.#X+XO.o.O..._ .._ ",
"y.y.a.a.d.d.h.N.M.M.M.J.K.K.K.K.H./././.R.~.{.}.}..X.XXXXXmXmXmXnXMXMXMXMXMXzXMXzXzXzXjXjXjXjX1X:X,X,X*X#X#X#X,.,.o.O......._ _ ",
"y.y.y.a.a.d.h.h.N.M.F.F.J.J.M.K.H././././.~.R.{.}.}..XXXXXmXmXmXbXMXnXMXMXzXMXzXzXzXzXjXjXjXjX:X:X,X>X*X#X#X,.,.B.O.o.......V n ",
"w.y.y.y.a.d.d.h.h.k.M.M.M.M.J.K.H.H././.R.~.{.{.}.}..XXXXXmXmXmXbXnXbXnXbXMXlXzXlXzXlXjXjX:XdX:X,X:X*X#X#X#X,.@X+Xo.......M _ n ",
"e.y.e.y.y.s.d.d.h.k.k.F.F.F.G.P.H.H.H./.T.R.{.)._.}.|.oXXXvXvXkXnXbXbXnXlXMXlXlXlXlXjXjXdXdXaX:X:X*X*X*X#X@X,.OXo.o.o.N M M V V ",
"e.e.e.y.y.s.s.d.j.h.l.k.k.F.F.G.H.H.H.H./.R.R.).}._.'.oXXXXXXXnXkXbXbXnXnXlXlXlXdXlXdXdXdXdX:X:X=X>X&X#X@XZ.OXOXo.o.N ..M V n n ",
"w.w.e.y.y.y.a.a.d.j.j.k.k.F.F.V.H.H.H.H.T.T.R.{._._.'.oXXXXXkXkXvXvXbXbXlXlXlXlXlXdXdXdXaXaX:X:X>XS.*XZ.Z.@XOXb.N o.N M M M n n ",
"p w.e.e.e.y.y.a.d.d.j.k.k.k.V.V.V.H.H.H.I.E.R.R.{._._.'.kXXXXXXXkXkXkXkXkXkXlXkXkXdXsXdXaX:X;XS.&X*X&XS.Z.,.OXb.b.N N M M n n n ",
"p p w.e.y.y.y.y.f.f.f.f.k.k.V.V.H.V.H.H.H.E.E.).)._._.'.'.kXoXoX].kXkXkXkXkXdXkXsXsXsXaXaXaX;X;X&X&X#XZ.Z.OXZ.b.N N B M n n b b ",
"p w.p w.w.e.y.y.a.f.f.f.k.k.k.V.V.V.H.H.H.E.E.E.)._._.'.'.].oXkXkXkXkXkXkXkXkXsXfXsXaXaX;X:XS.>XS.&XZ.Z.Z.OXb.o.N N B b b b b c ",
"p p p e.w.w.r.t.t.a.f.f.f.k.V.k.V.V.V.H.H.E.E.E.`.`._.'.'.].'.].].kXfX].fXfXsXsXsXaXaXaX;X;XS.S.&XS.Z.Z.Z.b.b.B N N B b b b b c ",
"p p p p w.w.r.r.t.a.f.f.k.f.k.V.V.V.V.H.H.I.E.E.E.`.`._.'.'.oX].].].fXfX].fXfXsXaXaXaXaXaXS.;X;XZ.&XZ.Z.Z.b.b.b.N B M b b b c b "
};
