/* XPM */
static char *result[] = {
/* columns rows colors chars-per-pixel */
"32 32 256 2 ",
"   c black",
".  c #010201",
"X  c #10120A",
"o  c #11130C",
"O  c #10120B",
"+  c #10110B",
"@  c #0F110B",
"#  c #0D0F09",
"$  c #010101",
"%  c #0C0E08",
"&  c #2C311D",
"*  c #3A4224",
"=  c #3E4626",
"-  c #3D4625",
";  c #3E4726",
":  c #404A27",
">  c #404927",
",  c #414A27",
"<  c #424B28",
"1  c #394122",
"2  c #0E1009",
"3  c #323821",
"4  c #627134",
"5  c #7F9540",
"6  c #7D923F",
"7  c #7C913E",
"8  c #849B42",
"9  c #90AA47",
"0  c #91AB47",
"q  c #91AA47",
"w  c #93AE48",
"e  c #839A42",
"r  c #10160C",
"t  c #4C2F1E",
"y  c #823D2A",
"u  c #403923",
"i  c #687C37",
"p  c #8CA542",
"a  c #87A03E",
"s  c #8CA544",
"d  c #88A240",
"f  c #8AA441",
"g  c #95B049",
"h  c #A0BD4D",
"j  c #A5C450",
"k  c #9FBC4D",
"l  c #93AD48",
"z  c #92AD47",
"x  c #92AC47",
"c  c #9DB94C",
"v  c #96B24A",
"b  c #434C28",
"n  c #1B2515",
"m  c #723E2A",
"M  c #B73E2F",
"N  c #483A24",
"B  c #637934",
"V  c #9DB260",
"C  c #A9B87C",
"Z  c #738442",
"A  c #98A76A",
"S  c #A5B771",
"D  c #8BA344",
"F  c #9BB84B",
"G  c #8FA946",
"H  c #90A946",
"J  c #879F43",
"K  c #6C7E38",
"L  c #3B4224",
"P  c #11120B",
"I  c #1B2315",
"U  c #663D28",
"Y  c #9E3D2D",
"T  c #433923",
"R  c #617730",
"E  c #BCCC8F",
"W  c #E1E2DE",
"Q  c #4F5440",
"!  c #B2B4AE",
"~  c #DAE2C1",
"^  c #8CA546",
"/  c #9BB74B",
"(  c #617134",
")  c #607034",
"_  c #9EBB4D",
"`  c #A2C04E",
"'  c #7D933F",
"]  c #333A21",
"[  c #12140C",
"{  c #1F2315",
"}  c #3B3A23",
"|  c #433823",
" . c #363922",
".. c #647630",
"X. c #BCCB8F",
"o. c #E2E3E0",
"O. c #505542",
"+. c #B3B5AF",
"@. c #DAE3C2",
"#. c #8CA445",
"$. c #9CB84C",
"%. c #839B42",
"&. c #0B0C07",
"*. c #1B2214",
"=. c #3B3822",
"-. c #813C2A",
";. c #644C25",
":. c #929D7F",
">. c #F8F7F9",
",. c #C3C4C1",
"<. c #EAE9ED",
"1. c #D8E0C1",
"2. c #A2BF4E",
"3. c #A1BE4E",
"4. c #A3C14F",
"5. c #0D130B",
"6. c #473923",
"7. c #B73F30",
"8. c #673321",
"9. c #657157",
"0. c #D4DCBA",
"q. c #D9E1C1",
"w. c #B7C58E",
"e. c #9CB94B",
"r. c #A5C34F",
"t. c #0F140C",
"y. c #443923",
"u. c #9F3E2D",
"i. c #613725",
"p. c #4D5E2D",
"a. c #89A044",
"s. c #89A144",
"d. c #88A043",
"f. c #99B54A",
"g. c #9AB54B",
"h. c #3F4726",
"j. c #343821",
"k. c #373521",
"l. c #505E2D",
"z. c #879F42",
"x. c #88A042",
"c. c #87A042",
"v. c #88A143",
"b. c #8BA444",
"n. c #424B27",
"m. c #070804",
"M. c #0F150C",
"N. c #252B1A",
"B. c #3F4727",
"V. c #596730",
"C. c #819740",
"Z. c #87A142",
"A. c #8AA642",
"S. c #93B146",
"D. c #93B046",
"F. c #9AB949",
"G. c #8EAB44",
"H. c #687D35",
"J. c #383F23",
"K. c #191C12",
"L. c #0E100A",
"P. c #13150C",
"I. c #242819",
"U. c #3B4324",
"Y. c #7C923E",
"T. c #9CA755",
"R. c #B1B466",
"E. c #C3C76F",
"W. c #C2C66E",
"Q. c #C7CB71",
"!. c #B2B765",
"~. c #464B2B",
"^. c #3D4525",
"/. c #BBB073",
"(. c #E9C49B",
"). c #FFD7A8",
"_. c #FED7A8",
"`. c #FFDBAB",
"'. c #E3C296",
"]. c #4D4D33",
"[. c #0D1009",
"{. c #BCB073",
"}. c #E9C39B",
"|. c #FED6A8",
" X c #FFDBAC",
".X c #E4C296",
"XX c #040503",
"oX c #1B1F12",
"OX c #1B1E13",
"+X c #3D4622",
"@X c #798F3D",
"#X c #879E43",
"$X c #C0B277",
"%X c #B69A7A",
"&X c #8D7D5E",
"*X c #F3CDA0",
"=X c #FFDDAD",
"-X c #FFDCAD",
";X c #E7C399",
":X c #4E4D33",
">X c #0D1008",
",X c #070805",
"<X c #2D321E",
"1X c #4E5A2D",
"2X c #778C3D",
"3X c #8BA445",
"4X c #B1B266",
"5X c #99995B",
"6X c #606B37",
"7X c #A7956C",
"8X c #DFBC94",
"9X c #F1D29B",
"0X c #C5B979",
"qX c #494C2E",
"wX c #0E1109",
"eX c #060704",
"rX c #70833A",
"tX c #8CA545",
"yX c #7E943F",
"uX c #97B24A",
"iX c #A3C04F",
"pX c #8FA947",
"aX c #948461",
"sX c #C5BF75",
"dX c #92AB48",
"fX c #070704",
"gX c #2B301C",
"hX c #3D4526",
"jX c #475229",
"kX c #7E933F",
"lX c #98B44A",
"zX c #A3C14E",
"xX c #6B773B",
"cX c #9DB34F",
"vX c #020302",
"bX c #0E0F0A",
"nX c #191C10",
"mX c #495429",
"MX c #7C923F",
"NX c #9EBB4C",
"BX c #414B27",
"VX c #424D27",
"CX c #586730",
"ZX c #525F2D",
"AX c #1C2011",
"SX c #050503",
"DX c #2A2F1C",
"FX c #556230",
"GX c #72863B",
"HX c #6F823A",
"JX c #232718",
"KX c #1C1F14",
"LX c #181A11",
"PX c #020202",
"IX c #252A19",
"UX c #2D321D",
/* pixels */
"                                                                ",
"                                                                ",
"                                                                ",
"                                                                ",
"                                                                ",
"                                                                ",
"              . X o O O O O + @ @ @ @ @ @ @ O # $               ",
"            $ % & * = - - - ; : : > : , , , < 1 2 $             ",
"            X & 3 4 5 6 6 7 8 9 0 q 9 9 9 9 w e 1 #             ",
"          r t y u i p a s d f g h j k l z x c v b +             ",
"          n m M N B V C Z A S D F 8 6 G H q J K L P             ",
"          I U Y T R E W Q ! ~ ^ / ( ) _ k ` ' > ] [             ",
"          { } |  ...X.o.O.+.@.#.F g g k k h $.%.; O             ",
"          &.*.=.-.;.:.>.,.<.1.#.F 2.3.k k k 4.l , @             ",
"            5.6.7.8.9.0.@.q.w.#.e.h h 2.2.2.r.l , @             ",
"            t.y.u.i.p.a.s.s.d.D f.k g.9 9 9 l 8 h.O             ",
"            [ j.T k.l.z.x.c.x.v.b./ ' n.> , , h.] [             ",
"            m.[ M.N.B.V.C.Z.A.S.D.F.G.H.J.K.L.O [ m.            ",
"                  P.I.U.Y.T.R.E.E.W.Q.!.~.#                     ",
"                    O ^.6 /.(.).)._.`.'.].[.                    ",
"                    O - 6 {.}.|.).). X.X].[.                    ",
"              XXoXOX+X@X#X$X%X&X*X=X-X;X:X>X                    ",
"              ,X<X1X2Xf.3X4X5X6X7X8X9X0XqXwX                    ",
"              eX& rXtXyXJ uXiXpX< aXsXdX, @                     ",
"              fXgXhX; jXkXlXzX9 : xXcX9 > @                     ",
"              vXX o bXnXmXMXNXw BXVXCXZXAXSX                    ",
"                      SXDXFXGXHXhXJXKXLXPX                      ",
"                      eXIXUX& & gXO                             ",
"                      $ eXfXeXeXfXvX                            ",
"                                                                ",
"                                                                ",
"                                                                "
};
