/* XPM */
static char *Sprit1694542248[] = {
/* columns rows colors chars-per-pixel */
"32 32 231 2 ",
"   c #0E0E19",
".  c #0E101E",
"X  c #0E1224",
"o  c #0D142B",
"O  c #161A28",
"+  c #0E1A38",
"@  c #10192F",
"#  c #0E223E",
"$  c #192436",
"%  c #1F212E",
"&  c #29242B",
"*  c #372426",
"=  c #272936",
"-  c #383037",
";  c #281B21",
":  c #6A1C0D",
">  c #781F0C",
",  c #7C240B",
"<  c #73270D",
"1  c #722F15",
"2  c #472A2B",
"3  c #54322F",
"4  c #68362A",
"5  c #713B29",
"6  c #5D170B",
"7  c #5E413D",
"8  c #734537",
"9  c #0D2748",
"0  c #162B46",
"q  c #18344D",
"w  c #0E2B55",
"e  c #0E345A",
"r  c #163A57",
"t  c #2D394C",
"y  c #0D3A67",
"u  c #0B3C77",
"i  c #483D42",
"p  c #394458",
"a  c #0D4577",
"s  c #124876",
"d  c #1A537A",
"f  c #14456A",
"g  c #264966",
"h  c #33556F",
"j  c #1C415B",
"k  c #504A53",
"l  c #6A575A",
"z  c #714F4B",
"x  c #7D615E",
"c  c #505869",
"v  c #6C5D62",
"b  c #745F61",
"n  c #546578",
"m  c #776569",
"M  c #79747B",
"N  c #6F6870",
"B  c #86290D",
"V  c #97360D",
"C  c #893514",
"Z  c #963A13",
"A  c #8D2F0F",
"S  c #A43C0E",
"D  c #A53D10",
"F  c #9F4315",
"G  c #AA440F",
"H  c #AC4A14",
"J  c #A54514",
"K  c #B44D14",
"L  c #B95619",
"P  c #B0470E",
"I  c #934B2B",
"U  c #B85B25",
"Y  c #A9562B",
"T  c #BA6939",
"R  c #BF642E",
"E  c #C45C1C",
"W  c #C15E23",
"Q  c #C96628",
"!  c #C86C35",
"~  c #D3753A",
"^  c #CA7038",
"/  c #865748",
"(  c #985A43",
")  c #8B665C",
"_  c #996C5A",
"`  c #A76749",
"'  c #B46E49",
"]  c #A7735B",
"[  c #B37451",
"{  c #846A66",
"}  c #8B726D",
"|  c #917571",
" . c #A67A67",
".. c #B67E62",
"X. c #D67C45",
"o. c #C87A50",
"O. c #969533",
"+. c #AFAE3A",
"@. c #CFCC39",
"#. c #9E807A",
"$. c #B08676",
"%. c #D9834D",
"&. c #D88958",
"*. c #D0885D",
"=. c #C1BD40",
"-. c #C88A68",
";. c #DA956A",
":. c #D79976",
">. c #CD8F6F",
",. c #E19F7C",
"<. c #DDA079",
"1. c #E0A27B",
"2. c #0E4987",
"3. c #114A88",
"4. c #0E548B",
"5. c #0D5898",
"6. c #115599",
"7. c #145885",
"8. c #166494",
"9. c #376687",
"0. c #3A7498",
"q. c #246B95",
"w. c #0D5DA4",
"e. c #105DA1",
"r. c #0D64AB",
"t. c #0E69A7",
"y. c #1165A8",
"u. c #0D6BB4",
"i. c #106EB4",
"p. c #0D76BA",
"a. c #1376B5",
"s. c #1576AB",
"d. c #277BAA",
"f. c #265E83",
"g. c #567690",
"h. c #727787",
"j. c #0D7DC5",
"k. c #1078C1",
"l. c #847D86",
"z. c #2E85B7",
"x. c #0D81BE",
"c. c #7A8797",
"v. c #78808B",
"b. c #4A8AB1",
"n. c #7194AD",
"m. c #7CA4BE",
"M. c #0D86C9",
"N. c #1587C6",
"B. c #1894CF",
"V. c #0D8BD5",
"C. c #138ED0",
"Z. c #0D92DC",
"A. c #1698D9",
"S. c #2B99D0",
"D. c #28A2DD",
"F. c #38A9DA",
"G. c #37A0CF",
"H. c #159DE1",
"J. c #1EA1E4",
"K. c #27A7E4",
"L. c #35ADE4",
"P. c #3CB3E8",
"I. c #489AC7",
"U. c #47ABD8",
"Y. c #56B3DB",
"T. c #55ABD2",
"R. c #6AB7DA",
"E. c #77BDDB",
"W. c #72A7C8",
"Q. c #48B6E3",
"!. c #59BDE8",
"~. c #66BFE2",
"^. c #7AC1DF",
"/. c #66C2E8",
"(. c #79C6E7",
"). c #95888B",
"_. c #888C96",
"`. c #958F95",
"'. c #B0948E",
"]. c #8997A6",
"[. c #969AA7",
"{. c #A19EA5",
"}. c #87A3B9",
"|. c #9AAAB7",
" X c #93A1AE",
".X c #A8A9B3",
"XX c #B4ABAD",
"oX c #BEA297",
"OX c #C69883",
"+X c #D9A586",
"@X c #C9A798",
"#X c #D6AB95",
"$X c #D6AA92",
"%X c #E3B498",
"&X c #E3AA88",
"*X c #C6AEA6",
"=X c #D8B8A6",
"-X c #CBBBB5",
";X c #E2BDA7",
":X c #B9C2BF",
">X c #DAC5B8",
",X c #CEC2BA",
"<X c #E1C6B7",
"1X c #86B3CC",
"2X c #98B7C6",
"3X c #86BCD7",
"4X c #8FB2CA",
"5X c #A5BBC9",
"6X c #B9BBC2",
"7X c #88C4DB",
"8X c #98C4DA",
"9X c #B4C9D4",
"0X c #B0C8D7",
"qX c #85CAE7",
"wX c #96CCE6",
"eX c #98D3EA",
"rX c #93D4ED",
"tX c #A7D6E9",
"yX c #B7DAEA",
"uX c #A9D8ED",
"iX c #AEE0EF",
"pX c #BAE2F2",
"aX c #B0E1EF",
"sX c #DACCC7",
"dX c #C8D5D8",
"fX c #D9D6D6",
"gX c #CCCCD0",
"hX c #C8D9E5",
"jX c #D6DEE4",
"kX c #CAE2EC",
"lX c #C7E2ED",
/* pixels */
"    . . X X O O ; O O ; ; * * 2 3 3 : : 1 , , B , , > > > : 6 6 ",
"    X X X O O O O % ; & * * 2 3 3 1 4 5 1 B B 1 B B B B B > : : ",
"  . X o @ @ $ $ % = % * * - 3 3 4 4 5 C 1 C C C A A A A B B > > ",
". X @ + # $ $ $ = = = - - 3 i 7 7 z 5 I I Z Z Z V V V V A A B > ",
"X o @ # # 9 $ q t t t t i i i z z / / I I Y F F D S S S V V A B ",
"@ # # 9 0 q q q t t t i i k l l z / / ( I Y Y H H P P P D S V V ",
"+ # 9 9 e q j j t g p c c l v m { _ _ ( ` R Y U L L L P P G V V ",
"+ # 9 w r r j g p g h c c v N } | |  .] ' ' R W W L E L K H H G ",
"9 9 w y f f f g h h n n n N M l.l. .$.$...[ ^ ! Q Q E E E L P H ",
"w w e y f s s d h h n n g.h.l.).).'.$.$.$.*.o.~ ~ ! Q Q E E L K ",
"w e y a s d d f.9.h 0.g.v.c._.`.{.oX'.>.>.-.-.%.%.~ ~ ~ Q U L L ",
"y e a a 7.d 8.q.q.9.b.v.c._.[.{.{.oX@X$XOX:.;.&.%.%.~ ~ ! ! U U ",
"y y a 4.4.8.8.q.0.b.b.c.n.]. X{.XX*X-X*X$X+X:.;.;.%.%.X.~ ! R R ",
"u u 2.4.5.t.8.s.q.b.b.b.n. X|.:X6X,X-X*X=X#X+X,.;.;.&.%.~ ~ T T ",
"a a 4.5.t.t.s.z.z.b.b.n.m. XO.+.=.O.-X;X;X%X%X&X1.;.;.&.X.X.T T ",
"2.3.6.y.t.s.x.z.z.b.T.W.W.9X+.O.@.=.sXsX<X<X%X%X1.1.:.&.*.o.T T ",
"3.4.w.y.a.a.k.B.S.G.T.W.E.2X9XdXfXfXfXsXsX<X;X;X&X&X:.;.o.o.[ ' ",
"6.5.y.i.p.N.N.C.S.I.T.W.3X8X0XyXhXjXfXfXfX<X;X;X&X&X+X>.*.o.o.' ",
"6.w.u.i.j.N.C.S.S.I.T.R.3XwX0XyXhXjXjXfXfX<X<X;X%X$X+X:.-...[ ' ",
"5.w.i.k.j.C.C.A.S.U.Y.~.3XwXtXaXpXjXjXfXfXfX<X<X=X#X+X>.-...[ ' ",
"w.r.p.j.j.V.H.H.D.L.Y.~.(.eXuXiXlXlXjXjXjXfXsX-X=X@X@XOX>...] ] ",
"w.u.k.j.V.Z.Z.H.J.L.Q.~.(.rXtXiXpXlXkXkXjXfXgX-X-X@X@X>.$...] _ ",
"r.u.k.j.V.Z.H.H.J.L.Q.!.(.rXiXaXpXlXlXhXhXhXgX,X-X*XoX'.$. .] _ ",
"w.r.k.j.V.Z.Z.H.H.L.Q.!./.rXrXiXpXpXlXhXhXdXgX-XXXXXoX'.$. ._ _ ",
"w.u.k.k.j.Z.Z.Z.J.K.P.!./.(.rXiXiXpXyXhXdXgX9X:XXXXX{.$.#.#.) ) ",
"w.w.u.k.j.V.Z.H.H.K.P.!./.qXrXiXuXyXyXyX9X9X9X:XXXXX'.'.#.#._ ) ",
"w.w.r.k.j.V.Z.Z.A.K.F.Q./.(.rXeXuXuXtXtX0X0X:X|..X{.`.).#.} ) x ",
"5.5.w.u.p.j.j.V.B.D.F.Q././.(.eXeXeXtX0X8X5X8X|. X{.`.).#.} { x ",
"3.6.w.r.u.p.j.M.B.B.F.P.Y.^.(.7XwXeXwX8X8X2X|.|. X].c.#.M m m m ",
"2.3.6.w.r.p.p.M.N.B.G.F.Y./.^.^.qX7X8X8X8X7X|.}. X].c.l.M m m b ",
"u 2.2.5.t.t.p.x.x.B.S.F.U.R.E.^.7X7X7X4X2X}.}.}.].c.c.v.M m v l ",
"u u 2.5.5.t.i.p.x.x.S.G.U.Y.R.E.E.^.7X1X1X}.m.m.c.c.v.M N N v l "
};
