/* XPM */
static char *_cd2c092e286428293894e201cfbf99fbgokvlwnhm9HkcuG[] = {
/* columns rows colors chars-per-pixel */
"64 64 254 2 ",
"   c #0E0E19",
".  c #0E101E",
"X  c #0E1223",
"o  c #0E142B",
"O  c #161A27",
"+  c #0E1B36",
"@  c #121D34",
"#  c #0E0F22",
"$  c #241D25",
"%  c #341E20",
"&  c #172538",
"*  c #142136",
"=  c #382527",
"-  c #272A36",
";  c #2F2930",
":  c #2B1C1E",
">  c #691B0C",
",  c #771E0A",
"<  c #701E10",
"1  c #7C230C",
"2  c #79270D",
"3  c #722F16",
"4  c #472929",
"5  c #523331",
"6  c #6B392B",
"7  c #5E2113",
"8  c #714438",
"9  c #6B6B1C",
"0  c #0D2748",
"q  c #172C45",
"w  c #0E2C55",
"e  c #0E3359",
"r  c #173A57",
"t  c #17334D",
"y  c #293548",
"u  c #303A4B",
"i  c #0E3967",
"p  c #0B3C77",
"a  c #10396C",
"s  c #0F1F41",
"d  c #4D3E42",
"f  c #314359",
"g  c #164669",
"h  c #0E4479",
"j  c #124978",
"k  c #164D75",
"l  c #2F526E",
"z  c #305772",
"x  c #514951",
"c  c #6F5453",
"v  c #4D5768",
"b  c #6A5D62",
"n  c #745E61",
"m  c #4F6479",
"M  c #776568",
"N  c #786D74",
"B  c #706C75",
"V  c #7E615D",
"C  c #862A0D",
"Z  c #98360E",
"A  c #8A3716",
"S  c #973811",
"D  c #8F300E",
"F  c #A23C10",
"G  c #A43C0E",
"H  c #803D22",
"J  c #9B4419",
"K  c #A94814",
"L  c #B34D13",
"P  c #B9551A",
"I  c #AA4510",
"U  c #914C2D",
"Y  c #B85B25",
"T  c #A8562B",
"R  c #BA6738",
"E  c #BB612C",
"W  c #C25B1C",
"Q  c #C86629",
"!  c #C76C36",
"~  c #D47539",
"^  c #CE7136",
"/  c #C45F21",
"(  c #8B5847",
")  c #88645A",
"_  c #976A59",
"`  c #9B6955",
"'  c #AA6A4A",
"]  c #B66D45",
"[  c #B9734B",
"{  c #A87258",
"}  c #B77857",
"|  c #A36C54",
" . c #876A66",
".. c #997468",
"X. c #887779",
"o. c #93736D",
"O. c #A77865",
"+. c #AC7C69",
"@. c #C87746",
"#. c #D57C45",
"$. c #C47B53",
"%. c #939324",
"&. c #B1AE2B",
"*. c #FAF63D",
"=. c #9A817B",
"-. c #B98368",
";. c #B78A77",
":. c #A98477",
">. c #B0B042",
",. c #D9834C",
"<. c #D88858",
"1. c #CF875D",
"2. c #C88967",
"3. c #DA946A",
"4. c #CA9478",
"5. c #D99C77",
"6. c #D08D68",
"7. c #E1A27A",
"8. c #DF9F77",
"9. c #E6E456",
"0. c #0D4986",
"q. c #114A88",
"w. c #0D548B",
"e. c #0E5797",
"r. c #115699",
"t. c #14568A",
"y. c #156597",
"u. c #306B90",
"i. c #0D5DA3",
"p. c #105EA2",
"a. c #0D64AB",
"s. c #0D68A8",
"d. c #1166A7",
"f. c #0D6CB4",
"g. c #106CB3",
"h. c #0D76B9",
"j. c #1377B7",
"k. c #1775AB",
"l. c #2E7CA8",
"z. c #215B80",
"x. c #4E738E",
"c. c #797A85",
"v. c #68798C",
"b. c #437DA2",
"n. c #0D7BC4",
"m. c #1079C2",
"M. c #857D85",
"N. c #1181BD",
"B. c #3185B5",
"V. c #788696",
"C. c #4E8CB2",
"Z. c #7295AF",
"A. c #638CA9",
"S. c #0D84C9",
"D. c #1389C7",
"F. c #1893CD",
"G. c #0D8AD4",
"H. c #0E93DB",
"J. c #1597D9",
"K. c #118DD2",
"L. c #2795CC",
"P. c #279BD5",
"I. c #3496CC",
"U. c #29A3DC",
"Y. c #39A7D8",
"T. c #3AA1CE",
"R. c #169CE1",
"E. c #1CA1E4",
"W. c #26A6E3",
"Q. c #35ADE3",
"!. c #3BB1E5",
"~. c #1FA0DC",
"^. c #4B9AC5",
"/. c #47ABD7",
"(. c #57B4DB",
"). c #51AAD3",
"_. c #67B9DB",
"`. c #78BAD9",
"'. c #71AAC9",
"]. c #48B6E5",
"[. c #59BCE5",
"{. c #6ABFE3",
"}. c #679FC2",
"|. c #69C2E7",
" X c #79C6E7",
".X c #70C0E1",
"XX c #87838A",
"oX c #988687",
"OX c #878A96",
"+X c #959299",
"@X c #AF958E",
"#X c #B8A697",
"$X c #8898A7",
"%X c #969BA6",
"&X c #839BB0",
"*X c #A59CA2",
"=X c #87A5BB",
"-X c #97A8B7",
";X c #99A2AE",
":X c #A7A5A9",
">X c #B7A9A8",
",X c #B0B0B7",
"<X c #C79985",
"1X c #D19E81",
"2X c #D9A588",
"3X c #C8A798",
"4X c #D7AC95",
"5X c #D3AB95",
"6X c #E2AA87",
"7X c #E3B498",
"8X c #E2AF92",
"9X c #C9B2A9",
"0X c #D8B8A8",
"qX c #C8B9B5",
"wX c #CCB4AB",
"eX c #E2BCA6",
"rX c #BBC99B",
"tX c #DBC4B8",
"yX c #CFC5B6",
"uX c #E1C5B6",
"iX c #E3C2AD",
"pX c #C7C094",
"aX c #88ACC3",
"sX c #88B4CC",
"dX c #97B5C7",
"fX c #86BBD5",
"gX c #96BCD6",
"hX c #B7BBC4",
"jX c #A8B8C6",
"kX c #89C4DB",
"lX c #99C5DA",
"zX c #A8C7D8",
"xX c #B8CBD8",
"cX c #B9C5D1",
"vX c #87CBE8",
"bX c #96CCE4",
"nX c #99D3EB",
"mX c #94D3EF",
"MX c #A8D7EA",
"NX c #B7D8E7",
"BX c #A8DCF1",
"VX c #ACD5E9",
"CX c #B9E2F2",
"ZX c #B1E0EE",
"AX c #DACBC6",
"SX c #C6CCD5",
"DX c #C9D3DC",
"FX c #D8D6D7",
"GX c #D2CAC9",
"HX c #C8DBE6",
"JX c #D5DCE3",
"KX c #C8E2ED",
"LX c #D1E2E9",
"PX c #C3BEC4",
/* pixels */
"        . . . X X X X O X X O O $ o $ $ # % $ $ $ : % % % 4 4 4 7 4 7 7 5 7 3 < 2 2 2 2 2 2 2 2 2 1 1 1 C , , , , > > > > > > > ",
"        . . X . X X X X O O O O o $ $ # $ $ $ % : % % % % 4 4 4 4 7 5 7 < 6 3 3 3 2 3 2 2 2 C 2 1 1 1 1 , C , C , , , > > > > > ",
"        . . X X X X O O O O O O @ $ $ @ $ $ $ $ $ % % = 4 4 4 4 5 7 6 6 6 3 6 3 2 3 3 C C 2 2 2 C C C C C C C C C , , > > > > > ",
"        . X X X o O O @ * O O O $ @ $ $ $ $ - $ = = = 4 4 4 5 5 6 5 5 6 6 6 6 3 3 3 A C C C D C C C C C C C C C C , , , > > > > ",
"      # # X o o O O O O * & O O $ @ ; $ $ ; ; ; ; = ; 5 4 5 5 5 5 6 6 6 6 3 H H H A A A A C C A C C D D D C C C C 1 C < , < < < ",
"    # # X o o @ O * * & & O & - - - @ ; - - ; ; 4 ; 4 ; 4 d d 8 8 6 6 6 6 6 H H H A A A A S A D D Z D D D D D D C C C C , , 1 < ",
". # # X o o o @ * * & & & & & & - - - ; - - = ; u ; 5 d d d 6 d 8 8 6 8 U 6 U H H A J A S S S S Z Z Z Z Z Z D D D D C C C 2 C 1 ",
"# X X o o + @ + * * & & & q & - s - - y ; y y 4 4 d d 4 5 d d 8 c d c 8 8 8 U U U A U A J S S J Z Z F Z Z Z Z Z D D C A C C C 2 ",
"X o o o + + * * * * & t & t & t s y 4 y y y d y 4 d 5 d d 8 c d c 8 U c ( U U U U U J J J J K F I G G G G G G G F Z Z D D C C C ",
"o o o + + * 0 * 0 0 * e e & t t y y y u y d u u u d x x x d c c 8 c c ( ( ( ( U U U J T J J J K I G I G G G G G G Z Z D D D D C ",
"o + + + + 0 & 0 0 & e & t t y t u u u u u u d d x x x x c c c c c c ( ( ( ( ( ( ( U T T K K K K I I I I I I I G G G G F Z A D D ",
"o + + + + 0 0 0 0 e t t t t t f w u u f u f f x f x x x x c c n ( n ( ( ( ( ' U T T T T T T T K K L L I L L I L G G F F J Z Z Z ",
"+ + + + 0 0 0 0 t t r t r r f r u f f f f x f f x x b v b b n n M ) ) ) _ ` ` ' ' ' T T Y T P Y P P L L L L L L I I I I I J Z Z ",
"+ + 0 + * 0 e 0 e t e r r r r f a f f f f f v v v x b b b n n N  .)  ._ _ _ | | ' R ' E Y Y Y Y P P P P P L L L L I I I I Z Z J ",
"+ + + 0 * e & e e r r g r f f g f l l f v l v v v v v b b n  .M.X.o.o.....O.{ ' ' ] ] R R E E Y W W W P W P P L L L K K K I I J ",
"s + 0 0 t e e r e e r r g g g f f l f f l v v v b m b M n M.M.M.o.o.o.o.O.O.O.{ | [ ] ] R R ! E / / W W W W W W P L L K K J I I ",
"0 0 0 w w w w i e g g g g g k z l l z z m m v m v b c.b c.M M.M.M.M.+.M.+.+.+.+.} } [ ] @.! ! ! E Q / Q W W W W W W L L L I I I ",
"0 0 0 w w w i i i g g g g g k z l z z z z m m m x.b c.c.c.c.M.M.M.M.;.+.M.4.+.+.+.$.} $.] @.! ! ^ Q Q Q Q Q Q W W W W W L L K K ",
"w w w w w i i i g g k k k k z k z z z z m m m m v.v.c.v.M.M.M.M.<XM.<XM.<X+.+.2.2.2.$.$.@.@.#.^ ^ ^ ^ Q Q Q Q W W W W W P L L K ",
"0 w w w i i i i k k k k k k z z z z z m m m m m v.v.v.M.M.M.M.M.M.<XM.@X@X<X;.;.2.-.2.2.$.#.#.#.~ ~ ^ ~ ~ Q ~ W Q W W W P T P L ",
"w w w e e i i h k k k k k z y.k u.z m u.u.m A.m v.v.M.M.M.OX+X+X*XM.3X@X@X<X<X<X4.2.2.2.$.<.#.#.~ #.~ ~ ~ ~ ~ Q Q Q / W P P P T ",
"w e e e i p g h k k w.k k y.z z z m u.m A.m x.V.v.$Xv.$X+X+X+X+X*X>XM.3X@X<X<X<X<X4.4.6.3.$.<.<.,.#.,.~ ~ ~ ~ ~ Q Q E Q Y Y Y P ",
"i i e i g h h h k k k k N.z z u.u.u.u.u.x.x.A.m v.v.M.M.+X%X%X*X*X*XwX3X#X3X<X<X<X1X4.4.6.6.3.<.,.,.,.,.~ ~ ~ ~ ^ Q Q E E Y Y P ",
"a w i i h h h h y.k k N.k y.N.z u.u.u.m C.x.A.A.v.Z.&X$X$X%X;X:X,X>X>X>X9X3X3X3X5X<X5.5.3.3.3.#.<.,.,.,.,.~ ~ ~ ~ ^ Q Q E E Y Y ",
"i i a a h h w.h w.w.w.y.y.u.B.k u.u.B.A.m A.A.A.V.Z.V.$X%X%X;X;X>X,X>XwXwX3X3X3X3X2X1X1X1X5.3.3.3.<.<.,.,.,.#.#.~ ^ ^ ! E E Y Y ",
"a a i p h h w.w.w.e.y.y.y.y.y.B.B.u.B.u.B.A.A.A.A.V.Z.;X;X-X,X,X,X,X,X>XqXwXwXwX5X5X5X2X2X5.5.3.3.<.3.<.<.,.#.#.~ ~ ! ! ! E E E ",
"p p p p h w.w.w.w.y.y.y.y.y.y.y.u.u.C.x.C.C.A.A.Z.Z.=X;X-X-X-X,XhX,XqXqXqXwXwXwXwX4X4X4X2X2X8.8.3.3.<.<.<.<.,.#.~ ~ ! ! ! R R Y ",
"p p p p w.w.w.e.y.y.s.s.N.y.B.B.B.B.B.C.C.C.}.Z.'.Z.=X-X-X,XjXjXhXhXPXqXtXwXwX0X4X0X0X4X6X6X6X8.8.8.3.3.3.<.<.,.,.#.@.! ! R R R ",
"p p p q.q.w.w.y.y.s.s.N.y.N.y.B.B.B.B.C.C.}.A.}.=X=X=XdXrX9 >.9.9.*.9.pXPXqXtXwX0X0X0X7X7X6X6X6X7.8.3.3.3.<.<.<.<.#.@.! R R R R ",
"p h j q.w.r.e.i.y.s.s.s.y.N.N.B.B.B.B.C.C.C.}.}.'.=X-X-XrX9 &.9 %.9 %.pXAXtXtXtXeXeX0XeX7X7X7X7.7.7.8.8.3.3.<.<.$.#.@.@.@.R R R ",
"q.p q.q.t.e.y.d.s.s.N.k.N.N.B.N.B.C.B.C.^.}.}.}.Z.=X-XdXrX%.%.9 %.%.,.5XGXAXAXuXuXuXiXeX7X7X6X6X7.7.7.3.3.3.<.<.<.#.@.@.] @.R R ",
"j q.q.t.r.r.d.s.s.s.k.h.N.B.N.B.B.B.^.^.^.}.}.'.=XkXkXdXrX*.*.%.*.*.9.eXGXAXAXtXuXiXiXiXiX7X7X7X6X7.7.7.8.3.3.6.<.1.@.@.@.R ] ] ",
"q.q.w.w.e.e.d.g.g.h.j.j.B.m.D.I.m.^.I.^.^.}.'.`.'.sXgXjXzXzXxXxXxXxXSXFXGXGXAXAXuXuXuXuXiXiX7X7X8X6X7.7.7.5.3.3.1.1.$.$.[ ] ] ] ",
"q.q.w.r.i.d.s.g.f.h.N.j.S.D.D.m.I.m.^.^.^.).'.'.sXfXgXgXzXzXxXxXxXDXDXDXFXFXFXFXFXAXAXuXiXeXeX7X8X6X6X6X5.5.6.6.1.1.$.$.@.] ] ] ",
"e.q.e.e.i.d.g.g.h.h.N.D.D.D.L.F.I.I.I./.).).).'.`.fXgXlXzXzXNXxXNXDXDXFXFXFXFXAXAXuXFXuXiXiXiXeX8X8X6X6X5.5.3.6.1.1.$.$.[ [ ] ] ",
"e.e.e.r.d.s.g.g.j.h.m.m.D.F.K.L.I.I.I.^.).'.'.`.fXfXlXlXzXVXxXNXDXDXHXJXFXFXFXFXFXFXuXuXuXiXiX7X7X8X6X6X2X5.5.3.6.1.1.} [ [ [ ] ",
"r.r.r.i.a.a.g.g.S.h.D.D.K.L.K.L.U.Y././.).).`.'.fXvXgXbXzXVXNXxXHXJXLXJXJXFXFXFXFXAXuXAXuXuXeXeX7X7X8X2X7.5.4.6.1.1.1.-.} [ [ ] ",
"r.r.i.i.a.g.j.m.m.S.S.D.G.K.P.J.U.I.I./.).(._.`.`.fXgXbXMXVXNXNXNXLXLXJXJXFXFXFXFXFXFXuXAXtXiXeX7X7X4X4X2X1X5.4.2.1.-.} } [ ' ' ",
"r.p.i.i.g.f.m.m.n.S.S.K.K.P.J.J.W.I.Y././.[.{.`.fXfXbXnXzXMXNXZXKXKXLXLXJXJXJXFXFXFXAXAXuXuXtXeX0X7X7X4X5X4.4.4.2.-.1.[ } { [ ' ",
"i.i.a.a.f.g.m.n.S.S.G.K.G.J.J.R.W.P.Q.Y./.(._.{.{.vXbXnXMXVXZXZXZXKXLXLXJXJXJXJXFXFXFXFXAXAXuX0X0X0X5X5X5X1X1X4.4.-.-.-.} [ { | ",
"i.i.a.a.f.m.m.n.n.H.n.H.H.H.R.R.W.m.Y././.(._.{. X XmXnXMXMXZXZXKXKXKXLXLXLXJXJXJXFXFXAXAXAXtXtX0X0XwX5X5X1X<X4.2.-.-.{ { { ' ' ",
"i.i.a.a.f.n.n.n.n.H.H.H.H.R.R.R.W.!.Q.!.!.[.[.{. XmXmXnXnXMXZXZXZXKXKXKXLXLXJXJXJXFXFXFXAXAXyX0X0X0X9X3X3X<X<X4.;.;.-.-.} { { | ",
"i.a.a.f.f.n.n.n.n.H.n.H.H.H.R.E.W.W.Q.!.!.(.[.{. X XmXmXMXMXZXZXCXKXKXKXLXLXLXJXJXJXFXFXGXGXyXtXqXwX9X3X3X<X<X@X4.;.-.{ -.{ { ` ",
"i.a.a.f.f.n.n.n.n.H.H.H.H.R.R.R.E.W.W.!.!.[.[.{.|. XmXmXnXBXZXZXCXCXKXKXKXLXHXLXDXHXFXDXGXGXGXqXqXwX9X3X3X#X<X4.;.;.-..._ { { ` ",
"a.a.a.f.f.n.n.n.H.n.H.H.H.R.R.E.E.W.W.!.!.].[.{. X XmXmXmXBXZXZXCXCXKXKXKXKXLXLXLXDXJXSXGXGXGXqXqXwX9X#X3X#X@X@X:.-.:.-.O.{ _ _ ",
"a.a.a.f.f.n.n.n.n.H.H.H.H.H.R.R.E.W.W.Q.].[.[.{. X XmXmXmXBXBXZXCXCXCXKXKXKXLXHXLXLXDXDXSXGXGXPXqX9X>X9X#X#X<X@X;.-.=.{ ..| { _ ",
"i.i.f.f.n.n.n.n.n.H.H.H.H.R.R.R.E.W.Q.!.].].[.{.|. X XmXBXBXBXZXCXCXCXKXKXKXKXHXHXHXDXDXSXGXPXyXqXqX9X#X#X@X@X;.:.:.=.| =._ _ _ ",
"i.a.f.f.n.n.n.n.H.n.H.H.H.H.R.E.E.E.W.W.Q.].[.{.|. XmXmXmXnXBXZXCXCXCXCXKXKXCXKXHXDXSXSXSXPXPX,X,X>X>X>X#X#X@X;.;.:.-.=._ _ _ _ ",
"i.a.f.f.f.n.n.n.n.n.H.H.H.R.R.R.E.~.W.Q.!.!.[.[.|. X XmXmXBXBXBXZXCXCXCXZXKXNXHXHXxXSXSXSXSXcX,XqX,X>X>X*X@X:.:.:.:.=.{ _ _  ._ ",
"i.a.a.a.f.f.n.n.n.n.n.H.H.H.H.R.E.~.W.Q.!.].].[.|.|. X XmXmXBXBXZXVXCXCXCXCXNXNXNXHXxXcXcX,XcXcX,X>X>X#X#X#X@X+X:.=.=._ .._ _ ) ",
"i.i.i.f.f.f.m.n.n.n.H.H.H.H.H.R.~.~.~.W.!.!.].[.|. X XmXmXmXmXBXBXBXZXZXNXNXNXxXxXNXxXcXcXhXhXrX,X,X:X:X#X+X#X=.=.:.=.=.....) ) ",
"i.i.i.a.f.f.m.m.n.H.n.H.H.H.H.R.~.~.~.Q.Q.!.].[.|. X X XmXmXBXBXBXVXBXZXNXNXNXNXNXxXcXcXcXhXjXjX,X>X:X*X+X@X+X=.=.=.=._  . .) ) ",
"i.i.i.i.i.f.f.m.n.S.S.G.n.H.H.H.~.~.~.~.Q.].].(.|.|. X XmXmXmXBXBXMXMXBXMXNXVXNXxXxXzXcXjXhXjX,X:X:X%X*X+X@X+X=.=.=.o. . . .) ) ",
"r.r.i.i.a.a.f.m.n.n.n.G.H.H.H.H.F.~.~.~.Y.Q.].].[.|.|. X XmXmXmXMXMXMXMXMXMXVXzXzXxXzXjXjXjXjX,X,X:X:X:X+X+X+X=.=.X.o.o. .) ) ) ",
"r.r.i.i.i.a.f.f.m.n.n.S.G.G.n.H.F.~.~.~.U.Q.].].[.[.|. X XmXmXmXnXbXnXMXMXzXbXzXzXzXzXjXjXjXsXrX-X;X%X+X+X+X=.=.=.X.X. . . .M V ",
"0.r.r.r.i.a.a.f.f.h.n.S.n.n.G.H.F.F.~.~.Y.Q.].].[.[.|. X XmXmXmXbXnXnXbXMXnXzXzXzXlXzXjXdXdXdX-X-X;X%X%X+X+XOX=.=.X.o. .M M V V ",
"q.r.q.r.r.p.a.a.f.h.h.n.S.S.S.K.F.F.F.~.~.Y.Y.(.(.[._..X XvXvXvXbXbXnXbXnXlXMXlXlXjXdXjXdX-X-X-X;X%X$X+XZ.=.XXXXN X.N  .M V V M ",
"q.q.q.r.r.p.p.a.g.f.j.h.S.N.S.D.F.F.F.~.~.Y.Y.].(.[._..X X XvXvXbXbXbXbXlXbXlXlXlXlXlXdXdXdX-X=X=X;X$X+X+XXXXXXXXXN X. .M M n n ",
"0.q.q.r.r.r.i.i.a.g.g.h.h.N.S.N.F.F.F.F.T.U.Y./.(.(._..X.X X XnXvXvXbXbXlXlXlXlXlXdXdXdXdX-X=X-X$X%X$X$XV.=.XXXXN N N M M n n n ",
"p 0.q.q.q.r.r.i.d.a.f.h.h.h.N.S.N.F.F.F.F.Y.Y.Y.].(._..X.X`.kX XkXkXkXkXkXkXlXkXkXdXsXdXaX=X=X&X;XZ.$X$XV.V.c.XXV.X.M M M n n n ",
"p p q.q.q.r.r.i.i.s.s.h.h.h.N.N.N.F.F.F.~.T.T.T./.(.(._..X.X`.kXkX`.kXkXkXkXdXkXkXsXaXaXaX=X=X=XZ.$XV.+XV.=.V.c.N N B M n n b b ",
"p 0.p 0.0.0.r.r.i.s.s.s.h.h.h.N.N.F.N.F.F.T.T.T./.(.(._._.`..X`.`.fXkXkXkXkXkXsXsXsXaXaXaX=X&X&X$X$XV.V.V.c.c.c.N B B M b b b c ",
"p p p q.0.0.e.e.e.i.s.s.s.N.N.N.N.N.N.F.L.L.T.T.).).(._._.`.`.`.`.kX`.kXkXfXsXsXsXaXaXaX=X&X=XZ.Z.+XV.V.V.c.c.c.N B M b b b b c ",
"p p p p 0.0.w.w.e.i.s.s.s.s.h.h.N.N.N.N.F.T.T.T.T.).(.(._._._._.kXkXfX`.sX`.sXsXaX'.aXaX=X=X&X%XZ.Z.V.V.V.c.c.N N B M b b b b b "
};
