/* XPM */
static char *Sprites1694542248[] = {
/* columns rows colors chars-per-pixel */
"32 32 233 2 ",
"   c #0E0E19",
".  c #0E101E",
"X  c #0E1224",
"o  c #0D142B",
"O  c #161A28",
"+  c #0E1A38",
"@  c #10192F",
"#  c #0E223E",
"$  c #192436",
"%  c #1F212E",
"&  c #29242B",
"*  c #372426",
"=  c #272936",
"-  c #383037",
";  c #281B21",
":  c #6A1C0D",
">  c #781F0C",
",  c #7C240B",
"<  c #73270D",
"1  c #722F15",
"2  c #472A2B",
"3  c #54322F",
"4  c #68362A",
"5  c #713B29",
"6  c #5D170B",
"7  c #5E413D",
"8  c #734537",
"9  c #0D2748",
"0  c #162B46",
"q  c #18344D",
"w  c #0E2B55",
"e  c #0E345A",
"r  c #163A57",
"t  c #2D394C",
"y  c #0D3A67",
"u  c #0B3C77",
"i  c #483D42",
"p  c #394458",
"a  c #0D4577",
"s  c #124876",
"d  c #1A537A",
"f  c #14456A",
"g  c #264966",
"h  c #33556F",
"j  c #1C415B",
"k  c #504A53",
"l  c #6A575A",
"z  c #714F4B",
"x  c #7D615E",
"c  c #505869",
"v  c #6C5D62",
"b  c #745F61",
"n  c #546578",
"m  c #776569",
"M  c #79747B",
"N  c #6F6870",
"B  c #86290D",
"V  c #922F0F",
"C  c #97360D",
"Z  c #893514",
"A  c #963A13",
"S  c #8A2F0E",
"D  c #A43C0E",
"F  c #A53D10",
"G  c #9F4315",
"H  c #AA440F",
"J  c #AC4A14",
"K  c #A54514",
"L  c #B44D14",
"P  c #B95619",
"I  c #B0470E",
"U  c #934B2B",
"Y  c #B85B25",
"T  c #A9562B",
"R  c #BA6939",
"E  c #BF642E",
"W  c #C45C1C",
"Q  c #C15E23",
"!  c #C96628",
"~  c #C86C35",
"^  c #C9743E",
"/  c #D37439",
"(  c #D16D2F",
")  c #865748",
"_  c #985A43",
"`  c #8B665C",
"'  c #996C5A",
"]  c #A76749",
"[  c #B46E49",
"{  c #A7735B",
"}  c #B37451",
"|  c #846A66",
" . c #8B726D",
".. c #917571",
"X. c #A67A67",
"o. c #B67E63",
"O. c #AB7F72",
"+. c #D67C45",
"@. c #C47D56",
"#. c #CB7849",
"$. c #908F38",
"%. c #B0AE36",
"&. c #CAC835",
"*. c #BDBA46",
"=. c #9D8078",
"-. c #AF8678",
";. c #D9834D",
":. c #D88958",
">. c #D0885D",
",. c #C88A68",
"<. c #DA956A",
"1. c #D79976",
"2. c #CD906E",
"3. c #DDA079",
"4. c #E0A17C",
"5. c #0E4987",
"6. c #114A88",
"7. c #0E548B",
"8. c #0D5898",
"9. c #115599",
"0. c #145885",
"q. c #166494",
"w. c #376687",
"e. c #2E6E95",
"r. c #0D5DA4",
"t. c #105DA1",
"y. c #0D64AB",
"u. c #0E69A7",
"i. c #1165A8",
"p. c #0D6BB4",
"a. c #106EB4",
"s. c #0D76BA",
"d. c #1376B5",
"f. c #1576AB",
"g. c #277AAA",
"h. c #265E83",
"j. c #517793",
"k. c #717786",
"l. c #0D7DC5",
"z. c #1078C1",
"x. c #847D86",
"c. c #2D86B7",
"v. c #0D81BE",
"b. c #7A8797",
"n. c #78808B",
"m. c #4C8DB3",
"M. c #7194AD",
"N. c #7DA2B5",
"B. c #0D86C9",
"V. c #1587C6",
"C. c #1894CF",
"Z. c #0D8BD5",
"A. c #138ED0",
"S. c #0D92DC",
"D. c #1698D9",
"F. c #2B98D0",
"G. c #28A2DD",
"H. c #38A9DB",
"J. c #37A0CF",
"K. c #159DE1",
"L. c #1EA1E3",
"P. c #29A7E3",
"I. c #35ADE4",
"U. c #3CB3E8",
"Y. c #419ACA",
"T. c #47ABD8",
"R. c #56B3DB",
"E. c #55ACD3",
"W. c #6AB7D9",
"Q. c #77BDDB",
"!. c #6BA7C9",
"~. c #48B6E4",
"^. c #59BDE8",
"/. c #66BFE2",
"(. c #7AC1DF",
"). c #66C2E8",
"_. c #78C6E7",
"`. c #95888B",
"'. c #878B97",
"]. c #958F95",
"[. c #B0948E",
"{. c #8997A6",
"}. c #959AA7",
"|. c #A19FA6",
" X c #87A5B9",
".X c #9AA9B8",
"XX c #93A1AE",
"oX c #B8A9A7",
"OX c #A8A9B3",
"+X c #BAB8B8",
"@X c #ABACB0",
"#X c #BEA297",
"$X c #C69884",
"%X c #D9A586",
"&X c #C9A897",
"*X c #D6AB95",
"=X c #CCA38F",
"-X c #E3B397",
";X c #E3AA88",
":X c #D9B8A7",
">X c #C9B5AD",
",X c #E2BEA7",
"<X c #DAC4B8",
"1X c #CDC5BD",
"2X c #E1C6B8",
"3X c #85BAD5",
"4X c #8FB4CA",
"5X c #A5BBC9",
"6X c #B6B9C2",
"7X c #88C4DB",
"8X c #98C5DB",
"9X c #A5C8DA",
"0X c #B3C9D4",
"qX c #BBC7D2",
"wX c #84C9E6",
"eX c #96CDE8",
"rX c #98D3EA",
"tX c #91D2EE",
"yX c #A7D6EA",
"uX c #B3DEED",
"iX c #BAD7E7",
"pX c #A9D8ED",
"aX c #B9E2F2",
"sX c #B6E0EF",
"dX c #DACDC8",
"fX c #C8D6D6",
"gX c #D9D6D9",
"hX c #CCCCD0",
"jX c #C7D9E5",
"kX c #D4DEE5",
"lX c #CAE3EC",
"zX c #CBE3ED",
"xX c #DFDED1",
/* pixels */
"    . . X X O O O O ; ; ; * * 2 3 3 : < < < , < , , > > > : : 6 ",
"    X X X O O O % % ; % * * 2 3 3 4 4 1 1 Z S B B B B B > > : : ",
"  . X o @ @ $ $ % % & = * 2 3 4 3 4 5 Z 1 Z S Z S V V V B , > > ",
". X @ + # $ $ $ = = - - - 2 i i 8 z 8 U U A A A C C C C V B B , ",
"X o @ # # 9 $ q t t t t i i i z z ) ) U U U A K K D D D C C V B ",
"@ # # 9 0 q q q t t t i k k l l z ) ) _ T T T J H I I I H D A V ",
"+ # 9 9 e q j j t p t c k c v b | ` ' ] ] T Y Y P L P I I H G C ",
"+ # 9 w r r j g g g c c c v N M ....X.{ [ [ R Q Q W W P L J K H ",
"9 9 w y f f f g h h n n n N k. .x.O.o.-.o.[ ^ ~ ! ! W W W P J K ",
"w w e y f s d d h h n n k.k.'.`.`.[.-.-.,.,.#.^ / ( ! ! W W P J ",
"w e y a s d d h.w.h w.n.n.n.'.].[.#X[.$X2.,.>.;.;./ / ( ! Q P P ",
"y e a a d 0.q.q.e.w.j.m.b.'.}.|.|.oX&X&X$X1.<.:.;.;.+./ ( E E Y ",
"y y a 7.7.q.q.e.e.c.m.n.M.b.XX.X@X>X&X&X=X%X1.<.<.:.;./ ^ ~ E Y ",
"u u 5.7.8.u.q.f.e.m.m.M.M. X+X5X6XdX,X>X:X-X;X%X<.<.:.;.;.~ E R ",
"a a 7.8.u.u.f.c.c.m.m.!.N.$.%.%.$.%.*.1X,X-X-X;X4.<.<.:.;.#.^ R ",
"5.6.9.i.u.f.v.c.c.m.!.!. X*.%.&.&.%.*.<X2X2X-X-X4.4.1.>.;.@.R R ",
"6.7.t.i.d.s.V.V.c.Y.E.!.!.9X0XfXhXgXxXdXdX,X,X-X-X;X1.>.>.@.#.[ ",
"9.9.i.a.s.V.V.C.J.Y.E.!.7X8X9XiXjXjXgXdXdX2X2X,X;X;X%X2.>.@.[ [ ",
"9.r.y.s.z.B.A.F.F.T.R.W.7X8XyXsXjXzXkXgXgXdXdX,X,X*X%X1.,.@.} [ ",
"r.r.a.s.B.A.D.D.G.H.R.W.7X8XrXsXlXkXkXgXgXdXdX,X-X*X%X2.,.o.} [ ",
"r.r.s.l.B.Z.S.D.G.I.R./._.rXsXsXaXzXzXkXgXgXdX:X:X&X&X2.2.o.} ] ",
"r.p.z.l.Z.S.S.K.G.I.~./._.tXpXsXlXzXzXkXkXgXhX<X>X&X#X$X[.X.{ ' ",
"r.p.z.l.Z.S.S.K.L.I.~.^._.tXrXaXaXzXlXlXjXfXhX1X>X>X=X[.-.O.{ ' ",
"y.y.z.l.Z.S.S.K.L.I.~.^.).tXrXpXaXaXaXjXjXfXhX+X+XoX#X[.-.X.' ` ",
"r.y.z.z.l.S.S.S.L.P.U.^.)._.rXsXuXsXiXjXjXqXqXqX+XoX[.[.=.=.' ` ",
"r.y.p.z.l.Z.S.K.K.P.U.^.)._.rXpXpXuXuXiXiX0X+X6X@X|.[.`.=...' ` ",
"r.r.y.z.l.l.Z.S.D.L.U.R.)._.tXrXpXpXyXyX0X0X5X@X@X|.[.`.=. .| ` ",
"8.8.r.p.z.l.Z.Z.C.G.H.~.)._._.rXrXrXyX9X8X5X9X.X.X}.].`. . .| b ",
"6.9.9.y.p.s.B.B.C.C.H.H.R.(.(.wXeXrXrX9X9X5X.X.XXX].'.`.M | m m ",
"5.6.9.r.y.s.s.B.V.C.G.H.R.).(.7X7X7X8X8X4X4X X XXX{.n.n.M M m b ",
"u 5.5.r.u.u.s.s.v.C.F.J.T.R.Q.(.(.7X7X3X4X4X X XN.b.b.x.M m l l ",
"u u 5.7.8.u.s.s.v.V.F.J.T.W.W.Q.Q.3XQ.4X!.4X XN.b.b.n.M N N v l "
};
